<svg width="16" height="16" viewBox="0 0 16 16" fill="none" xmlns="http://www.w3.org/2000/svg">
<path d="M0.15987 12.0575L0.961416 12.8429C1.06822 12.9477 1.19126 13 1.33035 13C1.46911 13 1.59209 12.9477 1.69889 12.8429L7.99991 6.66914L14.3007 12.8427C14.4075 12.9476 14.5305 12.9998 14.6694 12.9998C14.8084 12.9998 14.9314 12.9476 15.0382 12.8427L15.8396 12.0573C15.9467 11.9526 16 11.8321 16 11.696C16 11.5599 15.9465 11.4394 15.8396 11.3347L8.36868 4.01418C8.26187 3.90947 8.13884 3.85714 7.99991 3.85714C7.86099 3.85714 7.73818 3.90947 7.63143 4.01418L0.15987 11.3347C0.0530642 11.4394 -1.25894e-07 11.5599 -1.14003e-07 11.696C-1.02097e-07 11.8321 0.0530643 11.9526 0.15987 12.0575Z" fill="#171A1E"/>
</svg>
