<svg width="16" height="10" viewBox="0 0 16 10" fill="none" xmlns="http://www.w3.org/2000/svg">
  <path d="M0.692632 5.6901L13.6354 5.6901L10.5471 8.77863C10.2765 9.04903 10.2765 9.48766 10.5471 9.75802C10.8176 10.0286 11.2562 10.0286 11.5264 9.75802L15.7971 5.48726C16.0676 5.21687 16.0676 4.77819 15.7971 4.50787L11.5264 0.236917C11.3912 0.101598 11.2139 0.0340391 11.0367 0.0340391C10.8595 0.034039 10.6823 0.101598 10.5471 0.236917C10.2765 0.507314 10.2765 0.94595 10.5471 1.21627L13.6354 4.30496L0.692632 4.30495C0.310156 4.30495 -1.44e-06 4.61507 -1.47344e-06 4.99755C-1.50687e-06 5.38002 0.310116 5.6901 0.692632 5.6901Z" fill="#171A1E"/>
</svg>
