<svg width="16" height="16" viewBox="0 0 16 16" fill="none" xmlns="http://www.w3.org/2000/svg">
<g clip-path="url(#clip0)">
<path d="M15.6644 14.1999L11.4872 10.0227C12.2331 8.97842 12.6807 7.71033 12.6807 6.36767C12.6807 2.86181 9.84618 0.0273438 6.34036 0.0273438C2.83455 0.0273438 0 2.86185 0 6.36767C0 9.87349 2.83451 12.708 6.34032 12.708C7.68299 12.708 8.95107 12.2604 9.99537 11.5145L14.1725 15.6917C14.5455 16.0646 15.2168 16.0646 15.6644 15.6917C16.1119 15.2442 16.1119 14.6474 15.6644 14.1999ZM6.34032 11.2162C3.655 11.2162 1.49185 9.05299 1.49185 6.36771C1.49185 3.68239 3.655 1.51923 6.34032 1.51923C9.02565 1.51923 11.1888 3.68239 11.1888 6.36771C11.1888 9.05299 9.02565 11.2162 6.34032 11.2162Z" fill="#A9A9AA"/>
</g>
<defs>
<clipPath id="clip0">
<rect width="16" height="16" fill="white"/>
</clipPath>
</defs>
</svg>
