<svg width="24" height="17" viewBox="0 0 24 17" fill="none" xmlns="http://www.w3.org/2000/svg">
<path d="M22.98 1.61891C22.329 0.439854 21.6225 0.222982 20.184 0.140509C18.747 0.0412364 15.1335 0 12.003 0C8.8665 0 5.2515 0.0412365 3.816 0.138982C2.3805 0.222982 1.6725 0.438327 1.0155 1.61891C0.345 2.79644 0 4.82465 0 8.39542C0 8.39847 0 8.4 0 8.4C0 8.40305 0 8.40458 0 8.40458V8.40764C0 11.9631 0.345 14.0066 1.0155 15.1719C1.6725 16.351 2.379 16.5648 3.8145 16.6641C5.2515 16.7496 8.8665 16.8 12.003 16.8C15.1335 16.8 18.747 16.7496 20.1855 16.6656C21.624 16.5663 22.3305 16.3525 22.9815 15.1735C23.658 14.0081 24 11.9647 24 8.40916C24 8.40916 24 8.40458 24 8.40153C24 8.40153 24 8.39847 24 8.39695C24 4.82465 23.658 2.79644 22.98 1.61891ZM9 12.9818V3.81818L16.5 8.4L9 12.9818Z" fill="#A62122"/>
</svg>
