<svg width="68" height="23" viewBox="0 0 68 23" fill="none" xmlns="http://www.w3.org/2000/svg">
<path d="M0 22.2457V8.62334L4.88981 8.62331V10.4979C5.0528 9.83142 6.18561 8.47337 9.41288 8.37339C12.6402 8.2734 14.0175 11.1645 14.3027 12.6226V22.3706H9.53513C9.61663 20.1627 9.73072 15.447 9.53513 14.2472C9.29064 12.7475 8.43492 12.1226 6.96798 12.1226C5.69287 12.1226 5.01206 13.4974 4.88981 14.4972V22.2457H0Z" fill="white"/>
<path d="M17.6033 18.1214V8.87326L22.3709 8.74829V16.8717C22.4524 17.7049 23.0569 18.9963 24.938 18.9963C26.6495 18.9963 27.1792 17.4549 27.1384 16.8717V8.74829H31.906C31.906 11.6227 32.1548 17.2646 31.906 18.6214C31.5393 20.621 29.2166 23.1205 24.6935 22.9955C20.2932 22.8739 17.9701 19.7878 17.6033 18.1214Z" fill="white"/>
<path d="M35.2066 22.3706V0H39.9742L40.0964 13.6223L44.6195 8.74829H50.9763L44.7418 15.122L51.4653 22.3706H44.9863L39.9742 16.8717V22.3706H35.2066Z" fill="white"/>
<path d="M62.4673 9.87306V8.74829H67.3571V22.3706H62.4673C62.4673 21.3708 62.5896 20.987 62.4673 21.1209C61.0982 22.6206 58.963 22.7455 58.0665 22.7455C55.6216 22.7455 51.7097 20.371 51.7097 15.9969C51.7097 10.2263 55.9883 8.37336 58.311 8.24838C60.1691 8.1484 61.8561 9.28985 62.4673 9.87306Z" fill="white"/>
<ellipse cx="59.3383" cy="15.6072" rx="3.20748" ry="3.28571" fill="#232323"/>
</svg>
