<svg width="495" height="105" viewBox="0 0 495 105" fill="none" xmlns="http://www.w3.org/2000/svg">
<path d="M495 1.65186V18.3763H461.863V103.179H444.079V18.3763H410.942V1.65186H495Z" fill="white"/>
<path d="M80.2785 74.7211C80.2785 79.8126 79.2324 84.3646 77.2077 88.2423C75.183 92.0862 72.3147 95.3232 68.6703 97.8858C65.1609 100.347 61.0103 102.168 56.3198 103.315C51.8317 104.427 46.8375 104.967 41.5396 104.967C25.8821 104.967 12.1143 100.01 0.708637 90.198L0 89.6247L0.94485 87.4667L2.76706 83.2856L7.99748 71.2481L12.1143 75.5978C13.5316 77.0814 15.2863 78.5313 17.311 79.9138C19.3694 81.2962 21.6978 82.5438 24.2286 83.5891C26.7595 84.6681 29.5603 85.4773 32.4961 86.0843C35.4319 86.6575 38.5701 86.961 41.8096 86.961C48.2886 86.961 53.2828 85.882 56.6235 83.724C59.3568 81.9706 60.6391 79.408 60.6391 75.6652C60.6391 73.6758 60.2679 72.091 59.5593 70.8771C58.7831 69.5958 57.5346 68.4157 55.8811 67.4041C53.8564 66.1903 51.2918 65.0775 48.1873 64.1671C47.3437 63.8974 46.4326 63.6614 45.4878 63.3916L46.3989 61.301L47.31 59.2105L51.2581 50.0727L52.1692 47.9822L53.0803 45.8916C54.7675 46.3637 56.3873 46.8694 57.9395 47.3752C62.3938 48.8588 66.2407 50.7134 69.4802 52.9725C72.9221 55.4003 75.6217 58.4012 77.4777 61.8743C79.3336 65.381 80.2785 69.697 80.2785 74.7211Z" fill="#A62122"/>
<path d="M74.6094 12.6108L73.6645 14.7688L71.7074 19.3208L66.6119 31.0212L62.5288 26.4017C60.4029 23.974 57.4334 21.9846 53.7552 20.4335C49.9758 18.8487 45.5553 18.0395 40.6285 18.0395C33.6772 18.0395 28.5142 19.2871 25.6797 21.58C23.0476 23.7717 21.799 26.6378 21.799 30.5154C21.799 32.4374 22.1027 33.9884 22.6764 35C23.2838 36.079 24.2624 37.0568 25.6797 37.9335C27.4006 39.0125 29.729 39.9904 32.5636 40.7996C34.0146 41.238 35.6006 41.6763 37.3553 42.0809L36.4442 44.1715L35.5331 46.262L31.6525 55.2987L30.7414 57.3892L29.8303 59.4798C27.2994 58.8054 24.971 58.0973 22.8114 57.3892C18.6608 56.0067 15.0501 54.2197 12.1143 52.0954C8.90859 49.7688 6.44523 46.9027 4.82549 43.5983C3.23949 40.3276 2.39587 36.3825 2.39587 31.8642C2.39587 26.8064 3.37447 22.2206 5.33166 18.1744C7.28885 14.0944 10.1234 10.6214 13.7341 7.92389C17.2098 5.32755 21.2929 3.33815 25.9159 1.9894C30.3702 0.674374 35.3644 0 40.7635 0C47.6137 0 53.8227 1.079 59.2556 3.16956C64.6547 5.26012 69.6152 8.22736 73.9682 12.0376L74.6094 12.6108Z" fill="#A62122"/>
<path d="M289.63 1.78673V103.347H275.255L220.892 35.3031V103.347H203.109V1.65186H216.573L271.847 71.0787V1.78673H289.63Z" fill="white"/>
<path d="M177.227 86.5892V103.347H106.026V1.65186H176.046V18.41H123.843V43.3282H169.331V59.6817H123.843V86.5892H177.227Z" fill="white"/>
<path d="M390.729 86.5892V103.347H319.528V1.65186H389.548V18.41H337.345V43.3282H382.867V59.6817H337.345V86.5892H390.729Z" fill="white"/>
</svg>
