<svg width="170" height="36" viewBox="0 0 170 36" fill="none" xmlns="http://www.w3.org/2000/svg">
<g clip-path="url(#clip0)">
<path d="M169.714 0.566406V6.30051H158.353V35.3757H152.256V6.30051H140.894V0.566406H169.714Z" fill="black"/>
<path d="M27.524 25.6188C27.524 27.3644 27.1654 28.9251 26.4712 30.2546C25.777 31.5725 24.7936 32.6824 23.5441 33.561C22.3409 34.4049 20.9178 35.0292 19.3096 35.4222C17.7709 35.8037 16.0586 35.9887 14.2422 35.9887C8.87387 35.9887 4.15348 34.2893 0.242961 30.9251L0 30.7286L0.323948 29.9887L0.948706 28.5552L2.74199 24.428L4.15348 25.9193C4.6394 26.428 5.24102 26.9251 5.9352 27.3991C6.64094 27.8731 7.43924 28.3008 8.30696 28.6592C9.17468 29.0292 10.135 29.3066 11.1415 29.5147C12.1481 29.7113 13.224 29.8153 14.3347 29.8153C16.5561 29.8153 18.2684 29.4454 19.4138 28.7055C20.3509 28.1043 20.7905 27.2257 20.7905 25.9425C20.7905 25.2604 20.6633 24.717 20.4203 24.3008C20.1542 23.8615 19.7261 23.4569 19.1592 23.1101C18.4651 22.6939 17.5858 22.3124 16.5214 22.0003C16.2321 21.9078 15.9198 21.8269 15.5958 21.7344L15.9082 21.0176L16.2206 20.3008L17.5742 17.1679L17.8866 16.4511L18.199 15.7344C18.7774 15.8962 19.3328 16.0696 19.865 16.243C21.3922 16.7517 22.7111 17.3876 23.8218 18.1621C25.0019 18.9945 25.9274 20.0234 26.5638 21.2141C27.2001 22.4165 27.524 23.8962 27.524 25.6188Z" fill="#A62122"/>
<path d="M25.5803 4.3237L25.2564 5.06358L24.5853 6.62428L22.8383 10.6358L21.4384 9.05202C20.7095 8.21965 19.6914 7.53757 18.4303 7.00578C17.1345 6.46243 15.6189 6.18497 13.9298 6.18497C11.5464 6.18497 9.77627 6.61272 8.80443 7.39884C7.902 8.15029 7.47392 9.13295 7.47392 10.4624C7.47392 11.1214 7.57805 11.6532 7.77473 12C7.98299 12.3699 8.3185 12.7052 8.80443 13.0058C9.39448 13.3757 10.1928 13.711 11.1646 13.9884C11.6621 14.1387 12.2059 14.289 12.8075 14.4277L12.4951 15.1445L12.1827 15.8613L10.8522 18.9595L10.5399 19.6763L10.2275 20.3931C9.35977 20.1618 8.56147 19.9191 7.82101 19.6763C6.39795 19.2023 5.16001 18.5896 4.15345 17.8613C3.05434 17.0636 2.20976 16.0809 1.65442 14.948C1.11065 13.8266 0.821411 12.474 0.821411 10.9249C0.821411 9.19075 1.15693 7.6185 1.82797 6.23121C2.499 4.83237 3.47085 3.64162 4.70879 2.71676C5.90046 1.82659 7.30038 1.14451 8.88541 0.682081C10.4126 0.231214 12.1249 0 13.976 0C16.3247 0 18.4535 0.369942 20.3162 1.08671C22.1673 1.80347 23.868 2.82081 25.3605 4.12717L25.5803 4.3237Z" fill="#A62122"/>
<path d="M99.3018 0.612649V35.4335H94.3731L75.7345 12.104V35.4335H69.6373V0.566406H74.2536L93.2046 24.3699V0.612649H99.3018Z" fill="black"/>
<path d="M60.7635 29.6878V35.4335H36.3517V0.566406H60.3586V6.31207H42.4604V14.8554H58.0562V20.4624H42.4604V29.6878H60.7635Z" fill="black"/>
<path d="M133.964 29.6878V35.4335H109.552V0.566406H133.559V6.31207H115.661V14.8554H131.269V20.4624H115.661V29.6878H133.964Z" fill="black"/>
</g>
<defs>
<clipPath id="clip0">
<rect width="169.714" height="36" fill="white"/>
</clipPath>
</defs>
</svg>
