<svg width="80" height="377" viewBox="0 0 80 377" fill="none" xmlns="http://www.w3.org/2000/svg">
<g clip-path="url(#clip0)">
<path d="M1.25854 -0.000305176L14.001 -0.000305733L14.001 25.2376L78.6124 25.2376L78.6124 38.7817L14.001 38.7817L14.001 64.0195L1.25854 64.0195L1.25854 -0.000305176Z" fill="white"/>
<path d="M56.9304 315.859C60.8097 315.859 64.2779 316.655 67.2323 318.197C70.161 319.739 72.6273 321.924 74.5797 324.7C76.4551 327.372 77.8424 330.534 78.7159 334.106C79.5637 337.524 79.9747 341.328 79.9747 345.363C79.9747 357.288 76.1982 367.774 68.7223 376.46L68.2856 377L66.6414 376.28L63.4558 374.893L54.2843 370.909L57.5984 367.774C58.7287 366.694 59.8334 365.358 60.8867 363.816C61.94 362.248 62.8906 360.475 63.687 358.547C64.5091 356.62 65.1257 354.486 65.5881 352.25C66.0248 350.015 66.256 347.624 66.256 345.157C66.256 340.223 65.4339 336.419 63.7898 333.875C62.4539 331.793 60.5014 330.816 57.6497 330.816C56.134 330.816 54.9266 331.099 54.0017 331.639C53.0255 332.23 52.1263 333.181 51.3556 334.44C50.4307 335.982 49.5829 337.935 48.8893 340.3C48.6838 340.942 48.5039 341.636 48.2984 342.356L46.7056 341.662L45.1128 340.968L38.1507 337.961L36.5579 337.267L34.9651 336.573C35.3248 335.288 35.7101 334.055 36.0955 332.872C37.2258 329.48 38.6388 326.55 40.3601 324.083C42.2098 321.461 44.4962 319.405 47.1424 317.992C49.8142 316.578 53.1025 315.859 56.9304 315.859Z" fill="#A62122"/>
<path d="M9.60822 320.177L11.2524 320.896L14.7206 322.387L23.6352 326.268L20.1156 329.378C18.2659 330.997 16.7502 333.258 15.5684 336.06C14.361 338.938 13.7444 342.305 13.7444 346.057C13.7444 351.351 14.6949 355.284 16.4419 357.442C18.1118 359.447 20.2954 360.398 23.2498 360.398C24.7142 360.398 25.896 360.167 26.6667 359.73C27.4888 359.267 28.2338 358.522 28.9017 357.442C29.7238 356.132 30.4689 354.358 31.0854 352.2C31.4194 351.094 31.7534 349.887 32.0617 348.55L33.6545 349.244L35.2473 349.938L42.1323 352.893L43.7251 353.587L45.3179 354.281C44.8041 356.209 44.2646 357.982 43.7251 359.627C42.6718 362.788 41.3102 365.538 39.6917 367.774C37.9191 370.216 35.7354 372.092 33.2177 373.325C30.7258 374.533 27.72 375.176 24.2775 375.176C20.4239 375.176 16.93 374.43 13.8471 372.94C10.7386 371.449 8.09249 369.29 6.03725 366.54C4.05909 363.893 2.54335 360.784 1.51573 357.263C0.513808 353.87 -1.09756e-06 350.066 -1.27731e-06 345.954C-1.50536e-06 340.737 0.822092 336.008 2.4149 331.871C4.00771 327.758 6.26846 323.98 9.17148 320.665L9.60822 320.177Z" fill="#A62122"/>
<path d="M1.3613 156.413L78.7409 156.413L78.7409 167.361L26.8976 208.764L78.7409 208.764L78.7409 222.309L1.25854 222.309L1.25854 212.054L54.1552 169.957L1.3613 169.957L1.3613 156.413Z" fill="white"/>
<path d="M65.9728 242.022L78.7409 242.022L78.7409 296.25L1.25854 296.25L1.25854 242.922L14.0267 242.922L14.0267 282.68L33.0119 282.68L33.0119 248.036L45.4718 248.036L45.4718 282.68L65.9728 282.68L65.9728 242.022Z" fill="white"/>
<path d="M65.9728 79.4146L78.7409 79.4146L78.7409 133.643L1.25854 133.643L1.25854 80.3141L14.0267 80.3141L14.0267 120.073L33.0119 120.073L33.0119 85.4028L45.4718 85.4028L45.4718 120.073L65.9728 120.073L65.9728 79.4146Z" fill="white"/>
</g>
<defs>
<clipPath id="clip0">
<rect width="377" height="80" fill="white" transform="translate(0 377) rotate(-90)"/>
</clipPath>
</defs>
</svg>
