<svg width="80" height="377" viewBox="0 0 80 377" fill="none" xmlns="http://www.w3.org/2000/svg">
<g clip-path="url(#clip0)">
<path d="M1.25866 -0.000305176L14.0011 -0.000305733L14.0011 25.2376L78.6126 25.2376L78.6126 38.7817L14.0011 38.7817L14.0011 64.0195L1.25867 64.0195L1.25866 -0.000305176Z" fill="black"/>
<path d="M56.9302 315.859C60.8094 315.859 64.2776 316.655 67.232 318.197C70.1607 319.739 72.627 321.924 74.5795 324.7C76.4549 327.372 77.8422 330.534 78.7157 334.106C79.5634 337.524 79.9745 341.328 79.9745 345.363C79.9745 357.288 76.198 367.774 68.7221 376.46L68.2853 377L66.6411 376.28L63.4555 374.893L54.2841 370.909L57.5981 367.774C58.7285 366.694 59.8332 365.358 60.8865 363.816C61.9398 362.248 62.8903 360.475 63.6867 358.547C64.5088 356.62 65.1254 354.486 65.5878 352.25C66.0246 350.015 66.2558 347.624 66.2558 345.157C66.2558 340.223 65.4337 336.419 63.7895 333.875C62.4536 331.793 60.5011 330.816 57.6495 330.816C56.1338 330.816 54.9263 331.099 54.0015 331.639C53.0252 332.23 52.1261 333.181 51.3553 334.44C50.4305 335.982 49.5827 337.935 48.8891 340.3C48.6835 340.942 48.5037 341.636 48.2982 342.356L46.7054 341.662L45.1126 340.968L38.1505 337.961L36.5576 337.267L34.9648 336.573C35.3245 335.288 35.7099 334.055 36.0952 332.872C37.2256 329.48 38.6386 326.55 40.3598 324.083C42.2095 321.461 44.496 319.405 47.1421 317.992C49.8139 316.578 53.1023 315.859 56.9302 315.859Z" fill="#A62122"/>
<path d="M9.60822 320.176L11.2524 320.895L14.7206 322.386L23.6352 326.267L20.1156 329.377C18.2659 330.996 16.7502 333.257 15.5684 336.059C14.361 338.937 13.7444 342.304 13.7444 346.056C13.7444 351.35 14.6949 355.283 16.4419 357.441C18.1118 359.446 20.2954 360.397 23.2498 360.397C24.7142 360.397 25.896 360.166 26.6667 359.729C27.4888 359.266 28.2338 358.521 28.9017 357.441C29.7238 356.131 30.4689 354.357 31.0854 352.199C31.4194 351.093 31.7534 349.886 32.0617 348.549L33.6545 349.243L35.2473 349.937L42.1323 352.893L43.7251 353.586L45.3179 354.28C44.8041 356.208 44.2646 357.981 43.7251 359.626C42.6718 362.787 41.3102 365.537 39.6917 367.773C37.9191 370.215 35.7354 372.091 33.2177 373.324C30.7258 374.532 27.72 375.175 24.2775 375.175C20.4239 375.175 16.93 374.429 13.8471 372.939C10.7386 371.448 8.09249 369.289 6.03725 366.539C4.05909 363.892 2.54335 360.783 1.51573 357.262C0.513808 353.869 -1.09756e-06 350.065 -1.27731e-06 345.953C-1.50536e-06 340.736 0.822092 336.007 2.4149 331.87C4.00771 327.757 6.26846 323.979 9.17148 320.664L9.60822 320.176Z" fill="#A62122"/>
<path d="M1.36143 156.413L78.741 156.413L78.741 167.361L26.8977 208.764L78.741 208.764L78.741 222.309L1.25867 222.309L1.25867 212.054L54.1553 169.957L1.36143 169.957L1.36143 156.413Z" fill="black"/>
<path d="M65.9729 242.021L78.741 242.021L78.741 296.249L1.25867 296.249L1.25866 242.921L14.0268 242.921L14.0268 282.679L33.012 282.679L33.012 248.035L45.4719 248.035L45.4719 282.679L65.9729 282.679L65.9729 242.021Z" fill="black"/>
<path d="M65.9729 79.4146L78.741 79.4146L78.741 133.643L1.25867 133.643L1.25866 80.3141L14.0268 80.3141L14.0268 120.073L33.012 120.073L33.012 85.4028L45.4719 85.4028L45.4719 120.073L65.9729 120.073L65.9729 79.4146Z" fill="black"/>
</g>
<defs>
<clipPath id="clip0">
<rect width="377" height="80" fill="white" transform="translate(0 377) rotate(-90)"/>
</clipPath>
</defs>
</svg>
