<svg width="142" height="142" viewBox="0 0 142 142" fill="none" xmlns="http://www.w3.org/2000/svg">
<path d="M70.7523 18.044C72.2949 18.044 73.5455 16.7934 73.5455 15.2509V2.79313C73.5455 1.25054 72.2949 0 70.7523 0C69.2097 0 67.9592 1.25054 67.9592 2.79313V15.2509C67.9595 16.7934 69.21 18.044 70.7523 18.044Z" fill="#EE2524"/>
<path d="M139.027 95.9572L134.093 91.0368C132.337 89.2838 129.998 88.318 127.505 88.318C125.911 88.318 124.381 88.7146 123.025 89.4576L113.727 80.1705L114.18 79.7182C117.952 75.9385 117.951 69.7968 114.18 66.0299C112.832 64.6798 111.151 63.7795 109.318 63.4007C109.57 62.5295 109.703 61.6171 109.703 60.6832C109.703 58.0887 108.695 55.6558 106.871 53.8389C105.523 52.4888 103.841 51.5886 102.008 51.2097C102.261 50.3386 102.394 49.4264 102.394 48.4923C102.394 45.8975 101.386 43.4649 99.5584 41.6453C98.1783 40.2669 96.4818 39.3943 94.7004 39.023C95.6534 35.7373 94.8391 32.0406 92.2542 29.4513C90.1026 27.3088 87.183 26.388 84.3694 26.6864L65.944 23.1988C63.134 22.6658 59.6248 22.3133 57.4096 24.3337C57.2698 24.4613 57.1273 24.608 56.9869 24.7714C53.5523 23.5195 49.5464 24.265 46.7959 27.0123C44.9713 28.8347 43.9662 31.2665 43.9662 33.8597C43.9662 34.7938 44.0985 35.7059 44.3506 36.5774C42.5196 36.9559 40.8403 37.8551 39.4971 39.2007C37.6688 41.0215 36.6607 43.4505 36.6588 46.0406C36.6579 46.9769 36.7908 47.8921 37.0443 48.7658C35.2124 49.1435 33.532 50.041 32.1846 51.3867C30.3564 53.213 29.3496 55.6461 29.3496 58.2379C29.3496 60.2231 29.9423 62.1143 31.0406 63.7118C29.6539 64.1819 28.3836 64.9643 27.32 66.0268C23.5454 69.7968 23.544 75.9388 27.3225 79.724L27.7738 80.1733L18.4744 89.4557C15.0185 87.8285 10.7604 88.4381 7.90847 91.2865L2.97119 96.2099C1.21505 97.9638 0.248233 100.303 0.247955 102.798C0.247955 105.292 1.21505 107.632 2.97119 109.386L9.13294 115.54C10.2243 116.631 11.9929 116.63 13.0829 115.538C14.1731 114.447 14.172 112.678 13.0807 111.588L6.9189 105.434C6.21944 104.735 5.83421 103.799 5.83421 102.798C5.83421 101.797 6.21944 100.861 6.91724 100.164L11.8548 95.2403C13.0884 94.008 14.9766 93.8244 16.4104 94.6817C16.5114 94.8334 16.6282 94.9776 16.7618 95.1116C17.0012 95.3515 17.2744 95.5354 17.5645 95.6699L45.8793 123.943C46.0138 124.236 46.1985 124.512 46.4396 124.754C46.6742 124.988 46.9418 125.17 47.2258 125.304C47.8246 125.981 48.1555 126.846 48.1555 127.768C48.1555 128.769 47.7703 129.705 47.0708 130.404L42.1382 135.331C40.6808 136.782 38.3101 136.781 36.8571 135.335L30.6953 129.173C29.6045 128.082 27.8362 128.082 26.7454 129.173C25.6546 130.264 25.6546 132.032 26.7454 133.123L32.9116 139.289C34.7265 141.097 37.11 142 39.4946 142C41.8797 142 44.266 141.095 46.0832 139.286L51.0188 134.357C52.7749 132.602 53.742 130.263 53.742 127.768C53.742 125.988 53.247 124.288 52.3265 122.822L62.7923 112.368C62.8034 112.357 62.8145 112.346 62.8259 112.334C64.0243 111.095 67.3615 111.327 70.589 111.551C72.8821 111.711 75.4386 111.888 77.9364 111.6L89.3973 123.048C88.6549 124.401 88.2586 125.929 88.2586 127.521C88.2586 130.013 89.2256 132.351 90.9818 134.105L95.9177 139.035C97.6727 140.788 100.012 141.754 102.505 141.754C104.997 141.754 107.337 140.788 109.092 139.035L139.029 109.135C140.785 107.381 141.752 105.041 141.752 102.547C141.752 100.052 140.785 97.7128 139.027 95.9572ZM64.904 28.6875L77.0203 30.9808L69.7681 38.2303C68.6462 37.6912 67.1086 36.6855 65.4218 35.0719C63.1129 32.8632 61.4613 30.313 61.311 28.7224C61.3107 28.7216 61.3107 28.7208 61.3107 28.7199C61.3107 28.7197 61.3105 28.7194 61.3105 28.7191C61.2996 28.6048 61.2969 28.5136 61.2982 28.444C61.6635 28.3552 62.6337 28.2568 64.904 28.6875ZM50.7434 30.9648C52.1584 29.5511 54.3566 29.388 55.9555 30.4708C56.8616 34.2699 60.1023 37.7131 61.5603 39.1081C62.6409 40.1421 66.1079 43.2419 69.6075 44.0939C70.0809 44.7726 70.3385 45.5816 70.3385 46.4353C70.3385 47.5349 69.9156 48.563 69.1449 49.3329C68.3763 50.1029 67.3466 50.5266 66.2449 50.5266C65.1431 50.5266 64.1133 50.1029 63.3412 49.3293L63.3409 49.3291L63.3395 49.3277L50.7431 36.754C49.9751 35.9872 49.5522 34.9591 49.5522 33.8597C49.5525 32.76 49.9754 31.7319 50.7434 30.9648ZM43.4448 43.1532C44.2133 42.3835 45.242 41.9595 46.3419 41.9595C47.4433 41.9595 48.4753 42.3844 49.2488 43.1571L59.3918 53.2798C60.989 54.8795 60.989 57.4827 59.3973 59.0769C58.6247 59.8465 57.5913 60.2703 56.4877 60.2703C55.3842 60.2703 54.3508 59.8465 53.5814 59.0802L53.5812 59.0799L45.8863 51.3867C45.8743 51.3748 45.8613 51.3637 45.8491 51.3515L43.4417 48.9452C42.6693 48.1737 42.2442 47.1436 42.245 46.0448C42.2461 44.9495 42.6699 43.9247 43.4448 43.1532ZM36.1324 55.3391C36.9014 54.5711 37.9323 54.1482 39.0356 54.1482C40.1297 54.1482 41.1517 54.565 41.9175 55.3197L49.6359 63.0346C50.4056 63.8011 50.8296 64.8281 50.8296 65.9264C50.8296 67.0244 50.4056 68.0514 49.6329 68.8211C48.8641 69.5887 47.8343 70.0117 46.733 70.0117C45.63 70.0117 44.5969 69.5876 43.827 68.8211L41.0289 66.0263C41.0283 66.0254 41.0275 66.0249 41.0269 66.0243L36.1326 61.1359C35.3611 60.3651 34.9362 59.3356 34.9362 58.2373C34.9362 57.1393 35.3611 56.1096 36.1324 55.3391ZM31.2677 69.979C32.0401 69.2074 33.0724 68.7825 34.1743 68.7825C35.2759 68.7825 36.3079 69.2071 37.08 69.9781L39.882 72.7768C40.652 73.5434 41.0757 74.5704 41.0757 75.6687C41.0757 76.767 40.6517 77.7937 39.8762 78.5664C39.1077 79.336 38.0779 79.7601 36.9763 79.7601C35.8744 79.7601 34.8446 79.3363 34.0706 78.5608L33.7197 78.2114C33.715 78.2066 33.7114 78.2017 33.707 78.1972C33.7017 78.1922 33.6962 78.1878 33.6909 78.1828L31.2705 75.7718C29.6733 74.1713 29.6719 71.5729 31.2677 69.979ZM88.1881 101.723C87.0979 100.632 85.3292 100.631 84.2382 101.721L81.7532 104.203C79.3919 106.564 75.1133 106.267 70.9756 105.98C66.4824 105.667 61.836 105.345 58.8293 108.432L48.5413 118.707L22.814 93.0179L31.9187 83.9296C33.4235 84.8521 35.16 85.3466 36.9769 85.3466C39.5725 85.3466 42.0065 84.3404 43.8245 82.5191C45.6547 80.6964 46.6628 78.2638 46.6628 75.669C46.6628 75.6448 46.6612 75.621 46.6612 75.5968C46.6853 75.5971 46.7094 75.5985 46.7335 75.5985C49.3256 75.5985 51.7576 74.5954 53.5781 72.7771C55.4083 70.9544 56.4164 68.5215 56.4164 65.927C56.4164 65.9028 56.4148 65.879 56.4148 65.8549C56.4392 65.8549 56.4636 65.8565 56.4883 65.8565C59.0795 65.8565 61.5129 64.8545 63.3456 63.0293C65.2482 61.1237 66.1892 58.6148 66.1712 56.1112C66.1961 56.1115 66.2211 56.1129 66.2461 56.1129C68.8417 56.1126 71.2754 55.1067 73.0962 53.2826C74.9208 51.4602 75.9259 49.0284 75.9259 46.4353C75.9259 44.6217 75.4328 42.888 74.5134 41.3862L82.4934 33.4095C83.088 32.8174 83.8213 32.4458 84.5899 32.2924C84.673 32.2835 84.7551 32.2702 84.8364 32.2541C86.0695 32.0841 87.3644 32.4646 88.3074 33.4037C89.9046 35.0037 89.9046 37.6069 88.3132 39.201L85.8828 41.6214C85.8748 41.6294 85.8662 41.6367 85.8581 41.6447L83.0589 44.4392C81.9673 45.5292 81.9662 47.2978 83.0564 48.3891C84.1469 49.4808 85.9153 49.4816 87.0063 48.3916L89.4464 45.9549C89.447 45.9543 89.4475 45.9538 89.4481 45.9532L89.8169 45.5858C91.4186 43.9988 94.0134 44.0021 95.6134 45.5999C96.3833 46.3665 96.8074 47.3935 96.8074 48.4918C96.8074 49.5898 96.3833 50.6168 95.6073 51.3894L93.1631 53.8387C93.1628 53.8389 93.1625 53.8392 93.1623 53.8398L90.3633 56.6274C89.2703 57.7159 89.2667 59.4846 90.3553 60.5773C91.4438 61.6703 93.2122 61.6736 94.3052 60.5853L97.1169 57.785C97.8854 57.0151 98.9152 56.5913 100.017 56.5913C101.119 56.5913 102.149 57.0151 102.923 57.7905C103.693 58.5574 104.117 59.5844 104.117 60.6827C104.117 61.7807 103.693 62.8077 102.918 63.5787L98.0455 68.4536C96.9549 69.5446 96.9552 71.313 98.046 72.4035C98.5916 72.9488 99.306 73.2211 100.021 73.2211C100.736 73.2211 101.451 72.9482 101.996 72.4027L104.384 70.0136C104.398 70.0006 104.412 69.9892 104.426 69.9756C105.195 69.2057 106.224 68.782 107.326 68.782C108.428 68.782 109.458 69.2057 110.229 69.9784C111.824 71.5723 111.823 74.171 110.229 75.768L107.801 78.1933C107.8 78.1942 107.799 78.195 107.798 78.1958C107.797 78.1967 107.796 78.1978 107.795 78.1986L103.942 82.0479C102.85 83.1381 102.849 84.9067 103.939 85.9981C104.485 86.5442 105.2 86.8173 105.915 86.8173C106.63 86.8173 107.344 86.545 107.889 86.0006L109.774 84.1177L118.809 93.1422L93.0843 118.836L83.8671 109.63C84.5097 109.216 85.1246 108.731 85.7017 108.153L88.1853 105.673C89.2772 104.583 89.2783 102.815 88.1881 101.723ZM135.081 105.182L105.144 135.083C104.444 135.782 103.506 136.167 102.505 136.167C101.503 136.167 100.565 135.782 99.8648 135.082L94.9289 130.153C94.2295 129.454 93.8443 128.52 93.8443 127.521C93.8443 126.522 94.2295 125.588 94.9289 124.889L124.866 94.9887C125.566 94.289 126.503 93.9037 127.505 93.9037C128.507 93.9037 129.445 94.289 130.147 94.9904L135.081 99.9107C135.781 100.609 136.166 101.545 136.166 102.546C136.166 103.548 135.78 104.484 135.081 105.182Z" fill="black"/>
<path d="M33.6634 15.6898C34.2087 16.2339 34.9226 16.5057 35.6365 16.5057C36.352 16.5057 37.0678 16.2323 37.6134 15.6856C38.7031 14.5937 38.7014 12.8254 37.6095 11.7357L27.4315 1.57798C26.3399 0.488294 24.5713 0.48968 23.4816 1.58186C22.3919 2.67376 22.3936 4.44211 23.4855 5.53179L33.6634 15.6898Z" fill="#EE2524"/>
<path d="M105.868 16.5056C106.582 16.5056 107.297 16.2333 107.842 15.6888L118.012 5.53085C119.104 4.44089 119.105 2.67227 118.014 1.58092C116.925 0.489576 115.156 0.488466 114.065 1.5787L103.894 11.7367C102.803 12.8267 102.802 14.5953 103.892 15.6866C104.438 16.2327 105.153 16.5056 105.868 16.5056Z" fill="#EE2524"/>
<path d="M17.4224 120.148C16.3411 121.247 16.356 123.016 17.4563 124.097L17.4643 124.105C18.0071 124.639 18.7118 124.905 19.4163 124.905C20.1393 124.905 20.8623 124.625 21.4101 124.067C22.4914 122.968 22.4723 121.195 21.3724 120.114C20.2727 119.032 18.5044 119.048 17.4224 120.148Z" fill="black"/>
<path d="M95.0196 97.6976C95.4445 97.6976 95.8755 97.6008 96.2802 97.397C97.6575 96.7022 98.2108 95.0226 97.5163 93.6454C96.8215 92.2681 95.1417 91.7145 93.7647 92.4092L93.7491 92.417C92.3718 93.1117 91.8263 94.7875 92.5208 96.1647C93.0111 97.1377 93.9973 97.6976 95.0196 97.6976Z" fill="black"/>
</svg>
