<svg width="250" height="250" viewBox="0 0 250 250" fill="none" xmlns="http://www.w3.org/2000/svg">
<g opacity="0.3">
<ellipse cx="1.13636" cy="1.14155" rx="1.13636" ry="1.14155" fill="#C4C4C4"/>
<ellipse cx="9.09144" cy="1.14155" rx="1.13636" ry="1.14155" fill="#C4C4C4"/>
<ellipse cx="17.0455" cy="1.14155" rx="1.13636" ry="1.14155" fill="#C4C4C4"/>
<ellipse cx="24.9996" cy="1.14155" rx="1.13636" ry="1.14155" fill="#C4C4C4"/>
<ellipse cx="32.9537" cy="1.14155" rx="1.13636" ry="1.14155" fill="#C4C4C4"/>
<ellipse cx="40.9098" cy="1.14155" rx="1.13636" ry="1.14155" fill="#C4C4C4"/>
<ellipse cx="48.8629" cy="1.14155" rx="1.13636" ry="1.14155" fill="#C4C4C4"/>
<ellipse cx="56.819" cy="1.14155" rx="1.13636" ry="1.14155" fill="#C4C4C4"/>
<ellipse cx="1.13636" cy="9.13252" rx="1.13636" ry="1.14155" fill="#C4C4C4"/>
<ellipse cx="9.09144" cy="9.13252" rx="1.13636" ry="1.14155" fill="#C4C4C4"/>
<ellipse cx="17.0455" cy="9.13252" rx="1.13636" ry="1.14155" fill="#C4C4C4"/>
<ellipse cx="24.9996" cy="9.13252" rx="1.13636" ry="1.14155" fill="#C4C4C4"/>
<ellipse cx="32.9537" cy="9.13252" rx="1.13636" ry="1.14155" fill="#C4C4C4"/>
<ellipse cx="40.9098" cy="9.13252" rx="1.13636" ry="1.14155" fill="#C4C4C4"/>
<ellipse cx="48.8629" cy="9.13252" rx="1.13636" ry="1.14155" fill="#C4C4C4"/>
<ellipse cx="56.819" cy="9.13252" rx="1.13636" ry="1.14155" fill="#C4C4C4"/>
<ellipse cx="1.13636" cy="17.1232" rx="1.13636" ry="1.14155" fill="#C4C4C4"/>
<ellipse cx="9.09144" cy="17.1232" rx="1.13636" ry="1.14155" fill="#C4C4C4"/>
<ellipse cx="17.0455" cy="17.1232" rx="1.13636" ry="1.14155" fill="#C4C4C4"/>
<ellipse cx="24.9996" cy="17.1232" rx="1.13636" ry="1.14155" fill="#C4C4C4"/>
<ellipse cx="32.9537" cy="17.1232" rx="1.13636" ry="1.14155" fill="#C4C4C4"/>
<ellipse cx="40.9098" cy="17.1232" rx="1.13636" ry="1.14155" fill="#C4C4C4"/>
<ellipse cx="48.8629" cy="17.1232" rx="1.13636" ry="1.14155" fill="#C4C4C4"/>
<ellipse cx="56.819" cy="17.1232" rx="1.13636" ry="1.14155" fill="#C4C4C4"/>
<ellipse cx="1.13636" cy="25.1142" rx="1.13636" ry="1.14155" fill="#C4C4C4"/>
<ellipse cx="9.09144" cy="25.1142" rx="1.13636" ry="1.14155" fill="#C4C4C4"/>
<ellipse cx="17.0455" cy="25.1142" rx="1.13636" ry="1.14155" fill="#C4C4C4"/>
<ellipse cx="24.9996" cy="25.1142" rx="1.13636" ry="1.14155" fill="#C4C4C4"/>
<ellipse cx="32.9537" cy="25.1142" rx="1.13636" ry="1.14155" fill="#C4C4C4"/>
<ellipse cx="40.9098" cy="25.1142" rx="1.13636" ry="1.14155" fill="#C4C4C4"/>
<ellipse cx="48.8629" cy="25.1142" rx="1.13636" ry="1.14155" fill="#C4C4C4"/>
<ellipse cx="56.819" cy="25.1142" rx="1.13636" ry="1.14155" fill="#C4C4C4"/>
<ellipse cx="1.13636" cy="33.1052" rx="1.13636" ry="1.14155" fill="#C4C4C4"/>
<ellipse cx="9.09144" cy="33.1052" rx="1.13636" ry="1.14155" fill="#C4C4C4"/>
<ellipse cx="17.0455" cy="33.1052" rx="1.13636" ry="1.14155" fill="#C4C4C4"/>
<ellipse cx="24.9996" cy="33.1052" rx="1.13636" ry="1.14155" fill="#C4C4C4"/>
<ellipse cx="32.9537" cy="33.1052" rx="1.13636" ry="1.14155" fill="#C4C4C4"/>
<ellipse cx="40.9098" cy="33.1052" rx="1.13636" ry="1.14155" fill="#C4C4C4"/>
<ellipse cx="48.8629" cy="33.1052" rx="1.13636" ry="1.14155" fill="#C4C4C4"/>
<ellipse cx="56.819" cy="33.1052" rx="1.13636" ry="1.14155" fill="#C4C4C4"/>
<ellipse cx="1.13636" cy="41.0959" rx="1.13636" ry="1.14155" fill="#C4C4C4"/>
<ellipse cx="9.09144" cy="41.0959" rx="1.13636" ry="1.14155" fill="#C4C4C4"/>
<ellipse cx="17.0455" cy="41.0959" rx="1.13636" ry="1.14155" fill="#C4C4C4"/>
<ellipse cx="24.9996" cy="41.0959" rx="1.13636" ry="1.14155" fill="#C4C4C4"/>
<ellipse cx="32.9537" cy="41.0959" rx="1.13636" ry="1.14155" fill="#C4C4C4"/>
<ellipse cx="40.9098" cy="41.0959" rx="1.13636" ry="1.14155" fill="#C4C4C4"/>
<ellipse cx="48.8629" cy="41.0959" rx="1.13636" ry="1.14155" fill="#C4C4C4"/>
<ellipse cx="56.819" cy="41.0959" rx="1.13636" ry="1.14155" fill="#C4C4C4"/>
<ellipse cx="1.13636" cy="49.0869" rx="1.13636" ry="1.14155" fill="#C4C4C4"/>
<ellipse cx="9.09144" cy="49.0869" rx="1.13636" ry="1.14155" fill="#C4C4C4"/>
<ellipse cx="17.0455" cy="49.0869" rx="1.13636" ry="1.14155" fill="#C4C4C4"/>
<ellipse cx="24.9996" cy="49.0869" rx="1.13636" ry="1.14155" fill="#C4C4C4"/>
<ellipse cx="32.9537" cy="49.0869" rx="1.13636" ry="1.14155" fill="#C4C4C4"/>
<ellipse cx="40.9098" cy="49.0869" rx="1.13636" ry="1.14155" fill="#C4C4C4"/>
<ellipse cx="48.8629" cy="49.0869" rx="1.13636" ry="1.14155" fill="#C4C4C4"/>
<ellipse cx="56.819" cy="49.0869" rx="1.13636" ry="1.14155" fill="#C4C4C4"/>
<ellipse cx="1.13636" cy="57.0776" rx="1.13636" ry="1.14155" fill="#C4C4C4"/>
<ellipse cx="9.09144" cy="57.0776" rx="1.13636" ry="1.14155" fill="#C4C4C4"/>
<ellipse cx="17.0455" cy="57.0776" rx="1.13636" ry="1.14155" fill="#C4C4C4"/>
<ellipse cx="24.9996" cy="57.0776" rx="1.13636" ry="1.14155" fill="#C4C4C4"/>
<ellipse cx="32.9537" cy="57.0776" rx="1.13636" ry="1.14155" fill="#C4C4C4"/>
<ellipse cx="40.9098" cy="57.0776" rx="1.13636" ry="1.14155" fill="#C4C4C4"/>
<ellipse cx="48.8629" cy="57.0776" rx="1.13636" ry="1.14155" fill="#C4C4C4"/>
<ellipse cx="56.819" cy="57.0776" rx="1.13636" ry="1.14155" fill="#C4C4C4"/>
<ellipse cx="1.13636" cy="65.0686" rx="1.13636" ry="1.14155" fill="#C4C4C4"/>
<ellipse cx="9.09144" cy="65.0686" rx="1.13636" ry="1.14155" fill="#C4C4C4"/>
<ellipse cx="17.0455" cy="65.0686" rx="1.13636" ry="1.14155" fill="#C4C4C4"/>
<ellipse cx="24.9996" cy="65.0686" rx="1.13636" ry="1.14155" fill="#C4C4C4"/>
<ellipse cx="32.9537" cy="65.0686" rx="1.13636" ry="1.14155" fill="#C4C4C4"/>
<ellipse cx="40.9098" cy="65.0686" rx="1.13636" ry="1.14155" fill="#C4C4C4"/>
<ellipse cx="48.8629" cy="65.0686" rx="1.13636" ry="1.14155" fill="#C4C4C4"/>
<ellipse cx="56.819" cy="65.0686" rx="1.13636" ry="1.14155" fill="#C4C4C4"/>
<ellipse cx="1.13636" cy="73.0593" rx="1.13636" ry="1.14155" fill="#C4C4C4"/>
<ellipse cx="9.09144" cy="73.0593" rx="1.13636" ry="1.14155" fill="#C4C4C4"/>
<ellipse cx="17.0455" cy="73.0593" rx="1.13636" ry="1.14155" fill="#C4C4C4"/>
<ellipse cx="24.9996" cy="73.0593" rx="1.13636" ry="1.14155" fill="#C4C4C4"/>
<ellipse cx="32.9537" cy="73.0593" rx="1.13636" ry="1.14155" fill="#C4C4C4"/>
<ellipse cx="40.9098" cy="73.0593" rx="1.13636" ry="1.14155" fill="#C4C4C4"/>
<ellipse cx="48.8629" cy="73.0593" rx="1.13636" ry="1.14155" fill="#C4C4C4"/>
<ellipse cx="56.819" cy="73.0593" rx="1.13636" ry="1.14155" fill="#C4C4C4"/>
<ellipse cx="1.13636" cy="81.0502" rx="1.13636" ry="1.14155" fill="#C4C4C4"/>
<ellipse cx="9.09144" cy="81.0502" rx="1.13636" ry="1.14155" fill="#C4C4C4"/>
<ellipse cx="17.0455" cy="81.0502" rx="1.13636" ry="1.14155" fill="#C4C4C4"/>
<ellipse cx="24.9996" cy="81.0502" rx="1.13636" ry="1.14155" fill="#C4C4C4"/>
<ellipse cx="32.9537" cy="81.0502" rx="1.13636" ry="1.14155" fill="#C4C4C4"/>
<ellipse cx="40.9098" cy="81.0502" rx="1.13636" ry="1.14155" fill="#C4C4C4"/>
<ellipse cx="48.8629" cy="81.0502" rx="1.13636" ry="1.14155" fill="#C4C4C4"/>
<ellipse cx="56.819" cy="81.0502" rx="1.13636" ry="1.14155" fill="#C4C4C4"/>
<ellipse cx="1.13636" cy="89.041" rx="1.13636" ry="1.14155" fill="#C4C4C4"/>
<ellipse cx="9.09144" cy="89.041" rx="1.13636" ry="1.14155" fill="#C4C4C4"/>
<ellipse cx="17.0455" cy="89.041" rx="1.13636" ry="1.14155" fill="#C4C4C4"/>
<ellipse cx="24.9996" cy="89.041" rx="1.13636" ry="1.14155" fill="#C4C4C4"/>
<ellipse cx="32.9537" cy="89.041" rx="1.13636" ry="1.14155" fill="#C4C4C4"/>
<ellipse cx="40.9098" cy="89.041" rx="1.13636" ry="1.14155" fill="#C4C4C4"/>
<ellipse cx="48.8629" cy="89.041" rx="1.13636" ry="1.14155" fill="#C4C4C4"/>
<ellipse cx="56.819" cy="89.041" rx="1.13636" ry="1.14155" fill="#C4C4C4"/>
<ellipse cx="1.13636" cy="97.0319" rx="1.13636" ry="1.14155" fill="#C4C4C4"/>
<ellipse cx="9.09144" cy="97.0319" rx="1.13636" ry="1.14155" fill="#C4C4C4"/>
<ellipse cx="17.0455" cy="97.0319" rx="1.13636" ry="1.14155" fill="#C4C4C4"/>
<ellipse cx="24.9996" cy="97.0319" rx="1.13636" ry="1.14155" fill="#C4C4C4"/>
<ellipse cx="32.9537" cy="97.0319" rx="1.13636" ry="1.14155" fill="#C4C4C4"/>
<ellipse cx="40.9098" cy="97.0319" rx="1.13636" ry="1.14155" fill="#C4C4C4"/>
<ellipse cx="48.8629" cy="97.0319" rx="1.13636" ry="1.14155" fill="#C4C4C4"/>
<ellipse cx="56.819" cy="97.0319" rx="1.13636" ry="1.14155" fill="#C4C4C4"/>
<ellipse cx="1.13636" cy="105.023" rx="1.13636" ry="1.14155" fill="#C4C4C4"/>
<ellipse cx="9.09144" cy="105.023" rx="1.13636" ry="1.14155" fill="#C4C4C4"/>
<ellipse cx="17.0455" cy="105.023" rx="1.13636" ry="1.14155" fill="#C4C4C4"/>
<ellipse cx="24.9996" cy="105.023" rx="1.13636" ry="1.14155" fill="#C4C4C4"/>
<ellipse cx="32.9537" cy="105.023" rx="1.13636" ry="1.14155" fill="#C4C4C4"/>
<ellipse cx="40.9098" cy="105.023" rx="1.13636" ry="1.14155" fill="#C4C4C4"/>
<ellipse cx="48.8629" cy="105.023" rx="1.13636" ry="1.14155" fill="#C4C4C4"/>
<ellipse cx="56.819" cy="105.023" rx="1.13636" ry="1.14155" fill="#C4C4C4"/>
<ellipse cx="1.13636" cy="113.013" rx="1.13636" ry="1.14155" fill="#C4C4C4"/>
<ellipse cx="9.09144" cy="113.013" rx="1.13636" ry="1.14155" fill="#C4C4C4"/>
<ellipse cx="17.0455" cy="113.013" rx="1.13636" ry="1.14155" fill="#C4C4C4"/>
<ellipse cx="24.9996" cy="113.013" rx="1.13636" ry="1.14155" fill="#C4C4C4"/>
<ellipse cx="32.9537" cy="113.013" rx="1.13636" ry="1.14155" fill="#C4C4C4"/>
<ellipse cx="40.9098" cy="113.013" rx="1.13636" ry="1.14155" fill="#C4C4C4"/>
<ellipse cx="48.8629" cy="113.013" rx="1.13636" ry="1.14155" fill="#C4C4C4"/>
<ellipse cx="56.819" cy="113.013" rx="1.13636" ry="1.14155" fill="#C4C4C4"/>
<ellipse cx="1.13636" cy="121.004" rx="1.13636" ry="1.14155" fill="#C4C4C4"/>
<ellipse cx="9.09144" cy="121.004" rx="1.13636" ry="1.14155" fill="#C4C4C4"/>
<ellipse cx="17.0455" cy="121.004" rx="1.13636" ry="1.14155" fill="#C4C4C4"/>
<ellipse cx="24.9996" cy="121.004" rx="1.13636" ry="1.14155" fill="#C4C4C4"/>
<ellipse cx="32.9537" cy="121.004" rx="1.13636" ry="1.14155" fill="#C4C4C4"/>
<ellipse cx="40.9098" cy="121.004" rx="1.13636" ry="1.14155" fill="#C4C4C4"/>
<ellipse cx="48.8629" cy="121.004" rx="1.13636" ry="1.14155" fill="#C4C4C4"/>
<ellipse cx="56.819" cy="121.004" rx="1.13636" ry="1.14155" fill="#C4C4C4"/>
<ellipse cx="64.7731" cy="1.14155" rx="1.13636" ry="1.14155" fill="#C4C4C4"/>
<ellipse cx="72.7282" cy="1.14155" rx="1.13636" ry="1.14155" fill="#C4C4C4"/>
<ellipse cx="80.6813" cy="1.14155" rx="1.13636" ry="1.14155" fill="#C4C4C4"/>
<ellipse cx="88.6364" cy="1.14155" rx="1.13636" ry="1.14155" fill="#C4C4C4"/>
<ellipse cx="96.5905" cy="1.14155" rx="1.13636" ry="1.14155" fill="#C4C4C4"/>
<ellipse cx="104.546" cy="1.14155" rx="1.13636" ry="1.14155" fill="#C4C4C4"/>
<ellipse cx="112.5" cy="1.14155" rx="1.13636" ry="1.14155" fill="#C4C4C4"/>
<ellipse cx="120.454" cy="1.14155" rx="1.13636" ry="1.14155" fill="#C4C4C4"/>
<ellipse cx="64.7731" cy="9.13252" rx="1.13636" ry="1.14155" fill="#C4C4C4"/>
<ellipse cx="72.7282" cy="9.13252" rx="1.13636" ry="1.14155" fill="#C4C4C4"/>
<ellipse cx="80.6813" cy="9.13252" rx="1.13636" ry="1.14155" fill="#C4C4C4"/>
<ellipse cx="88.6364" cy="9.13252" rx="1.13636" ry="1.14155" fill="#C4C4C4"/>
<ellipse cx="96.5905" cy="9.13252" rx="1.13636" ry="1.14155" fill="#C4C4C4"/>
<ellipse cx="104.546" cy="9.13252" rx="1.13636" ry="1.14155" fill="#C4C4C4"/>
<ellipse cx="112.5" cy="9.13252" rx="1.13636" ry="1.14155" fill="#C4C4C4"/>
<ellipse cx="120.454" cy="9.13252" rx="1.13636" ry="1.14155" fill="#C4C4C4"/>
<ellipse cx="64.7731" cy="17.1232" rx="1.13636" ry="1.14155" fill="#C4C4C4"/>
<ellipse cx="72.7282" cy="17.1232" rx="1.13636" ry="1.14155" fill="#C4C4C4"/>
<ellipse cx="80.6813" cy="17.1232" rx="1.13636" ry="1.14155" fill="#C4C4C4"/>
<ellipse cx="88.6364" cy="17.1232" rx="1.13636" ry="1.14155" fill="#C4C4C4"/>
<ellipse cx="96.5905" cy="17.1232" rx="1.13636" ry="1.14155" fill="#C4C4C4"/>
<ellipse cx="104.546" cy="17.1232" rx="1.13636" ry="1.14155" fill="#C4C4C4"/>
<ellipse cx="112.5" cy="17.1232" rx="1.13636" ry="1.14155" fill="#C4C4C4"/>
<ellipse cx="120.454" cy="17.1232" rx="1.13636" ry="1.14155" fill="#C4C4C4"/>
<ellipse cx="64.7731" cy="25.1142" rx="1.13636" ry="1.14155" fill="#C4C4C4"/>
<ellipse cx="72.7282" cy="25.1142" rx="1.13636" ry="1.14155" fill="#C4C4C4"/>
<ellipse cx="80.6813" cy="25.1142" rx="1.13636" ry="1.14155" fill="#C4C4C4"/>
<ellipse cx="88.6364" cy="25.1142" rx="1.13636" ry="1.14155" fill="#C4C4C4"/>
<ellipse cx="96.5905" cy="25.1142" rx="1.13636" ry="1.14155" fill="#C4C4C4"/>
<ellipse cx="104.546" cy="25.1142" rx="1.13636" ry="1.14155" fill="#C4C4C4"/>
<ellipse cx="112.5" cy="25.1142" rx="1.13636" ry="1.14155" fill="#C4C4C4"/>
<ellipse cx="120.454" cy="25.1142" rx="1.13636" ry="1.14155" fill="#C4C4C4"/>
<ellipse cx="64.7731" cy="33.1052" rx="1.13636" ry="1.14155" fill="#C4C4C4"/>
<ellipse cx="72.7282" cy="33.1052" rx="1.13636" ry="1.14155" fill="#C4C4C4"/>
<ellipse cx="80.6813" cy="33.1052" rx="1.13636" ry="1.14155" fill="#C4C4C4"/>
<ellipse cx="88.6364" cy="33.1052" rx="1.13636" ry="1.14155" fill="#C4C4C4"/>
<ellipse cx="96.5905" cy="33.1052" rx="1.13636" ry="1.14155" fill="#C4C4C4"/>
<ellipse cx="104.546" cy="33.1052" rx="1.13636" ry="1.14155" fill="#C4C4C4"/>
<ellipse cx="112.5" cy="33.1052" rx="1.13636" ry="1.14155" fill="#C4C4C4"/>
<ellipse cx="120.454" cy="33.1052" rx="1.13636" ry="1.14155" fill="#C4C4C4"/>
<ellipse cx="64.7731" cy="41.0959" rx="1.13636" ry="1.14155" fill="#C4C4C4"/>
<ellipse cx="72.7282" cy="41.0959" rx="1.13636" ry="1.14155" fill="#C4C4C4"/>
<ellipse cx="80.6813" cy="41.0959" rx="1.13636" ry="1.14155" fill="#C4C4C4"/>
<ellipse cx="88.6364" cy="41.0959" rx="1.13636" ry="1.14155" fill="#C4C4C4"/>
<ellipse cx="96.5905" cy="41.0959" rx="1.13636" ry="1.14155" fill="#C4C4C4"/>
<ellipse cx="104.546" cy="41.0959" rx="1.13636" ry="1.14155" fill="#C4C4C4"/>
<ellipse cx="112.5" cy="41.0959" rx="1.13636" ry="1.14155" fill="#C4C4C4"/>
<ellipse cx="120.454" cy="41.0959" rx="1.13636" ry="1.14155" fill="#C4C4C4"/>
<ellipse cx="64.7731" cy="49.0869" rx="1.13636" ry="1.14155" fill="#C4C4C4"/>
<ellipse cx="72.7282" cy="49.0869" rx="1.13636" ry="1.14155" fill="#C4C4C4"/>
<ellipse cx="80.6813" cy="49.0869" rx="1.13636" ry="1.14155" fill="#C4C4C4"/>
<ellipse cx="88.6364" cy="49.0869" rx="1.13636" ry="1.14155" fill="#C4C4C4"/>
<ellipse cx="96.5905" cy="49.0869" rx="1.13636" ry="1.14155" fill="#C4C4C4"/>
<ellipse cx="104.546" cy="49.0869" rx="1.13636" ry="1.14155" fill="#C4C4C4"/>
<ellipse cx="112.5" cy="49.0869" rx="1.13636" ry="1.14155" fill="#C4C4C4"/>
<ellipse cx="120.454" cy="49.0869" rx="1.13636" ry="1.14155" fill="#C4C4C4"/>
<ellipse cx="64.7731" cy="57.0776" rx="1.13636" ry="1.14155" fill="#C4C4C4"/>
<ellipse cx="72.7282" cy="57.0776" rx="1.13636" ry="1.14155" fill="#C4C4C4"/>
<ellipse cx="80.6813" cy="57.0776" rx="1.13636" ry="1.14155" fill="#C4C4C4"/>
<ellipse cx="88.6364" cy="57.0776" rx="1.13636" ry="1.14155" fill="#C4C4C4"/>
<ellipse cx="96.5905" cy="57.0776" rx="1.13636" ry="1.14155" fill="#C4C4C4"/>
<ellipse cx="104.546" cy="57.0776" rx="1.13636" ry="1.14155" fill="#C4C4C4"/>
<ellipse cx="112.5" cy="57.0776" rx="1.13636" ry="1.14155" fill="#C4C4C4"/>
<ellipse cx="120.454" cy="57.0776" rx="1.13636" ry="1.14155" fill="#C4C4C4"/>
<ellipse cx="64.7731" cy="65.0686" rx="1.13636" ry="1.14155" fill="#C4C4C4"/>
<ellipse cx="72.7282" cy="65.0686" rx="1.13636" ry="1.14155" fill="#C4C4C4"/>
<ellipse cx="80.6813" cy="65.0686" rx="1.13636" ry="1.14155" fill="#C4C4C4"/>
<ellipse cx="88.6364" cy="65.0686" rx="1.13636" ry="1.14155" fill="#C4C4C4"/>
<ellipse cx="96.5905" cy="65.0686" rx="1.13636" ry="1.14155" fill="#C4C4C4"/>
<ellipse cx="104.546" cy="65.0686" rx="1.13636" ry="1.14155" fill="#C4C4C4"/>
<ellipse cx="112.5" cy="65.0686" rx="1.13636" ry="1.14155" fill="#C4C4C4"/>
<ellipse cx="120.454" cy="65.0686" rx="1.13636" ry="1.14155" fill="#C4C4C4"/>
<ellipse cx="64.7731" cy="73.0593" rx="1.13636" ry="1.14155" fill="#C4C4C4"/>
<ellipse cx="72.7282" cy="73.0593" rx="1.13636" ry="1.14155" fill="#C4C4C4"/>
<ellipse cx="80.6813" cy="73.0593" rx="1.13636" ry="1.14155" fill="#C4C4C4"/>
<ellipse cx="88.6364" cy="73.0593" rx="1.13636" ry="1.14155" fill="#C4C4C4"/>
<ellipse cx="96.5905" cy="73.0593" rx="1.13636" ry="1.14155" fill="#C4C4C4"/>
<ellipse cx="104.546" cy="73.0593" rx="1.13636" ry="1.14155" fill="#C4C4C4"/>
<ellipse cx="112.5" cy="73.0593" rx="1.13636" ry="1.14155" fill="#C4C4C4"/>
<ellipse cx="120.454" cy="73.0593" rx="1.13636" ry="1.14155" fill="#C4C4C4"/>
<ellipse cx="64.7731" cy="81.0502" rx="1.13636" ry="1.14155" fill="#C4C4C4"/>
<ellipse cx="72.7282" cy="81.0502" rx="1.13636" ry="1.14155" fill="#C4C4C4"/>
<ellipse cx="80.6813" cy="81.0502" rx="1.13636" ry="1.14155" fill="#C4C4C4"/>
<ellipse cx="88.6364" cy="81.0502" rx="1.13636" ry="1.14155" fill="#C4C4C4"/>
<ellipse cx="96.5905" cy="81.0502" rx="1.13636" ry="1.14155" fill="#C4C4C4"/>
<ellipse cx="104.546" cy="81.0502" rx="1.13636" ry="1.14155" fill="#C4C4C4"/>
<ellipse cx="112.5" cy="81.0502" rx="1.13636" ry="1.14155" fill="#C4C4C4"/>
<ellipse cx="120.454" cy="81.0502" rx="1.13636" ry="1.14155" fill="#C4C4C4"/>
<ellipse cx="64.7731" cy="89.041" rx="1.13636" ry="1.14155" fill="#C4C4C4"/>
<ellipse cx="72.7282" cy="89.041" rx="1.13636" ry="1.14155" fill="#C4C4C4"/>
<ellipse cx="80.6813" cy="89.041" rx="1.13636" ry="1.14155" fill="#C4C4C4"/>
<ellipse cx="88.6364" cy="89.041" rx="1.13636" ry="1.14155" fill="#C4C4C4"/>
<ellipse cx="96.5905" cy="89.041" rx="1.13636" ry="1.14155" fill="#C4C4C4"/>
<ellipse cx="104.546" cy="89.041" rx="1.13636" ry="1.14155" fill="#C4C4C4"/>
<ellipse cx="112.5" cy="89.041" rx="1.13636" ry="1.14155" fill="#C4C4C4"/>
<ellipse cx="120.454" cy="89.041" rx="1.13636" ry="1.14155" fill="#C4C4C4"/>
<ellipse cx="64.7731" cy="97.0319" rx="1.13636" ry="1.14155" fill="#C4C4C4"/>
<ellipse cx="72.7282" cy="97.0319" rx="1.13636" ry="1.14155" fill="#C4C4C4"/>
<ellipse cx="80.6813" cy="97.0319" rx="1.13636" ry="1.14155" fill="#C4C4C4"/>
<ellipse cx="88.6364" cy="97.0319" rx="1.13636" ry="1.14155" fill="#C4C4C4"/>
<ellipse cx="96.5905" cy="97.0319" rx="1.13636" ry="1.14155" fill="#C4C4C4"/>
<ellipse cx="104.546" cy="97.0319" rx="1.13636" ry="1.14155" fill="#C4C4C4"/>
<ellipse cx="112.5" cy="97.0319" rx="1.13636" ry="1.14155" fill="#C4C4C4"/>
<ellipse cx="120.454" cy="97.0319" rx="1.13636" ry="1.14155" fill="#C4C4C4"/>
<ellipse cx="64.7731" cy="105.023" rx="1.13636" ry="1.14155" fill="#C4C4C4"/>
<ellipse cx="72.7282" cy="105.023" rx="1.13636" ry="1.14155" fill="#C4C4C4"/>
<ellipse cx="80.6813" cy="105.023" rx="1.13636" ry="1.14155" fill="#C4C4C4"/>
<ellipse cx="88.6364" cy="105.023" rx="1.13636" ry="1.14155" fill="#C4C4C4"/>
<ellipse cx="96.5905" cy="105.023" rx="1.13636" ry="1.14155" fill="#C4C4C4"/>
<ellipse cx="104.546" cy="105.023" rx="1.13636" ry="1.14155" fill="#C4C4C4"/>
<ellipse cx="112.5" cy="105.023" rx="1.13636" ry="1.14155" fill="#C4C4C4"/>
<ellipse cx="120.454" cy="105.023" rx="1.13636" ry="1.14155" fill="#C4C4C4"/>
<ellipse cx="64.7731" cy="113.013" rx="1.13636" ry="1.14155" fill="#C4C4C4"/>
<ellipse cx="72.7282" cy="113.013" rx="1.13636" ry="1.14155" fill="#C4C4C4"/>
<ellipse cx="80.6813" cy="113.013" rx="1.13636" ry="1.14155" fill="#C4C4C4"/>
<ellipse cx="88.6364" cy="113.013" rx="1.13636" ry="1.14155" fill="#C4C4C4"/>
<ellipse cx="96.5905" cy="113.013" rx="1.13636" ry="1.14155" fill="#C4C4C4"/>
<ellipse cx="104.546" cy="113.013" rx="1.13636" ry="1.14155" fill="#C4C4C4"/>
<ellipse cx="112.5" cy="113.013" rx="1.13636" ry="1.14155" fill="#C4C4C4"/>
<ellipse cx="120.454" cy="113.013" rx="1.13636" ry="1.14155" fill="#C4C4C4"/>
<ellipse cx="64.7731" cy="121.004" rx="1.13636" ry="1.14155" fill="#C4C4C4"/>
<ellipse cx="72.7282" cy="121.004" rx="1.13636" ry="1.14155" fill="#C4C4C4"/>
<ellipse cx="80.6813" cy="121.004" rx="1.13636" ry="1.14155" fill="#C4C4C4"/>
<ellipse cx="88.6364" cy="121.004" rx="1.13636" ry="1.14155" fill="#C4C4C4"/>
<ellipse cx="96.5905" cy="121.004" rx="1.13636" ry="1.14155" fill="#C4C4C4"/>
<ellipse cx="104.546" cy="121.004" rx="1.13636" ry="1.14155" fill="#C4C4C4"/>
<ellipse cx="112.5" cy="121.004" rx="1.13636" ry="1.14155" fill="#C4C4C4"/>
<ellipse cx="120.454" cy="121.004" rx="1.13636" ry="1.14155" fill="#C4C4C4"/>
<ellipse cx="129.546" cy="1.14155" rx="1.13636" ry="1.14155" fill="#C4C4C4"/>
<ellipse cx="137.5" cy="1.14155" rx="1.13636" ry="1.14155" fill="#C4C4C4"/>
<ellipse cx="145.454" cy="1.14155" rx="1.13636" ry="1.14155" fill="#C4C4C4"/>
<ellipse cx="153.408" cy="1.14155" rx="1.13636" ry="1.14155" fill="#C4C4C4"/>
<ellipse cx="161.364" cy="1.14155" rx="1.13636" ry="1.14155" fill="#C4C4C4"/>
<ellipse cx="169.318" cy="1.14155" rx="1.13636" ry="1.14155" fill="#C4C4C4"/>
<ellipse cx="177.272" cy="1.14155" rx="1.13636" ry="1.14155" fill="#C4C4C4"/>
<ellipse cx="185.228" cy="1.14155" rx="1.13636" ry="1.14155" fill="#C4C4C4"/>
<ellipse cx="129.546" cy="9.13252" rx="1.13636" ry="1.14155" fill="#C4C4C4"/>
<ellipse cx="137.5" cy="9.13252" rx="1.13636" ry="1.14155" fill="#C4C4C4"/>
<ellipse cx="145.454" cy="9.13252" rx="1.13636" ry="1.14155" fill="#C4C4C4"/>
<ellipse cx="153.408" cy="9.13252" rx="1.13636" ry="1.14155" fill="#C4C4C4"/>
<ellipse cx="161.364" cy="9.13252" rx="1.13636" ry="1.14155" fill="#C4C4C4"/>
<ellipse cx="169.318" cy="9.13252" rx="1.13636" ry="1.14155" fill="#C4C4C4"/>
<ellipse cx="177.272" cy="9.13252" rx="1.13636" ry="1.14155" fill="#C4C4C4"/>
<ellipse cx="185.228" cy="9.13252" rx="1.13636" ry="1.14155" fill="#C4C4C4"/>
<ellipse cx="129.546" cy="17.1232" rx="1.13636" ry="1.14155" fill="#C4C4C4"/>
<ellipse cx="137.5" cy="17.1232" rx="1.13636" ry="1.14155" fill="#C4C4C4"/>
<ellipse cx="145.454" cy="17.1232" rx="1.13636" ry="1.14155" fill="#C4C4C4"/>
<ellipse cx="153.408" cy="17.1232" rx="1.13636" ry="1.14155" fill="#C4C4C4"/>
<ellipse cx="161.364" cy="17.1232" rx="1.13636" ry="1.14155" fill="#C4C4C4"/>
<ellipse cx="169.318" cy="17.1232" rx="1.13636" ry="1.14155" fill="#C4C4C4"/>
<ellipse cx="177.272" cy="17.1232" rx="1.13636" ry="1.14155" fill="#C4C4C4"/>
<ellipse cx="185.228" cy="17.1232" rx="1.13636" ry="1.14155" fill="#C4C4C4"/>
<ellipse cx="129.546" cy="25.1142" rx="1.13636" ry="1.14155" fill="#C4C4C4"/>
<ellipse cx="137.5" cy="25.1142" rx="1.13636" ry="1.14155" fill="#C4C4C4"/>
<ellipse cx="145.454" cy="25.1142" rx="1.13636" ry="1.14155" fill="#C4C4C4"/>
<ellipse cx="153.408" cy="25.1142" rx="1.13636" ry="1.14155" fill="#C4C4C4"/>
<ellipse cx="161.364" cy="25.1142" rx="1.13636" ry="1.14155" fill="#C4C4C4"/>
<ellipse cx="169.318" cy="25.1142" rx="1.13636" ry="1.14155" fill="#C4C4C4"/>
<ellipse cx="177.272" cy="25.1142" rx="1.13636" ry="1.14155" fill="#C4C4C4"/>
<ellipse cx="185.228" cy="25.1142" rx="1.13636" ry="1.14155" fill="#C4C4C4"/>
<ellipse cx="129.546" cy="33.1052" rx="1.13636" ry="1.14155" fill="#C4C4C4"/>
<ellipse cx="137.5" cy="33.1052" rx="1.13636" ry="1.14155" fill="#C4C4C4"/>
<ellipse cx="145.454" cy="33.1052" rx="1.13636" ry="1.14155" fill="#C4C4C4"/>
<ellipse cx="153.408" cy="33.1052" rx="1.13636" ry="1.14155" fill="#C4C4C4"/>
<ellipse cx="161.364" cy="33.1052" rx="1.13636" ry="1.14155" fill="#C4C4C4"/>
<ellipse cx="169.318" cy="33.1052" rx="1.13636" ry="1.14155" fill="#C4C4C4"/>
<ellipse cx="177.272" cy="33.1052" rx="1.13636" ry="1.14155" fill="#C4C4C4"/>
<ellipse cx="185.228" cy="33.1052" rx="1.13636" ry="1.14155" fill="#C4C4C4"/>
<ellipse cx="129.546" cy="41.0959" rx="1.13636" ry="1.14155" fill="#C4C4C4"/>
<ellipse cx="137.5" cy="41.0959" rx="1.13636" ry="1.14155" fill="#C4C4C4"/>
<ellipse cx="145.454" cy="41.0959" rx="1.13636" ry="1.14155" fill="#C4C4C4"/>
<ellipse cx="153.408" cy="41.0959" rx="1.13636" ry="1.14155" fill="#C4C4C4"/>
<ellipse cx="161.364" cy="41.0959" rx="1.13636" ry="1.14155" fill="#C4C4C4"/>
<ellipse cx="169.318" cy="41.0959" rx="1.13636" ry="1.14155" fill="#C4C4C4"/>
<ellipse cx="177.272" cy="41.0959" rx="1.13636" ry="1.14155" fill="#C4C4C4"/>
<ellipse cx="185.228" cy="41.0959" rx="1.13636" ry="1.14155" fill="#C4C4C4"/>
<ellipse cx="129.546" cy="49.0869" rx="1.13636" ry="1.14155" fill="#C4C4C4"/>
<ellipse cx="137.5" cy="49.0869" rx="1.13636" ry="1.14155" fill="#C4C4C4"/>
<ellipse cx="145.454" cy="49.0869" rx="1.13636" ry="1.14155" fill="#C4C4C4"/>
<ellipse cx="153.408" cy="49.0869" rx="1.13636" ry="1.14155" fill="#C4C4C4"/>
<ellipse cx="161.364" cy="49.0869" rx="1.13636" ry="1.14155" fill="#C4C4C4"/>
<ellipse cx="169.318" cy="49.0869" rx="1.13636" ry="1.14155" fill="#C4C4C4"/>
<ellipse cx="177.272" cy="49.0869" rx="1.13636" ry="1.14155" fill="#C4C4C4"/>
<ellipse cx="185.228" cy="49.0869" rx="1.13636" ry="1.14155" fill="#C4C4C4"/>
<ellipse cx="129.546" cy="57.0776" rx="1.13636" ry="1.14155" fill="#C4C4C4"/>
<ellipse cx="137.5" cy="57.0776" rx="1.13636" ry="1.14155" fill="#C4C4C4"/>
<ellipse cx="145.454" cy="57.0776" rx="1.13636" ry="1.14155" fill="#C4C4C4"/>
<ellipse cx="153.408" cy="57.0776" rx="1.13636" ry="1.14155" fill="#C4C4C4"/>
<ellipse cx="161.364" cy="57.0776" rx="1.13636" ry="1.14155" fill="#C4C4C4"/>
<ellipse cx="169.318" cy="57.0776" rx="1.13636" ry="1.14155" fill="#C4C4C4"/>
<ellipse cx="177.272" cy="57.0776" rx="1.13636" ry="1.14155" fill="#C4C4C4"/>
<ellipse cx="185.228" cy="57.0776" rx="1.13636" ry="1.14155" fill="#C4C4C4"/>
<ellipse cx="129.546" cy="65.0686" rx="1.13636" ry="1.14155" fill="#C4C4C4"/>
<ellipse cx="137.5" cy="65.0686" rx="1.13636" ry="1.14155" fill="#C4C4C4"/>
<ellipse cx="145.454" cy="65.0686" rx="1.13636" ry="1.14155" fill="#C4C4C4"/>
<ellipse cx="153.408" cy="65.0686" rx="1.13636" ry="1.14155" fill="#C4C4C4"/>
<ellipse cx="161.364" cy="65.0686" rx="1.13636" ry="1.14155" fill="#C4C4C4"/>
<ellipse cx="169.318" cy="65.0686" rx="1.13636" ry="1.14155" fill="#C4C4C4"/>
<ellipse cx="177.272" cy="65.0686" rx="1.13636" ry="1.14155" fill="#C4C4C4"/>
<ellipse cx="185.228" cy="65.0686" rx="1.13636" ry="1.14155" fill="#C4C4C4"/>
<ellipse cx="129.546" cy="73.0593" rx="1.13636" ry="1.14155" fill="#C4C4C4"/>
<ellipse cx="137.5" cy="73.0593" rx="1.13636" ry="1.14155" fill="#C4C4C4"/>
<ellipse cx="145.454" cy="73.0593" rx="1.13636" ry="1.14155" fill="#C4C4C4"/>
<ellipse cx="153.408" cy="73.0593" rx="1.13636" ry="1.14155" fill="#C4C4C4"/>
<ellipse cx="161.364" cy="73.0593" rx="1.13636" ry="1.14155" fill="#C4C4C4"/>
<ellipse cx="169.318" cy="73.0593" rx="1.13636" ry="1.14155" fill="#C4C4C4"/>
<ellipse cx="177.272" cy="73.0593" rx="1.13636" ry="1.14155" fill="#C4C4C4"/>
<ellipse cx="185.228" cy="73.0593" rx="1.13636" ry="1.14155" fill="#C4C4C4"/>
<ellipse cx="129.546" cy="81.0502" rx="1.13636" ry="1.14155" fill="#C4C4C4"/>
<ellipse cx="137.5" cy="81.0502" rx="1.13636" ry="1.14155" fill="#C4C4C4"/>
<ellipse cx="145.454" cy="81.0502" rx="1.13636" ry="1.14155" fill="#C4C4C4"/>
<ellipse cx="153.408" cy="81.0502" rx="1.13636" ry="1.14155" fill="#C4C4C4"/>
<ellipse cx="161.364" cy="81.0502" rx="1.13636" ry="1.14155" fill="#C4C4C4"/>
<ellipse cx="169.318" cy="81.0502" rx="1.13636" ry="1.14155" fill="#C4C4C4"/>
<ellipse cx="177.272" cy="81.0502" rx="1.13636" ry="1.14155" fill="#C4C4C4"/>
<ellipse cx="185.228" cy="81.0502" rx="1.13636" ry="1.14155" fill="#C4C4C4"/>
<ellipse cx="129.546" cy="89.041" rx="1.13636" ry="1.14155" fill="#C4C4C4"/>
<ellipse cx="137.5" cy="89.041" rx="1.13636" ry="1.14155" fill="#C4C4C4"/>
<ellipse cx="145.454" cy="89.041" rx="1.13636" ry="1.14155" fill="#C4C4C4"/>
<ellipse cx="153.408" cy="89.041" rx="1.13636" ry="1.14155" fill="#C4C4C4"/>
<ellipse cx="161.364" cy="89.041" rx="1.13636" ry="1.14155" fill="#C4C4C4"/>
<ellipse cx="169.318" cy="89.041" rx="1.13636" ry="1.14155" fill="#C4C4C4"/>
<ellipse cx="177.272" cy="89.041" rx="1.13636" ry="1.14155" fill="#C4C4C4"/>
<ellipse cx="185.228" cy="89.041" rx="1.13636" ry="1.14155" fill="#C4C4C4"/>
<ellipse cx="129.546" cy="97.0319" rx="1.13636" ry="1.14155" fill="#C4C4C4"/>
<ellipse cx="137.5" cy="97.0319" rx="1.13636" ry="1.14155" fill="#C4C4C4"/>
<ellipse cx="145.454" cy="97.0319" rx="1.13636" ry="1.14155" fill="#C4C4C4"/>
<ellipse cx="153.408" cy="97.0319" rx="1.13636" ry="1.14155" fill="#C4C4C4"/>
<ellipse cx="161.364" cy="97.0319" rx="1.13636" ry="1.14155" fill="#C4C4C4"/>
<ellipse cx="169.318" cy="97.0319" rx="1.13636" ry="1.14155" fill="#C4C4C4"/>
<ellipse cx="177.272" cy="97.0319" rx="1.13636" ry="1.14155" fill="#C4C4C4"/>
<ellipse cx="185.228" cy="97.0319" rx="1.13636" ry="1.14155" fill="#C4C4C4"/>
<ellipse cx="129.546" cy="105.023" rx="1.13636" ry="1.14155" fill="#C4C4C4"/>
<ellipse cx="137.5" cy="105.023" rx="1.13636" ry="1.14155" fill="#C4C4C4"/>
<ellipse cx="145.454" cy="105.023" rx="1.13636" ry="1.14155" fill="#C4C4C4"/>
<ellipse cx="153.408" cy="105.023" rx="1.13636" ry="1.14155" fill="#C4C4C4"/>
<ellipse cx="161.364" cy="105.023" rx="1.13636" ry="1.14155" fill="#C4C4C4"/>
<ellipse cx="169.318" cy="105.023" rx="1.13636" ry="1.14155" fill="#C4C4C4"/>
<ellipse cx="177.272" cy="105.023" rx="1.13636" ry="1.14155" fill="#C4C4C4"/>
<ellipse cx="185.228" cy="105.023" rx="1.13636" ry="1.14155" fill="#C4C4C4"/>
<ellipse cx="129.546" cy="113.013" rx="1.13636" ry="1.14155" fill="#C4C4C4"/>
<ellipse cx="137.5" cy="113.013" rx="1.13636" ry="1.14155" fill="#C4C4C4"/>
<ellipse cx="145.454" cy="113.013" rx="1.13636" ry="1.14155" fill="#C4C4C4"/>
<ellipse cx="153.408" cy="113.013" rx="1.13636" ry="1.14155" fill="#C4C4C4"/>
<ellipse cx="161.364" cy="113.013" rx="1.13636" ry="1.14155" fill="#C4C4C4"/>
<ellipse cx="169.318" cy="113.013" rx="1.13636" ry="1.14155" fill="#C4C4C4"/>
<ellipse cx="177.272" cy="113.013" rx="1.13636" ry="1.14155" fill="#C4C4C4"/>
<ellipse cx="185.228" cy="113.013" rx="1.13636" ry="1.14155" fill="#C4C4C4"/>
<ellipse cx="129.546" cy="121.004" rx="1.13636" ry="1.14155" fill="#C4C4C4"/>
<ellipse cx="137.5" cy="121.004" rx="1.13636" ry="1.14155" fill="#C4C4C4"/>
<ellipse cx="145.454" cy="121.004" rx="1.13636" ry="1.14155" fill="#C4C4C4"/>
<ellipse cx="153.408" cy="121.004" rx="1.13636" ry="1.14155" fill="#C4C4C4"/>
<ellipse cx="161.364" cy="121.004" rx="1.13636" ry="1.14155" fill="#C4C4C4"/>
<ellipse cx="169.318" cy="121.004" rx="1.13636" ry="1.14155" fill="#C4C4C4"/>
<ellipse cx="177.272" cy="121.004" rx="1.13636" ry="1.14155" fill="#C4C4C4"/>
<ellipse cx="185.228" cy="121.004" rx="1.13636" ry="1.14155" fill="#C4C4C4"/>
<ellipse cx="193.182" cy="1.14155" rx="1.13636" ry="1.14155" fill="#C4C4C4"/>
<ellipse cx="201.136" cy="1.14155" rx="1.13636" ry="1.14155" fill="#C4C4C4"/>
<ellipse cx="209.09" cy="1.14155" rx="1.13636" ry="1.14155" fill="#C4C4C4"/>
<ellipse cx="217.046" cy="1.14155" rx="1.13636" ry="1.14155" fill="#C4C4C4"/>
<ellipse cx="225" cy="1.14155" rx="1.13636" ry="1.14155" fill="#C4C4C4"/>
<ellipse cx="232.955" cy="1.14155" rx="1.13636" ry="1.14155" fill="#C4C4C4"/>
<ellipse cx="240.909" cy="1.14155" rx="1.13636" ry="1.14155" fill="#C4C4C4"/>
<ellipse cx="248.864" cy="1.14155" rx="1.13636" ry="1.14155" fill="#C4C4C4"/>
<ellipse cx="193.182" cy="9.13252" rx="1.13636" ry="1.14155" fill="#C4C4C4"/>
<ellipse cx="201.136" cy="9.13252" rx="1.13636" ry="1.14155" fill="#C4C4C4"/>
<ellipse cx="209.09" cy="9.13252" rx="1.13636" ry="1.14155" fill="#C4C4C4"/>
<ellipse cx="217.046" cy="9.13252" rx="1.13636" ry="1.14155" fill="#C4C4C4"/>
<ellipse cx="225" cy="9.13252" rx="1.13636" ry="1.14155" fill="#C4C4C4"/>
<ellipse cx="232.955" cy="9.13252" rx="1.13636" ry="1.14155" fill="#C4C4C4"/>
<ellipse cx="240.909" cy="9.13252" rx="1.13636" ry="1.14155" fill="#C4C4C4"/>
<ellipse cx="248.864" cy="9.13252" rx="1.13636" ry="1.14155" fill="#C4C4C4"/>
<ellipse cx="193.182" cy="17.1232" rx="1.13636" ry="1.14155" fill="#C4C4C4"/>
<ellipse cx="201.136" cy="17.1232" rx="1.13636" ry="1.14155" fill="#C4C4C4"/>
<ellipse cx="209.09" cy="17.1232" rx="1.13636" ry="1.14155" fill="#C4C4C4"/>
<ellipse cx="217.046" cy="17.1232" rx="1.13636" ry="1.14155" fill="#C4C4C4"/>
<ellipse cx="225" cy="17.1232" rx="1.13636" ry="1.14155" fill="#C4C4C4"/>
<ellipse cx="232.955" cy="17.1232" rx="1.13636" ry="1.14155" fill="#C4C4C4"/>
<ellipse cx="240.909" cy="17.1232" rx="1.13636" ry="1.14155" fill="#C4C4C4"/>
<ellipse cx="248.864" cy="17.1232" rx="1.13636" ry="1.14155" fill="#C4C4C4"/>
<ellipse cx="193.182" cy="25.1142" rx="1.13636" ry="1.14155" fill="#C4C4C4"/>
<ellipse cx="201.136" cy="25.1142" rx="1.13636" ry="1.14155" fill="#C4C4C4"/>
<ellipse cx="209.09" cy="25.1142" rx="1.13636" ry="1.14155" fill="#C4C4C4"/>
<ellipse cx="217.046" cy="25.1142" rx="1.13636" ry="1.14155" fill="#C4C4C4"/>
<ellipse cx="225" cy="25.1142" rx="1.13636" ry="1.14155" fill="#C4C4C4"/>
<ellipse cx="232.955" cy="25.1142" rx="1.13636" ry="1.14155" fill="#C4C4C4"/>
<ellipse cx="240.909" cy="25.1142" rx="1.13636" ry="1.14155" fill="#C4C4C4"/>
<ellipse cx="248.864" cy="25.1142" rx="1.13636" ry="1.14155" fill="#C4C4C4"/>
<ellipse cx="193.182" cy="33.1052" rx="1.13636" ry="1.14155" fill="#C4C4C4"/>
<ellipse cx="201.136" cy="33.1052" rx="1.13636" ry="1.14155" fill="#C4C4C4"/>
<ellipse cx="209.09" cy="33.1052" rx="1.13636" ry="1.14155" fill="#C4C4C4"/>
<ellipse cx="217.046" cy="33.1052" rx="1.13636" ry="1.14155" fill="#C4C4C4"/>
<ellipse cx="225" cy="33.1052" rx="1.13636" ry="1.14155" fill="#C4C4C4"/>
<ellipse cx="232.955" cy="33.1052" rx="1.13636" ry="1.14155" fill="#C4C4C4"/>
<ellipse cx="240.909" cy="33.1052" rx="1.13636" ry="1.14155" fill="#C4C4C4"/>
<ellipse cx="248.864" cy="33.1052" rx="1.13636" ry="1.14155" fill="#C4C4C4"/>
<ellipse cx="193.182" cy="41.0959" rx="1.13636" ry="1.14155" fill="#C4C4C4"/>
<ellipse cx="201.136" cy="41.0959" rx="1.13636" ry="1.14155" fill="#C4C4C4"/>
<ellipse cx="209.09" cy="41.0959" rx="1.13636" ry="1.14155" fill="#C4C4C4"/>
<ellipse cx="217.046" cy="41.0959" rx="1.13636" ry="1.14155" fill="#C4C4C4"/>
<ellipse cx="225" cy="41.0959" rx="1.13636" ry="1.14155" fill="#C4C4C4"/>
<ellipse cx="232.955" cy="41.0959" rx="1.13636" ry="1.14155" fill="#C4C4C4"/>
<ellipse cx="240.909" cy="41.0959" rx="1.13636" ry="1.14155" fill="#C4C4C4"/>
<ellipse cx="248.864" cy="41.0959" rx="1.13636" ry="1.14155" fill="#C4C4C4"/>
<ellipse cx="193.182" cy="49.0869" rx="1.13636" ry="1.14155" fill="#C4C4C4"/>
<ellipse cx="201.136" cy="49.0869" rx="1.13636" ry="1.14155" fill="#C4C4C4"/>
<ellipse cx="209.09" cy="49.0869" rx="1.13636" ry="1.14155" fill="#C4C4C4"/>
<ellipse cx="217.046" cy="49.0869" rx="1.13636" ry="1.14155" fill="#C4C4C4"/>
<ellipse cx="225" cy="49.0869" rx="1.13636" ry="1.14155" fill="#C4C4C4"/>
<ellipse cx="232.955" cy="49.0869" rx="1.13636" ry="1.14155" fill="#C4C4C4"/>
<ellipse cx="240.909" cy="49.0869" rx="1.13636" ry="1.14155" fill="#C4C4C4"/>
<ellipse cx="248.864" cy="49.0869" rx="1.13636" ry="1.14155" fill="#C4C4C4"/>
<ellipse cx="193.182" cy="57.0776" rx="1.13636" ry="1.14155" fill="#C4C4C4"/>
<ellipse cx="201.136" cy="57.0776" rx="1.13636" ry="1.14155" fill="#C4C4C4"/>
<ellipse cx="209.09" cy="57.0776" rx="1.13636" ry="1.14155" fill="#C4C4C4"/>
<ellipse cx="217.046" cy="57.0776" rx="1.13636" ry="1.14155" fill="#C4C4C4"/>
<ellipse cx="225" cy="57.0776" rx="1.13636" ry="1.14155" fill="#C4C4C4"/>
<ellipse cx="232.955" cy="57.0776" rx="1.13636" ry="1.14155" fill="#C4C4C4"/>
<ellipse cx="240.909" cy="57.0776" rx="1.13636" ry="1.14155" fill="#C4C4C4"/>
<ellipse cx="248.864" cy="57.0776" rx="1.13636" ry="1.14155" fill="#C4C4C4"/>
<ellipse cx="193.182" cy="65.0686" rx="1.13636" ry="1.14155" fill="#C4C4C4"/>
<ellipse cx="201.136" cy="65.0686" rx="1.13636" ry="1.14155" fill="#C4C4C4"/>
<ellipse cx="209.09" cy="65.0686" rx="1.13636" ry="1.14155" fill="#C4C4C4"/>
<ellipse cx="217.046" cy="65.0686" rx="1.13636" ry="1.14155" fill="#C4C4C4"/>
<ellipse cx="225" cy="65.0686" rx="1.13636" ry="1.14155" fill="#C4C4C4"/>
<ellipse cx="232.955" cy="65.0686" rx="1.13636" ry="1.14155" fill="#C4C4C4"/>
<ellipse cx="240.909" cy="65.0686" rx="1.13636" ry="1.14155" fill="#C4C4C4"/>
<ellipse cx="248.864" cy="65.0686" rx="1.13636" ry="1.14155" fill="#C4C4C4"/>
<ellipse cx="193.182" cy="73.0593" rx="1.13636" ry="1.14155" fill="#C4C4C4"/>
<ellipse cx="201.136" cy="73.0593" rx="1.13636" ry="1.14155" fill="#C4C4C4"/>
<ellipse cx="209.09" cy="73.0593" rx="1.13636" ry="1.14155" fill="#C4C4C4"/>
<ellipse cx="217.046" cy="73.0593" rx="1.13636" ry="1.14155" fill="#C4C4C4"/>
<ellipse cx="225" cy="73.0593" rx="1.13636" ry="1.14155" fill="#C4C4C4"/>
<ellipse cx="232.955" cy="73.0593" rx="1.13636" ry="1.14155" fill="#C4C4C4"/>
<ellipse cx="240.909" cy="73.0593" rx="1.13636" ry="1.14155" fill="#C4C4C4"/>
<ellipse cx="248.864" cy="73.0593" rx="1.13636" ry="1.14155" fill="#C4C4C4"/>
<ellipse cx="193.182" cy="81.0502" rx="1.13636" ry="1.14155" fill="#C4C4C4"/>
<ellipse cx="201.136" cy="81.0502" rx="1.13636" ry="1.14155" fill="#C4C4C4"/>
<ellipse cx="209.09" cy="81.0502" rx="1.13636" ry="1.14155" fill="#C4C4C4"/>
<ellipse cx="217.046" cy="81.0502" rx="1.13636" ry="1.14155" fill="#C4C4C4"/>
<ellipse cx="225" cy="81.0502" rx="1.13636" ry="1.14155" fill="#C4C4C4"/>
<ellipse cx="232.955" cy="81.0502" rx="1.13636" ry="1.14155" fill="#C4C4C4"/>
<ellipse cx="240.909" cy="81.0502" rx="1.13636" ry="1.14155" fill="#C4C4C4"/>
<ellipse cx="248.864" cy="81.0502" rx="1.13636" ry="1.14155" fill="#C4C4C4"/>
<ellipse cx="193.182" cy="89.041" rx="1.13636" ry="1.14155" fill="#C4C4C4"/>
<ellipse cx="201.136" cy="89.041" rx="1.13636" ry="1.14155" fill="#C4C4C4"/>
<ellipse cx="209.09" cy="89.041" rx="1.13636" ry="1.14155" fill="#C4C4C4"/>
<ellipse cx="217.046" cy="89.041" rx="1.13636" ry="1.14155" fill="#C4C4C4"/>
<ellipse cx="225" cy="89.041" rx="1.13636" ry="1.14155" fill="#C4C4C4"/>
<ellipse cx="232.955" cy="89.041" rx="1.13636" ry="1.14155" fill="#C4C4C4"/>
<ellipse cx="240.909" cy="89.041" rx="1.13636" ry="1.14155" fill="#C4C4C4"/>
<ellipse cx="248.864" cy="89.041" rx="1.13636" ry="1.14155" fill="#C4C4C4"/>
<ellipse cx="193.182" cy="97.0319" rx="1.13636" ry="1.14155" fill="#C4C4C4"/>
<ellipse cx="201.136" cy="97.0319" rx="1.13636" ry="1.14155" fill="#C4C4C4"/>
<ellipse cx="209.09" cy="97.0319" rx="1.13636" ry="1.14155" fill="#C4C4C4"/>
<ellipse cx="217.046" cy="97.0319" rx="1.13636" ry="1.14155" fill="#C4C4C4"/>
<ellipse cx="225" cy="97.0319" rx="1.13636" ry="1.14155" fill="#C4C4C4"/>
<ellipse cx="232.955" cy="97.0319" rx="1.13636" ry="1.14155" fill="#C4C4C4"/>
<ellipse cx="240.909" cy="97.0319" rx="1.13636" ry="1.14155" fill="#C4C4C4"/>
<ellipse cx="248.864" cy="97.0319" rx="1.13636" ry="1.14155" fill="#C4C4C4"/>
<ellipse cx="193.182" cy="105.023" rx="1.13636" ry="1.14155" fill="#C4C4C4"/>
<ellipse cx="201.136" cy="105.023" rx="1.13636" ry="1.14155" fill="#C4C4C4"/>
<ellipse cx="209.09" cy="105.023" rx="1.13636" ry="1.14155" fill="#C4C4C4"/>
<ellipse cx="217.046" cy="105.023" rx="1.13636" ry="1.14155" fill="#C4C4C4"/>
<ellipse cx="225" cy="105.023" rx="1.13636" ry="1.14155" fill="#C4C4C4"/>
<ellipse cx="232.955" cy="105.023" rx="1.13636" ry="1.14155" fill="#C4C4C4"/>
<ellipse cx="240.909" cy="105.023" rx="1.13636" ry="1.14155" fill="#C4C4C4"/>
<ellipse cx="248.864" cy="105.023" rx="1.13636" ry="1.14155" fill="#C4C4C4"/>
<ellipse cx="193.182" cy="113.013" rx="1.13636" ry="1.14155" fill="#C4C4C4"/>
<ellipse cx="201.136" cy="113.013" rx="1.13636" ry="1.14155" fill="#C4C4C4"/>
<ellipse cx="209.09" cy="113.013" rx="1.13636" ry="1.14155" fill="#C4C4C4"/>
<ellipse cx="217.046" cy="113.013" rx="1.13636" ry="1.14155" fill="#C4C4C4"/>
<ellipse cx="225" cy="113.013" rx="1.13636" ry="1.14155" fill="#C4C4C4"/>
<ellipse cx="232.955" cy="113.013" rx="1.13636" ry="1.14155" fill="#C4C4C4"/>
<ellipse cx="240.909" cy="113.013" rx="1.13636" ry="1.14155" fill="#C4C4C4"/>
<ellipse cx="248.864" cy="113.013" rx="1.13636" ry="1.14155" fill="#C4C4C4"/>
<ellipse cx="193.182" cy="121.004" rx="1.13636" ry="1.14155" fill="#C4C4C4"/>
<ellipse cx="201.136" cy="121.004" rx="1.13636" ry="1.14155" fill="#C4C4C4"/>
<ellipse cx="209.09" cy="121.004" rx="1.13636" ry="1.14155" fill="#C4C4C4"/>
<ellipse cx="217.046" cy="121.004" rx="1.13636" ry="1.14155" fill="#C4C4C4"/>
<ellipse cx="225" cy="121.004" rx="1.13636" ry="1.14155" fill="#C4C4C4"/>
<ellipse cx="232.955" cy="121.004" rx="1.13636" ry="1.14155" fill="#C4C4C4"/>
<ellipse cx="240.909" cy="121.004" rx="1.13636" ry="1.14155" fill="#C4C4C4"/>
<ellipse cx="248.864" cy="121.004" rx="1.13636" ry="1.14155" fill="#C4C4C4"/>
<ellipse cx="1.13636" cy="128.995" rx="1.13636" ry="1.14155" fill="#C4C4C4"/>
<ellipse cx="9.09144" cy="128.995" rx="1.13636" ry="1.14155" fill="#C4C4C4"/>
<ellipse cx="17.0455" cy="128.995" rx="1.13636" ry="1.14155" fill="#C4C4C4"/>
<ellipse cx="24.9996" cy="128.995" rx="1.13636" ry="1.14155" fill="#C4C4C4"/>
<ellipse cx="32.9537" cy="128.995" rx="1.13636" ry="1.14155" fill="#C4C4C4"/>
<ellipse cx="40.9098" cy="128.995" rx="1.13636" ry="1.14155" fill="#C4C4C4"/>
<ellipse cx="48.8629" cy="128.995" rx="1.13636" ry="1.14155" fill="#C4C4C4"/>
<ellipse cx="56.819" cy="128.995" rx="1.13636" ry="1.14155" fill="#C4C4C4"/>
<ellipse cx="1.13636" cy="136.986" rx="1.13636" ry="1.14155" fill="#C4C4C4"/>
<ellipse cx="9.09144" cy="136.986" rx="1.13636" ry="1.14155" fill="#C4C4C4"/>
<ellipse cx="17.0455" cy="136.986" rx="1.13636" ry="1.14155" fill="#C4C4C4"/>
<ellipse cx="24.9996" cy="136.986" rx="1.13636" ry="1.14155" fill="#C4C4C4"/>
<ellipse cx="32.9537" cy="136.986" rx="1.13636" ry="1.14155" fill="#C4C4C4"/>
<ellipse cx="40.9098" cy="136.986" rx="1.13636" ry="1.14155" fill="#C4C4C4"/>
<ellipse cx="48.8629" cy="136.986" rx="1.13636" ry="1.14155" fill="#C4C4C4"/>
<ellipse cx="56.819" cy="136.986" rx="1.13636" ry="1.14155" fill="#C4C4C4"/>
<ellipse cx="1.13636" cy="144.977" rx="1.13636" ry="1.14155" fill="#C4C4C4"/>
<ellipse cx="9.09144" cy="144.977" rx="1.13636" ry="1.14155" fill="#C4C4C4"/>
<ellipse cx="17.0455" cy="144.977" rx="1.13636" ry="1.14155" fill="#C4C4C4"/>
<ellipse cx="24.9996" cy="144.977" rx="1.13636" ry="1.14155" fill="#C4C4C4"/>
<ellipse cx="32.9537" cy="144.977" rx="1.13636" ry="1.14155" fill="#C4C4C4"/>
<ellipse cx="40.9098" cy="144.977" rx="1.13636" ry="1.14155" fill="#C4C4C4"/>
<ellipse cx="48.8629" cy="144.977" rx="1.13636" ry="1.14155" fill="#C4C4C4"/>
<ellipse cx="56.819" cy="144.977" rx="1.13636" ry="1.14155" fill="#C4C4C4"/>
<ellipse cx="1.13636" cy="152.968" rx="1.13636" ry="1.14155" fill="#C4C4C4"/>
<ellipse cx="9.09144" cy="152.968" rx="1.13636" ry="1.14155" fill="#C4C4C4"/>
<ellipse cx="17.0455" cy="152.968" rx="1.13636" ry="1.14155" fill="#C4C4C4"/>
<ellipse cx="24.9996" cy="152.968" rx="1.13636" ry="1.14155" fill="#C4C4C4"/>
<ellipse cx="32.9537" cy="152.968" rx="1.13636" ry="1.14155" fill="#C4C4C4"/>
<ellipse cx="40.9098" cy="152.968" rx="1.13636" ry="1.14155" fill="#C4C4C4"/>
<ellipse cx="48.8629" cy="152.968" rx="1.13636" ry="1.14155" fill="#C4C4C4"/>
<ellipse cx="56.819" cy="152.968" rx="1.13636" ry="1.14155" fill="#C4C4C4"/>
<ellipse cx="1.13636" cy="160.959" rx="1.13636" ry="1.14155" fill="#C4C4C4"/>
<ellipse cx="9.09144" cy="160.959" rx="1.13636" ry="1.14155" fill="#C4C4C4"/>
<ellipse cx="17.0455" cy="160.959" rx="1.13636" ry="1.14155" fill="#C4C4C4"/>
<ellipse cx="24.9996" cy="160.959" rx="1.13636" ry="1.14155" fill="#C4C4C4"/>
<ellipse cx="32.9537" cy="160.959" rx="1.13636" ry="1.14155" fill="#C4C4C4"/>
<ellipse cx="40.9098" cy="160.959" rx="1.13636" ry="1.14155" fill="#C4C4C4"/>
<ellipse cx="48.8629" cy="160.959" rx="1.13636" ry="1.14155" fill="#C4C4C4"/>
<ellipse cx="56.819" cy="160.959" rx="1.13636" ry="1.14155" fill="#C4C4C4"/>
<ellipse cx="1.13636" cy="168.949" rx="1.13636" ry="1.14155" fill="#C4C4C4"/>
<ellipse cx="9.09144" cy="168.949" rx="1.13636" ry="1.14155" fill="#C4C4C4"/>
<ellipse cx="17.0455" cy="168.949" rx="1.13636" ry="1.14155" fill="#C4C4C4"/>
<ellipse cx="24.9996" cy="168.949" rx="1.13636" ry="1.14155" fill="#C4C4C4"/>
<ellipse cx="32.9537" cy="168.949" rx="1.13636" ry="1.14155" fill="#C4C4C4"/>
<ellipse cx="40.9098" cy="168.949" rx="1.13636" ry="1.14155" fill="#C4C4C4"/>
<ellipse cx="48.8629" cy="168.949" rx="1.13636" ry="1.14155" fill="#C4C4C4"/>
<ellipse cx="56.819" cy="168.949" rx="1.13636" ry="1.14155" fill="#C4C4C4"/>
<ellipse cx="1.13636" cy="176.94" rx="1.13636" ry="1.14155" fill="#C4C4C4"/>
<ellipse cx="9.09144" cy="176.94" rx="1.13636" ry="1.14155" fill="#C4C4C4"/>
<ellipse cx="17.0455" cy="176.94" rx="1.13636" ry="1.14155" fill="#C4C4C4"/>
<ellipse cx="24.9996" cy="176.94" rx="1.13636" ry="1.14155" fill="#C4C4C4"/>
<ellipse cx="32.9537" cy="176.94" rx="1.13636" ry="1.14155" fill="#C4C4C4"/>
<ellipse cx="40.9098" cy="176.94" rx="1.13636" ry="1.14155" fill="#C4C4C4"/>
<ellipse cx="48.8629" cy="176.94" rx="1.13636" ry="1.14155" fill="#C4C4C4"/>
<ellipse cx="56.819" cy="176.94" rx="1.13636" ry="1.14155" fill="#C4C4C4"/>
<ellipse cx="1.13636" cy="184.931" rx="1.13636" ry="1.14155" fill="#C4C4C4"/>
<ellipse cx="9.09144" cy="184.931" rx="1.13636" ry="1.14155" fill="#C4C4C4"/>
<ellipse cx="17.0455" cy="184.931" rx="1.13636" ry="1.14155" fill="#C4C4C4"/>
<ellipse cx="24.9996" cy="184.931" rx="1.13636" ry="1.14155" fill="#C4C4C4"/>
<ellipse cx="32.9537" cy="184.931" rx="1.13636" ry="1.14155" fill="#C4C4C4"/>
<ellipse cx="40.9098" cy="184.931" rx="1.13636" ry="1.14155" fill="#C4C4C4"/>
<ellipse cx="48.8629" cy="184.931" rx="1.13636" ry="1.14155" fill="#C4C4C4"/>
<ellipse cx="56.819" cy="184.931" rx="1.13636" ry="1.14155" fill="#C4C4C4"/>
<ellipse cx="1.13636" cy="192.922" rx="1.13636" ry="1.14155" fill="#C4C4C4"/>
<ellipse cx="9.09144" cy="192.922" rx="1.13636" ry="1.14155" fill="#C4C4C4"/>
<ellipse cx="17.0455" cy="192.922" rx="1.13636" ry="1.14155" fill="#C4C4C4"/>
<ellipse cx="24.9996" cy="192.922" rx="1.13636" ry="1.14155" fill="#C4C4C4"/>
<ellipse cx="32.9537" cy="192.922" rx="1.13636" ry="1.14155" fill="#C4C4C4"/>
<ellipse cx="40.9098" cy="192.922" rx="1.13636" ry="1.14155" fill="#C4C4C4"/>
<ellipse cx="48.8629" cy="192.922" rx="1.13636" ry="1.14155" fill="#C4C4C4"/>
<ellipse cx="56.819" cy="192.922" rx="1.13636" ry="1.14155" fill="#C4C4C4"/>
<ellipse cx="1.13636" cy="200.913" rx="1.13636" ry="1.14155" fill="#C4C4C4"/>
<ellipse cx="9.09144" cy="200.913" rx="1.13636" ry="1.14155" fill="#C4C4C4"/>
<ellipse cx="17.0455" cy="200.913" rx="1.13636" ry="1.14155" fill="#C4C4C4"/>
<ellipse cx="24.9996" cy="200.913" rx="1.13636" ry="1.14155" fill="#C4C4C4"/>
<ellipse cx="32.9537" cy="200.913" rx="1.13636" ry="1.14155" fill="#C4C4C4"/>
<ellipse cx="40.9098" cy="200.913" rx="1.13636" ry="1.14155" fill="#C4C4C4"/>
<ellipse cx="48.8629" cy="200.913" rx="1.13636" ry="1.14155" fill="#C4C4C4"/>
<ellipse cx="56.819" cy="200.913" rx="1.13636" ry="1.14155" fill="#C4C4C4"/>
<ellipse cx="1.13636" cy="208.904" rx="1.13636" ry="1.14155" fill="#C4C4C4"/>
<ellipse cx="9.09144" cy="208.904" rx="1.13636" ry="1.14155" fill="#C4C4C4"/>
<ellipse cx="17.0455" cy="208.904" rx="1.13636" ry="1.14155" fill="#C4C4C4"/>
<ellipse cx="24.9996" cy="208.904" rx="1.13636" ry="1.14155" fill="#C4C4C4"/>
<ellipse cx="32.9537" cy="208.904" rx="1.13636" ry="1.14155" fill="#C4C4C4"/>
<ellipse cx="40.9098" cy="208.904" rx="1.13636" ry="1.14155" fill="#C4C4C4"/>
<ellipse cx="48.8629" cy="208.904" rx="1.13636" ry="1.14155" fill="#C4C4C4"/>
<ellipse cx="56.819" cy="208.904" rx="1.13636" ry="1.14155" fill="#C4C4C4"/>
<ellipse cx="1.13636" cy="216.895" rx="1.13636" ry="1.14155" fill="#C4C4C4"/>
<ellipse cx="9.09144" cy="216.895" rx="1.13636" ry="1.14155" fill="#C4C4C4"/>
<ellipse cx="17.0455" cy="216.895" rx="1.13636" ry="1.14155" fill="#C4C4C4"/>
<ellipse cx="24.9996" cy="216.895" rx="1.13636" ry="1.14155" fill="#C4C4C4"/>
<ellipse cx="32.9537" cy="216.895" rx="1.13636" ry="1.14155" fill="#C4C4C4"/>
<ellipse cx="40.9098" cy="216.895" rx="1.13636" ry="1.14155" fill="#C4C4C4"/>
<ellipse cx="48.8629" cy="216.895" rx="1.13636" ry="1.14155" fill="#C4C4C4"/>
<ellipse cx="56.819" cy="216.895" rx="1.13636" ry="1.14155" fill="#C4C4C4"/>
<ellipse cx="1.13636" cy="224.886" rx="1.13636" ry="1.14155" fill="#C4C4C4"/>
<ellipse cx="9.09144" cy="224.886" rx="1.13636" ry="1.14155" fill="#C4C4C4"/>
<ellipse cx="17.0455" cy="224.886" rx="1.13636" ry="1.14155" fill="#C4C4C4"/>
<ellipse cx="24.9996" cy="224.886" rx="1.13636" ry="1.14155" fill="#C4C4C4"/>
<ellipse cx="32.9537" cy="224.886" rx="1.13636" ry="1.14155" fill="#C4C4C4"/>
<ellipse cx="40.9098" cy="224.886" rx="1.13636" ry="1.14155" fill="#C4C4C4"/>
<ellipse cx="48.8629" cy="224.886" rx="1.13636" ry="1.14155" fill="#C4C4C4"/>
<ellipse cx="56.819" cy="224.886" rx="1.13636" ry="1.14155" fill="#C4C4C4"/>
<ellipse cx="1.13636" cy="232.876" rx="1.13636" ry="1.14155" fill="#C4C4C4"/>
<ellipse cx="9.09144" cy="232.876" rx="1.13636" ry="1.14155" fill="#C4C4C4"/>
<ellipse cx="17.0455" cy="232.876" rx="1.13636" ry="1.14155" fill="#C4C4C4"/>
<ellipse cx="24.9996" cy="232.876" rx="1.13636" ry="1.14155" fill="#C4C4C4"/>
<ellipse cx="32.9537" cy="232.876" rx="1.13636" ry="1.14155" fill="#C4C4C4"/>
<ellipse cx="40.9098" cy="232.876" rx="1.13636" ry="1.14155" fill="#C4C4C4"/>
<ellipse cx="48.8629" cy="232.876" rx="1.13636" ry="1.14155" fill="#C4C4C4"/>
<ellipse cx="56.819" cy="232.876" rx="1.13636" ry="1.14155" fill="#C4C4C4"/>
<ellipse cx="1.13636" cy="240.867" rx="1.13636" ry="1.14155" fill="#C4C4C4"/>
<ellipse cx="9.09144" cy="240.867" rx="1.13636" ry="1.14155" fill="#C4C4C4"/>
<ellipse cx="17.0455" cy="240.867" rx="1.13636" ry="1.14155" fill="#C4C4C4"/>
<ellipse cx="24.9996" cy="240.867" rx="1.13636" ry="1.14155" fill="#C4C4C4"/>
<ellipse cx="32.9537" cy="240.867" rx="1.13636" ry="1.14155" fill="#C4C4C4"/>
<ellipse cx="40.9098" cy="240.867" rx="1.13636" ry="1.14155" fill="#C4C4C4"/>
<ellipse cx="48.8629" cy="240.867" rx="1.13636" ry="1.14155" fill="#C4C4C4"/>
<ellipse cx="56.819" cy="240.867" rx="1.13636" ry="1.14155" fill="#C4C4C4"/>
<ellipse cx="1.13636" cy="248.858" rx="1.13636" ry="1.14155" fill="#C4C4C4"/>
<ellipse cx="9.09144" cy="248.858" rx="1.13636" ry="1.14155" fill="#C4C4C4"/>
<ellipse cx="17.0455" cy="248.858" rx="1.13636" ry="1.14155" fill="#C4C4C4"/>
<ellipse cx="24.9996" cy="248.858" rx="1.13636" ry="1.14155" fill="#C4C4C4"/>
<ellipse cx="32.9537" cy="248.858" rx="1.13636" ry="1.14155" fill="#C4C4C4"/>
<ellipse cx="40.9098" cy="248.858" rx="1.13636" ry="1.14155" fill="#C4C4C4"/>
<ellipse cx="48.8629" cy="248.858" rx="1.13636" ry="1.14155" fill="#C4C4C4"/>
<ellipse cx="56.819" cy="248.858" rx="1.13636" ry="1.14155" fill="#C4C4C4"/>
<ellipse cx="64.7731" cy="128.995" rx="1.13636" ry="1.14155" fill="#C4C4C4"/>
<ellipse cx="72.7282" cy="128.995" rx="1.13636" ry="1.14155" fill="#C4C4C4"/>
<ellipse cx="80.6813" cy="128.995" rx="1.13636" ry="1.14155" fill="#C4C4C4"/>
<ellipse cx="88.6364" cy="128.995" rx="1.13636" ry="1.14155" fill="#C4C4C4"/>
<ellipse cx="96.5905" cy="128.995" rx="1.13636" ry="1.14155" fill="#C4C4C4"/>
<ellipse cx="104.546" cy="128.995" rx="1.13636" ry="1.14155" fill="#C4C4C4"/>
<ellipse cx="112.5" cy="128.995" rx="1.13636" ry="1.14155" fill="#C4C4C4"/>
<ellipse cx="120.454" cy="128.995" rx="1.13636" ry="1.14155" fill="#C4C4C4"/>
<ellipse cx="64.7731" cy="136.986" rx="1.13636" ry="1.14155" fill="#C4C4C4"/>
<ellipse cx="72.7282" cy="136.986" rx="1.13636" ry="1.14155" fill="#C4C4C4"/>
<ellipse cx="80.6813" cy="136.986" rx="1.13636" ry="1.14155" fill="#C4C4C4"/>
<ellipse cx="88.6364" cy="136.986" rx="1.13636" ry="1.14155" fill="#C4C4C4"/>
<ellipse cx="96.5905" cy="136.986" rx="1.13636" ry="1.14155" fill="#C4C4C4"/>
<ellipse cx="104.546" cy="136.986" rx="1.13636" ry="1.14155" fill="#C4C4C4"/>
<ellipse cx="112.5" cy="136.986" rx="1.13636" ry="1.14155" fill="#C4C4C4"/>
<ellipse cx="120.454" cy="136.986" rx="1.13636" ry="1.14155" fill="#C4C4C4"/>
<ellipse cx="64.7731" cy="144.977" rx="1.13636" ry="1.14155" fill="#C4C4C4"/>
<ellipse cx="72.7282" cy="144.977" rx="1.13636" ry="1.14155" fill="#C4C4C4"/>
<ellipse cx="80.6813" cy="144.977" rx="1.13636" ry="1.14155" fill="#C4C4C4"/>
<ellipse cx="88.6364" cy="144.977" rx="1.13636" ry="1.14155" fill="#C4C4C4"/>
<ellipse cx="96.5905" cy="144.977" rx="1.13636" ry="1.14155" fill="#C4C4C4"/>
<ellipse cx="104.546" cy="144.977" rx="1.13636" ry="1.14155" fill="#C4C4C4"/>
<ellipse cx="112.5" cy="144.977" rx="1.13636" ry="1.14155" fill="#C4C4C4"/>
<ellipse cx="120.454" cy="144.977" rx="1.13636" ry="1.14155" fill="#C4C4C4"/>
<ellipse cx="64.7731" cy="152.968" rx="1.13636" ry="1.14155" fill="#C4C4C4"/>
<ellipse cx="72.7282" cy="152.968" rx="1.13636" ry="1.14155" fill="#C4C4C4"/>
<ellipse cx="80.6813" cy="152.968" rx="1.13636" ry="1.14155" fill="#C4C4C4"/>
<ellipse cx="88.6364" cy="152.968" rx="1.13636" ry="1.14155" fill="#C4C4C4"/>
<ellipse cx="96.5905" cy="152.968" rx="1.13636" ry="1.14155" fill="#C4C4C4"/>
<ellipse cx="104.546" cy="152.968" rx="1.13636" ry="1.14155" fill="#C4C4C4"/>
<ellipse cx="112.5" cy="152.968" rx="1.13636" ry="1.14155" fill="#C4C4C4"/>
<ellipse cx="120.454" cy="152.968" rx="1.13636" ry="1.14155" fill="#C4C4C4"/>
<ellipse cx="64.7731" cy="160.959" rx="1.13636" ry="1.14155" fill="#C4C4C4"/>
<ellipse cx="72.7282" cy="160.959" rx="1.13636" ry="1.14155" fill="#C4C4C4"/>
<ellipse cx="80.6813" cy="160.959" rx="1.13636" ry="1.14155" fill="#C4C4C4"/>
<ellipse cx="88.6364" cy="160.959" rx="1.13636" ry="1.14155" fill="#C4C4C4"/>
<ellipse cx="96.5905" cy="160.959" rx="1.13636" ry="1.14155" fill="#C4C4C4"/>
<ellipse cx="104.546" cy="160.959" rx="1.13636" ry="1.14155" fill="#C4C4C4"/>
<ellipse cx="112.5" cy="160.959" rx="1.13636" ry="1.14155" fill="#C4C4C4"/>
<ellipse cx="120.454" cy="160.959" rx="1.13636" ry="1.14155" fill="#C4C4C4"/>
<ellipse cx="64.7731" cy="168.949" rx="1.13636" ry="1.14155" fill="#C4C4C4"/>
<ellipse cx="72.7282" cy="168.949" rx="1.13636" ry="1.14155" fill="#C4C4C4"/>
<ellipse cx="80.6813" cy="168.949" rx="1.13636" ry="1.14155" fill="#C4C4C4"/>
<ellipse cx="88.6364" cy="168.949" rx="1.13636" ry="1.14155" fill="#C4C4C4"/>
<ellipse cx="96.5905" cy="168.949" rx="1.13636" ry="1.14155" fill="#C4C4C4"/>
<ellipse cx="104.546" cy="168.949" rx="1.13636" ry="1.14155" fill="#C4C4C4"/>
<ellipse cx="112.5" cy="168.949" rx="1.13636" ry="1.14155" fill="#C4C4C4"/>
<ellipse cx="120.454" cy="168.949" rx="1.13636" ry="1.14155" fill="#C4C4C4"/>
<ellipse cx="64.7731" cy="176.94" rx="1.13636" ry="1.14155" fill="#C4C4C4"/>
<ellipse cx="72.7282" cy="176.94" rx="1.13636" ry="1.14155" fill="#C4C4C4"/>
<ellipse cx="80.6813" cy="176.94" rx="1.13636" ry="1.14155" fill="#C4C4C4"/>
<ellipse cx="88.6364" cy="176.94" rx="1.13636" ry="1.14155" fill="#C4C4C4"/>
<ellipse cx="96.5905" cy="176.94" rx="1.13636" ry="1.14155" fill="#C4C4C4"/>
<ellipse cx="104.546" cy="176.94" rx="1.13636" ry="1.14155" fill="#C4C4C4"/>
<ellipse cx="112.5" cy="176.94" rx="1.13636" ry="1.14155" fill="#C4C4C4"/>
<ellipse cx="120.454" cy="176.94" rx="1.13636" ry="1.14155" fill="#C4C4C4"/>
<ellipse cx="64.7731" cy="184.931" rx="1.13636" ry="1.14155" fill="#C4C4C4"/>
<ellipse cx="72.7282" cy="184.931" rx="1.13636" ry="1.14155" fill="#C4C4C4"/>
<ellipse cx="80.6813" cy="184.931" rx="1.13636" ry="1.14155" fill="#C4C4C4"/>
<ellipse cx="88.6364" cy="184.931" rx="1.13636" ry="1.14155" fill="#C4C4C4"/>
<ellipse cx="96.5905" cy="184.931" rx="1.13636" ry="1.14155" fill="#C4C4C4"/>
<ellipse cx="104.546" cy="184.931" rx="1.13636" ry="1.14155" fill="#C4C4C4"/>
<ellipse cx="112.5" cy="184.931" rx="1.13636" ry="1.14155" fill="#C4C4C4"/>
<ellipse cx="120.454" cy="184.931" rx="1.13636" ry="1.14155" fill="#C4C4C4"/>
<ellipse cx="64.7731" cy="192.922" rx="1.13636" ry="1.14155" fill="#C4C4C4"/>
<ellipse cx="72.7282" cy="192.922" rx="1.13636" ry="1.14155" fill="#C4C4C4"/>
<ellipse cx="80.6813" cy="192.922" rx="1.13636" ry="1.14155" fill="#C4C4C4"/>
<ellipse cx="88.6364" cy="192.922" rx="1.13636" ry="1.14155" fill="#C4C4C4"/>
<ellipse cx="96.5905" cy="192.922" rx="1.13636" ry="1.14155" fill="#C4C4C4"/>
<ellipse cx="104.546" cy="192.922" rx="1.13636" ry="1.14155" fill="#C4C4C4"/>
<ellipse cx="112.5" cy="192.922" rx="1.13636" ry="1.14155" fill="#C4C4C4"/>
<ellipse cx="120.454" cy="192.922" rx="1.13636" ry="1.14155" fill="#C4C4C4"/>
<ellipse cx="64.7731" cy="200.913" rx="1.13636" ry="1.14155" fill="#C4C4C4"/>
<ellipse cx="72.7282" cy="200.913" rx="1.13636" ry="1.14155" fill="#C4C4C4"/>
<ellipse cx="80.6813" cy="200.913" rx="1.13636" ry="1.14155" fill="#C4C4C4"/>
<ellipse cx="88.6364" cy="200.913" rx="1.13636" ry="1.14155" fill="#C4C4C4"/>
<ellipse cx="96.5905" cy="200.913" rx="1.13636" ry="1.14155" fill="#C4C4C4"/>
<ellipse cx="104.546" cy="200.913" rx="1.13636" ry="1.14155" fill="#C4C4C4"/>
<ellipse cx="112.5" cy="200.913" rx="1.13636" ry="1.14155" fill="#C4C4C4"/>
<ellipse cx="120.454" cy="200.913" rx="1.13636" ry="1.14155" fill="#C4C4C4"/>
<ellipse cx="64.7731" cy="208.904" rx="1.13636" ry="1.14155" fill="#C4C4C4"/>
<ellipse cx="72.7282" cy="208.904" rx="1.13636" ry="1.14155" fill="#C4C4C4"/>
<ellipse cx="80.6813" cy="208.904" rx="1.13636" ry="1.14155" fill="#C4C4C4"/>
<ellipse cx="88.6364" cy="208.904" rx="1.13636" ry="1.14155" fill="#C4C4C4"/>
<ellipse cx="96.5905" cy="208.904" rx="1.13636" ry="1.14155" fill="#C4C4C4"/>
<ellipse cx="104.546" cy="208.904" rx="1.13636" ry="1.14155" fill="#C4C4C4"/>
<ellipse cx="112.5" cy="208.904" rx="1.13636" ry="1.14155" fill="#C4C4C4"/>
<ellipse cx="120.454" cy="208.904" rx="1.13636" ry="1.14155" fill="#C4C4C4"/>
<ellipse cx="64.7731" cy="216.895" rx="1.13636" ry="1.14155" fill="#C4C4C4"/>
<ellipse cx="72.7282" cy="216.895" rx="1.13636" ry="1.14155" fill="#C4C4C4"/>
<ellipse cx="80.6813" cy="216.895" rx="1.13636" ry="1.14155" fill="#C4C4C4"/>
<ellipse cx="88.6364" cy="216.895" rx="1.13636" ry="1.14155" fill="#C4C4C4"/>
<ellipse cx="96.5905" cy="216.895" rx="1.13636" ry="1.14155" fill="#C4C4C4"/>
<ellipse cx="104.546" cy="216.895" rx="1.13636" ry="1.14155" fill="#C4C4C4"/>
<ellipse cx="112.5" cy="216.895" rx="1.13636" ry="1.14155" fill="#C4C4C4"/>
<ellipse cx="120.454" cy="216.895" rx="1.13636" ry="1.14155" fill="#C4C4C4"/>
<ellipse cx="64.7731" cy="224.886" rx="1.13636" ry="1.14155" fill="#C4C4C4"/>
<ellipse cx="72.7282" cy="224.886" rx="1.13636" ry="1.14155" fill="#C4C4C4"/>
<ellipse cx="80.6813" cy="224.886" rx="1.13636" ry="1.14155" fill="#C4C4C4"/>
<ellipse cx="88.6364" cy="224.886" rx="1.13636" ry="1.14155" fill="#C4C4C4"/>
<ellipse cx="96.5905" cy="224.886" rx="1.13636" ry="1.14155" fill="#C4C4C4"/>
<ellipse cx="104.546" cy="224.886" rx="1.13636" ry="1.14155" fill="#C4C4C4"/>
<ellipse cx="112.5" cy="224.886" rx="1.13636" ry="1.14155" fill="#C4C4C4"/>
<ellipse cx="120.454" cy="224.886" rx="1.13636" ry="1.14155" fill="#C4C4C4"/>
<ellipse cx="64.7731" cy="232.876" rx="1.13636" ry="1.14155" fill="#C4C4C4"/>
<ellipse cx="72.7282" cy="232.876" rx="1.13636" ry="1.14155" fill="#C4C4C4"/>
<ellipse cx="80.6813" cy="232.876" rx="1.13636" ry="1.14155" fill="#C4C4C4"/>
<ellipse cx="88.6364" cy="232.876" rx="1.13636" ry="1.14155" fill="#C4C4C4"/>
<ellipse cx="96.5905" cy="232.876" rx="1.13636" ry="1.14155" fill="#C4C4C4"/>
<ellipse cx="104.546" cy="232.876" rx="1.13636" ry="1.14155" fill="#C4C4C4"/>
<ellipse cx="112.5" cy="232.876" rx="1.13636" ry="1.14155" fill="#C4C4C4"/>
<ellipse cx="120.454" cy="232.876" rx="1.13636" ry="1.14155" fill="#C4C4C4"/>
<ellipse cx="64.7731" cy="240.867" rx="1.13636" ry="1.14155" fill="#C4C4C4"/>
<ellipse cx="72.7282" cy="240.867" rx="1.13636" ry="1.14155" fill="#C4C4C4"/>
<ellipse cx="80.6813" cy="240.867" rx="1.13636" ry="1.14155" fill="#C4C4C4"/>
<ellipse cx="88.6364" cy="240.867" rx="1.13636" ry="1.14155" fill="#C4C4C4"/>
<ellipse cx="96.5905" cy="240.867" rx="1.13636" ry="1.14155" fill="#C4C4C4"/>
<ellipse cx="104.546" cy="240.867" rx="1.13636" ry="1.14155" fill="#C4C4C4"/>
<ellipse cx="112.5" cy="240.867" rx="1.13636" ry="1.14155" fill="#C4C4C4"/>
<ellipse cx="120.454" cy="240.867" rx="1.13636" ry="1.14155" fill="#C4C4C4"/>
<ellipse cx="64.7731" cy="248.858" rx="1.13636" ry="1.14155" fill="#C4C4C4"/>
<ellipse cx="72.7282" cy="248.858" rx="1.13636" ry="1.14155" fill="#C4C4C4"/>
<ellipse cx="80.6813" cy="248.858" rx="1.13636" ry="1.14155" fill="#C4C4C4"/>
<ellipse cx="88.6364" cy="248.858" rx="1.13636" ry="1.14155" fill="#C4C4C4"/>
<ellipse cx="96.5905" cy="248.858" rx="1.13636" ry="1.14155" fill="#C4C4C4"/>
<ellipse cx="104.546" cy="248.858" rx="1.13636" ry="1.14155" fill="#C4C4C4"/>
<ellipse cx="112.5" cy="248.858" rx="1.13636" ry="1.14155" fill="#C4C4C4"/>
<ellipse cx="120.454" cy="248.858" rx="1.13636" ry="1.14155" fill="#C4C4C4"/>
<ellipse cx="129.546" cy="128.996" rx="1.13636" ry="1.14155" fill="#C4C4C4"/>
<ellipse cx="137.5" cy="128.995" rx="1.13636" ry="1.14155" fill="#C4C4C4"/>
<ellipse cx="145.454" cy="128.995" rx="1.13636" ry="1.14155" fill="#C4C4C4"/>
<ellipse cx="153.408" cy="128.995" rx="1.13636" ry="1.14155" fill="#C4C4C4"/>
<ellipse cx="161.364" cy="128.995" rx="1.13636" ry="1.14155" fill="#C4C4C4"/>
<ellipse cx="169.318" cy="128.995" rx="1.13636" ry="1.14155" fill="#C4C4C4"/>
<ellipse cx="177.272" cy="128.995" rx="1.13636" ry="1.14155" fill="#C4C4C4"/>
<ellipse cx="185.228" cy="128.995" rx="1.13636" ry="1.14155" fill="#C4C4C4"/>
<ellipse cx="129.546" cy="136.986" rx="1.13636" ry="1.14155" fill="#C4C4C4"/>
<ellipse cx="137.5" cy="136.986" rx="1.13636" ry="1.14155" fill="#C4C4C4"/>
<ellipse cx="145.454" cy="136.986" rx="1.13636" ry="1.14155" fill="#C4C4C4"/>
<ellipse cx="153.408" cy="136.986" rx="1.13636" ry="1.14155" fill="#C4C4C4"/>
<ellipse cx="161.364" cy="136.986" rx="1.13636" ry="1.14155" fill="#C4C4C4"/>
<ellipse cx="169.318" cy="136.986" rx="1.13636" ry="1.14155" fill="#C4C4C4"/>
<ellipse cx="177.272" cy="136.986" rx="1.13636" ry="1.14155" fill="#C4C4C4"/>
<ellipse cx="185.228" cy="136.986" rx="1.13636" ry="1.14155" fill="#C4C4C4"/>
<ellipse cx="129.546" cy="144.977" rx="1.13636" ry="1.14155" fill="#C4C4C4"/>
<ellipse cx="137.5" cy="144.977" rx="1.13636" ry="1.14155" fill="#C4C4C4"/>
<ellipse cx="145.454" cy="144.977" rx="1.13636" ry="1.14155" fill="#C4C4C4"/>
<ellipse cx="153.408" cy="144.977" rx="1.13636" ry="1.14155" fill="#C4C4C4"/>
<ellipse cx="161.364" cy="144.977" rx="1.13636" ry="1.14155" fill="#C4C4C4"/>
<ellipse cx="169.318" cy="144.977" rx="1.13636" ry="1.14155" fill="#C4C4C4"/>
<ellipse cx="177.272" cy="144.977" rx="1.13636" ry="1.14155" fill="#C4C4C4"/>
<ellipse cx="185.228" cy="144.977" rx="1.13636" ry="1.14155" fill="#C4C4C4"/>
<ellipse cx="129.546" cy="152.968" rx="1.13636" ry="1.14155" fill="#C4C4C4"/>
<ellipse cx="137.5" cy="152.968" rx="1.13636" ry="1.14155" fill="#C4C4C4"/>
<ellipse cx="145.454" cy="152.968" rx="1.13636" ry="1.14155" fill="#C4C4C4"/>
<ellipse cx="153.408" cy="152.968" rx="1.13636" ry="1.14155" fill="#C4C4C4"/>
<ellipse cx="161.364" cy="152.968" rx="1.13636" ry="1.14155" fill="#C4C4C4"/>
<ellipse cx="169.318" cy="152.968" rx="1.13636" ry="1.14155" fill="#C4C4C4"/>
<ellipse cx="177.272" cy="152.968" rx="1.13636" ry="1.14155" fill="#C4C4C4"/>
<ellipse cx="185.228" cy="152.968" rx="1.13636" ry="1.14155" fill="#C4C4C4"/>
<ellipse cx="129.546" cy="160.959" rx="1.13636" ry="1.14155" fill="#C4C4C4"/>
<ellipse cx="137.5" cy="160.959" rx="1.13636" ry="1.14155" fill="#C4C4C4"/>
<ellipse cx="145.454" cy="160.959" rx="1.13636" ry="1.14155" fill="#C4C4C4"/>
<ellipse cx="153.408" cy="160.959" rx="1.13636" ry="1.14155" fill="#C4C4C4"/>
<ellipse cx="161.364" cy="160.959" rx="1.13636" ry="1.14155" fill="#C4C4C4"/>
<ellipse cx="169.318" cy="160.959" rx="1.13636" ry="1.14155" fill="#C4C4C4"/>
<ellipse cx="177.272" cy="160.959" rx="1.13636" ry="1.14155" fill="#C4C4C4"/>
<ellipse cx="185.228" cy="160.959" rx="1.13636" ry="1.14155" fill="#C4C4C4"/>
<ellipse cx="129.546" cy="168.95" rx="1.13636" ry="1.14155" fill="#C4C4C4"/>
<ellipse cx="137.5" cy="168.95" rx="1.13636" ry="1.14155" fill="#C4C4C4"/>
<ellipse cx="145.454" cy="168.95" rx="1.13636" ry="1.14155" fill="#C4C4C4"/>
<ellipse cx="153.408" cy="168.95" rx="1.13636" ry="1.14155" fill="#C4C4C4"/>
<ellipse cx="161.364" cy="168.95" rx="1.13636" ry="1.14155" fill="#C4C4C4"/>
<ellipse cx="169.318" cy="168.95" rx="1.13636" ry="1.14155" fill="#C4C4C4"/>
<ellipse cx="177.272" cy="168.95" rx="1.13636" ry="1.14155" fill="#C4C4C4"/>
<ellipse cx="185.228" cy="168.95" rx="1.13636" ry="1.14155" fill="#C4C4C4"/>
<ellipse cx="129.546" cy="176.941" rx="1.13636" ry="1.14155" fill="#C4C4C4"/>
<ellipse cx="137.5" cy="176.941" rx="1.13636" ry="1.14155" fill="#C4C4C4"/>
<ellipse cx="145.454" cy="176.941" rx="1.13636" ry="1.14155" fill="#C4C4C4"/>
<ellipse cx="153.408" cy="176.941" rx="1.13636" ry="1.14155" fill="#C4C4C4"/>
<ellipse cx="161.364" cy="176.941" rx="1.13636" ry="1.14155" fill="#C4C4C4"/>
<ellipse cx="169.318" cy="176.941" rx="1.13636" ry="1.14155" fill="#C4C4C4"/>
<ellipse cx="177.272" cy="176.941" rx="1.13636" ry="1.14155" fill="#C4C4C4"/>
<ellipse cx="185.228" cy="176.941" rx="1.13636" ry="1.14155" fill="#C4C4C4"/>
<ellipse cx="129.546" cy="184.931" rx="1.13636" ry="1.14155" fill="#C4C4C4"/>
<ellipse cx="137.5" cy="184.931" rx="1.13636" ry="1.14155" fill="#C4C4C4"/>
<ellipse cx="145.454" cy="184.931" rx="1.13636" ry="1.14155" fill="#C4C4C4"/>
<ellipse cx="153.408" cy="184.931" rx="1.13636" ry="1.14155" fill="#C4C4C4"/>
<ellipse cx="161.364" cy="184.931" rx="1.13636" ry="1.14155" fill="#C4C4C4"/>
<ellipse cx="169.318" cy="184.931" rx="1.13636" ry="1.14155" fill="#C4C4C4"/>
<ellipse cx="177.272" cy="184.931" rx="1.13636" ry="1.14155" fill="#C4C4C4"/>
<ellipse cx="185.228" cy="184.931" rx="1.13636" ry="1.14155" fill="#C4C4C4"/>
<ellipse cx="129.546" cy="192.922" rx="1.13636" ry="1.14155" fill="#C4C4C4"/>
<ellipse cx="137.5" cy="192.922" rx="1.13636" ry="1.14155" fill="#C4C4C4"/>
<ellipse cx="145.454" cy="192.922" rx="1.13636" ry="1.14155" fill="#C4C4C4"/>
<ellipse cx="153.408" cy="192.922" rx="1.13636" ry="1.14155" fill="#C4C4C4"/>
<ellipse cx="161.364" cy="192.922" rx="1.13636" ry="1.14155" fill="#C4C4C4"/>
<ellipse cx="169.318" cy="192.922" rx="1.13636" ry="1.14155" fill="#C4C4C4"/>
<ellipse cx="177.272" cy="192.922" rx="1.13636" ry="1.14155" fill="#C4C4C4"/>
<ellipse cx="185.228" cy="192.922" rx="1.13636" ry="1.14155" fill="#C4C4C4"/>
<ellipse cx="129.546" cy="200.913" rx="1.13636" ry="1.14155" fill="#C4C4C4"/>
<ellipse cx="137.5" cy="200.913" rx="1.13636" ry="1.14155" fill="#C4C4C4"/>
<ellipse cx="145.454" cy="200.913" rx="1.13636" ry="1.14155" fill="#C4C4C4"/>
<ellipse cx="153.408" cy="200.913" rx="1.13636" ry="1.14155" fill="#C4C4C4"/>
<ellipse cx="161.364" cy="200.913" rx="1.13636" ry="1.14155" fill="#C4C4C4"/>
<ellipse cx="169.318" cy="200.913" rx="1.13636" ry="1.14155" fill="#C4C4C4"/>
<ellipse cx="177.272" cy="200.913" rx="1.13636" ry="1.14155" fill="#C4C4C4"/>
<ellipse cx="185.228" cy="200.913" rx="1.13636" ry="1.14155" fill="#C4C4C4"/>
<ellipse cx="129.546" cy="208.904" rx="1.13636" ry="1.14155" fill="#C4C4C4"/>
<ellipse cx="137.5" cy="208.904" rx="1.13636" ry="1.14155" fill="#C4C4C4"/>
<ellipse cx="145.454" cy="208.904" rx="1.13636" ry="1.14155" fill="#C4C4C4"/>
<ellipse cx="153.408" cy="208.904" rx="1.13636" ry="1.14155" fill="#C4C4C4"/>
<ellipse cx="161.364" cy="208.904" rx="1.13636" ry="1.14155" fill="#C4C4C4"/>
<ellipse cx="169.318" cy="208.904" rx="1.13636" ry="1.14155" fill="#C4C4C4"/>
<ellipse cx="177.272" cy="208.904" rx="1.13636" ry="1.14155" fill="#C4C4C4"/>
<ellipse cx="185.228" cy="208.904" rx="1.13636" ry="1.14155" fill="#C4C4C4"/>
<ellipse cx="129.546" cy="216.895" rx="1.13636" ry="1.14155" fill="#C4C4C4"/>
<ellipse cx="137.5" cy="216.895" rx="1.13636" ry="1.14155" fill="#C4C4C4"/>
<ellipse cx="145.454" cy="216.895" rx="1.13636" ry="1.14155" fill="#C4C4C4"/>
<ellipse cx="153.408" cy="216.895" rx="1.13636" ry="1.14155" fill="#C4C4C4"/>
<ellipse cx="161.364" cy="216.895" rx="1.13636" ry="1.14155" fill="#C4C4C4"/>
<ellipse cx="169.318" cy="216.895" rx="1.13636" ry="1.14155" fill="#C4C4C4"/>
<ellipse cx="177.272" cy="216.895" rx="1.13636" ry="1.14155" fill="#C4C4C4"/>
<ellipse cx="185.228" cy="216.895" rx="1.13636" ry="1.14155" fill="#C4C4C4"/>
<ellipse cx="129.546" cy="224.886" rx="1.13636" ry="1.14155" fill="#C4C4C4"/>
<ellipse cx="137.5" cy="224.886" rx="1.13636" ry="1.14155" fill="#C4C4C4"/>
<ellipse cx="145.454" cy="224.886" rx="1.13636" ry="1.14155" fill="#C4C4C4"/>
<ellipse cx="153.408" cy="224.886" rx="1.13636" ry="1.14155" fill="#C4C4C4"/>
<ellipse cx="161.364" cy="224.886" rx="1.13636" ry="1.14155" fill="#C4C4C4"/>
<ellipse cx="169.318" cy="224.886" rx="1.13636" ry="1.14155" fill="#C4C4C4"/>
<ellipse cx="177.272" cy="224.886" rx="1.13636" ry="1.14155" fill="#C4C4C4"/>
<ellipse cx="185.228" cy="224.886" rx="1.13636" ry="1.14155" fill="#C4C4C4"/>
<ellipse cx="129.546" cy="232.876" rx="1.13636" ry="1.14155" fill="#C4C4C4"/>
<ellipse cx="137.5" cy="232.876" rx="1.13636" ry="1.14155" fill="#C4C4C4"/>
<ellipse cx="145.454" cy="232.876" rx="1.13636" ry="1.14155" fill="#C4C4C4"/>
<ellipse cx="153.408" cy="232.876" rx="1.13636" ry="1.14155" fill="#C4C4C4"/>
<ellipse cx="161.364" cy="232.876" rx="1.13636" ry="1.14155" fill="#C4C4C4"/>
<ellipse cx="169.318" cy="232.876" rx="1.13636" ry="1.14155" fill="#C4C4C4"/>
<ellipse cx="177.272" cy="232.876" rx="1.13636" ry="1.14155" fill="#C4C4C4"/>
<ellipse cx="185.228" cy="232.876" rx="1.13636" ry="1.14155" fill="#C4C4C4"/>
<ellipse cx="129.546" cy="240.868" rx="1.13636" ry="1.14155" fill="#C4C4C4"/>
<ellipse cx="137.5" cy="240.868" rx="1.13636" ry="1.14155" fill="#C4C4C4"/>
<ellipse cx="145.454" cy="240.868" rx="1.13636" ry="1.14155" fill="#C4C4C4"/>
<ellipse cx="153.408" cy="240.868" rx="1.13636" ry="1.14155" fill="#C4C4C4"/>
<ellipse cx="161.364" cy="240.868" rx="1.13636" ry="1.14155" fill="#C4C4C4"/>
<ellipse cx="169.318" cy="240.868" rx="1.13636" ry="1.14155" fill="#C4C4C4"/>
<ellipse cx="177.272" cy="240.868" rx="1.13636" ry="1.14155" fill="#C4C4C4"/>
<ellipse cx="185.228" cy="240.868" rx="1.13636" ry="1.14155" fill="#C4C4C4"/>
<ellipse cx="129.546" cy="248.858" rx="1.13636" ry="1.14155" fill="#C4C4C4"/>
<ellipse cx="137.5" cy="248.858" rx="1.13636" ry="1.14155" fill="#C4C4C4"/>
<ellipse cx="145.454" cy="248.858" rx="1.13636" ry="1.14155" fill="#C4C4C4"/>
<ellipse cx="153.408" cy="248.858" rx="1.13636" ry="1.14155" fill="#C4C4C4"/>
<ellipse cx="161.364" cy="248.858" rx="1.13636" ry="1.14155" fill="#C4C4C4"/>
<ellipse cx="169.318" cy="248.858" rx="1.13636" ry="1.14155" fill="#C4C4C4"/>
<ellipse cx="177.272" cy="248.858" rx="1.13636" ry="1.14155" fill="#C4C4C4"/>
<ellipse cx="185.228" cy="248.858" rx="1.13636" ry="1.14155" fill="#C4C4C4"/>
<ellipse cx="193.182" cy="128.995" rx="1.13636" ry="1.14155" fill="#C4C4C4"/>
<ellipse cx="201.136" cy="128.995" rx="1.13636" ry="1.14155" fill="#C4C4C4"/>
<ellipse cx="209.09" cy="128.995" rx="1.13636" ry="1.14155" fill="#C4C4C4"/>
<ellipse cx="217.046" cy="128.995" rx="1.13636" ry="1.14155" fill="#C4C4C4"/>
<ellipse cx="225" cy="128.995" rx="1.13636" ry="1.14155" fill="#C4C4C4"/>
<ellipse cx="232.955" cy="128.995" rx="1.13636" ry="1.14155" fill="#C4C4C4"/>
<ellipse cx="240.909" cy="128.995" rx="1.13636" ry="1.14155" fill="#C4C4C4"/>
<ellipse cx="248.864" cy="128.995" rx="1.13636" ry="1.14155" fill="#C4C4C4"/>
<ellipse cx="193.182" cy="136.986" rx="1.13636" ry="1.14155" fill="#C4C4C4"/>
<ellipse cx="201.136" cy="136.986" rx="1.13636" ry="1.14155" fill="#C4C4C4"/>
<ellipse cx="209.09" cy="136.986" rx="1.13636" ry="1.14155" fill="#C4C4C4"/>
<ellipse cx="217.046" cy="136.986" rx="1.13636" ry="1.14155" fill="#C4C4C4"/>
<ellipse cx="225" cy="136.986" rx="1.13636" ry="1.14155" fill="#C4C4C4"/>
<ellipse cx="232.955" cy="136.986" rx="1.13636" ry="1.14155" fill="#C4C4C4"/>
<ellipse cx="240.909" cy="136.986" rx="1.13636" ry="1.14155" fill="#C4C4C4"/>
<ellipse cx="248.864" cy="136.986" rx="1.13636" ry="1.14155" fill="#C4C4C4"/>
<ellipse cx="193.182" cy="144.977" rx="1.13636" ry="1.14155" fill="#C4C4C4"/>
<ellipse cx="201.136" cy="144.977" rx="1.13636" ry="1.14155" fill="#C4C4C4"/>
<ellipse cx="209.09" cy="144.977" rx="1.13636" ry="1.14155" fill="#C4C4C4"/>
<ellipse cx="217.046" cy="144.977" rx="1.13636" ry="1.14155" fill="#C4C4C4"/>
<ellipse cx="225" cy="144.977" rx="1.13636" ry="1.14155" fill="#C4C4C4"/>
<ellipse cx="232.955" cy="144.977" rx="1.13636" ry="1.14155" fill="#C4C4C4"/>
<ellipse cx="240.909" cy="144.977" rx="1.13636" ry="1.14155" fill="#C4C4C4"/>
<ellipse cx="248.864" cy="144.977" rx="1.13636" ry="1.14155" fill="#C4C4C4"/>
<ellipse cx="193.182" cy="152.968" rx="1.13636" ry="1.14155" fill="#C4C4C4"/>
<ellipse cx="201.136" cy="152.968" rx="1.13636" ry="1.14155" fill="#C4C4C4"/>
<ellipse cx="209.09" cy="152.968" rx="1.13636" ry="1.14155" fill="#C4C4C4"/>
<ellipse cx="217.046" cy="152.968" rx="1.13636" ry="1.14155" fill="#C4C4C4"/>
<ellipse cx="225" cy="152.968" rx="1.13636" ry="1.14155" fill="#C4C4C4"/>
<ellipse cx="232.955" cy="152.968" rx="1.13636" ry="1.14155" fill="#C4C4C4"/>
<ellipse cx="240.909" cy="152.968" rx="1.13636" ry="1.14155" fill="#C4C4C4"/>
<ellipse cx="248.864" cy="152.968" rx="1.13636" ry="1.14155" fill="#C4C4C4"/>
<ellipse cx="193.182" cy="160.959" rx="1.13636" ry="1.14155" fill="#C4C4C4"/>
<ellipse cx="201.136" cy="160.959" rx="1.13636" ry="1.14155" fill="#C4C4C4"/>
<ellipse cx="209.09" cy="160.959" rx="1.13636" ry="1.14155" fill="#C4C4C4"/>
<ellipse cx="217.046" cy="160.959" rx="1.13636" ry="1.14155" fill="#C4C4C4"/>
<ellipse cx="225" cy="160.959" rx="1.13636" ry="1.14155" fill="#C4C4C4"/>
<ellipse cx="232.955" cy="160.959" rx="1.13636" ry="1.14155" fill="#C4C4C4"/>
<ellipse cx="240.909" cy="160.959" rx="1.13636" ry="1.14155" fill="#C4C4C4"/>
<ellipse cx="248.864" cy="160.959" rx="1.13636" ry="1.14155" fill="#C4C4C4"/>
<ellipse cx="193.182" cy="168.95" rx="1.13636" ry="1.14155" fill="#C4C4C4"/>
<ellipse cx="201.136" cy="168.95" rx="1.13636" ry="1.14155" fill="#C4C4C4"/>
<ellipse cx="209.09" cy="168.95" rx="1.13636" ry="1.14155" fill="#C4C4C4"/>
<ellipse cx="217.046" cy="168.95" rx="1.13636" ry="1.14155" fill="#C4C4C4"/>
<ellipse cx="225" cy="168.95" rx="1.13636" ry="1.14155" fill="#C4C4C4"/>
<ellipse cx="232.955" cy="168.95" rx="1.13636" ry="1.14155" fill="#C4C4C4"/>
<ellipse cx="240.909" cy="168.95" rx="1.13636" ry="1.14155" fill="#C4C4C4"/>
<ellipse cx="248.864" cy="168.95" rx="1.13636" ry="1.14155" fill="#C4C4C4"/>
<ellipse cx="193.182" cy="176.941" rx="1.13636" ry="1.14155" fill="#C4C4C4"/>
<ellipse cx="201.136" cy="176.941" rx="1.13636" ry="1.14155" fill="#C4C4C4"/>
<ellipse cx="209.09" cy="176.941" rx="1.13636" ry="1.14155" fill="#C4C4C4"/>
<ellipse cx="217.046" cy="176.941" rx="1.13636" ry="1.14155" fill="#C4C4C4"/>
<ellipse cx="225" cy="176.941" rx="1.13636" ry="1.14155" fill="#C4C4C4"/>
<ellipse cx="232.955" cy="176.941" rx="1.13636" ry="1.14155" fill="#C4C4C4"/>
<ellipse cx="240.909" cy="176.941" rx="1.13636" ry="1.14155" fill="#C4C4C4"/>
<ellipse cx="248.864" cy="176.941" rx="1.13636" ry="1.14155" fill="#C4C4C4"/>
<ellipse cx="193.182" cy="184.931" rx="1.13636" ry="1.14155" fill="#C4C4C4"/>
<ellipse cx="201.136" cy="184.931" rx="1.13636" ry="1.14155" fill="#C4C4C4"/>
<ellipse cx="209.09" cy="184.931" rx="1.13636" ry="1.14155" fill="#C4C4C4"/>
<ellipse cx="217.046" cy="184.931" rx="1.13636" ry="1.14155" fill="#C4C4C4"/>
<ellipse cx="225" cy="184.931" rx="1.13636" ry="1.14155" fill="#C4C4C4"/>
<ellipse cx="232.955" cy="184.931" rx="1.13636" ry="1.14155" fill="#C4C4C4"/>
<ellipse cx="240.909" cy="184.931" rx="1.13636" ry="1.14155" fill="#C4C4C4"/>
<ellipse cx="248.864" cy="184.931" rx="1.13636" ry="1.14155" fill="#C4C4C4"/>
<ellipse cx="193.182" cy="192.922" rx="1.13636" ry="1.14155" fill="#C4C4C4"/>
<ellipse cx="201.136" cy="192.922" rx="1.13636" ry="1.14155" fill="#C4C4C4"/>
<ellipse cx="209.09" cy="192.922" rx="1.13636" ry="1.14155" fill="#C4C4C4"/>
<ellipse cx="217.046" cy="192.922" rx="1.13636" ry="1.14155" fill="#C4C4C4"/>
<ellipse cx="225" cy="192.922" rx="1.13636" ry="1.14155" fill="#C4C4C4"/>
<ellipse cx="232.955" cy="192.922" rx="1.13636" ry="1.14155" fill="#C4C4C4"/>
<ellipse cx="240.909" cy="192.922" rx="1.13636" ry="1.14155" fill="#C4C4C4"/>
<ellipse cx="248.864" cy="192.922" rx="1.13636" ry="1.14155" fill="#C4C4C4"/>
<ellipse cx="193.182" cy="200.913" rx="1.13636" ry="1.14155" fill="#C4C4C4"/>
<ellipse cx="201.136" cy="200.913" rx="1.13636" ry="1.14155" fill="#C4C4C4"/>
<ellipse cx="209.09" cy="200.913" rx="1.13636" ry="1.14155" fill="#C4C4C4"/>
<ellipse cx="217.046" cy="200.913" rx="1.13636" ry="1.14155" fill="#C4C4C4"/>
<ellipse cx="225" cy="200.913" rx="1.13636" ry="1.14155" fill="#C4C4C4"/>
<ellipse cx="232.955" cy="200.913" rx="1.13636" ry="1.14155" fill="#C4C4C4"/>
<ellipse cx="240.909" cy="200.913" rx="1.13636" ry="1.14155" fill="#C4C4C4"/>
<ellipse cx="248.864" cy="200.913" rx="1.13636" ry="1.14155" fill="#C4C4C4"/>
<ellipse cx="193.182" cy="208.904" rx="1.13636" ry="1.14155" fill="#C4C4C4"/>
<ellipse cx="201.136" cy="208.904" rx="1.13636" ry="1.14155" fill="#C4C4C4"/>
<ellipse cx="209.09" cy="208.904" rx="1.13636" ry="1.14155" fill="#C4C4C4"/>
<ellipse cx="217.046" cy="208.904" rx="1.13636" ry="1.14155" fill="#C4C4C4"/>
<ellipse cx="225" cy="208.904" rx="1.13636" ry="1.14155" fill="#C4C4C4"/>
<ellipse cx="232.955" cy="208.904" rx="1.13636" ry="1.14155" fill="#C4C4C4"/>
<ellipse cx="240.909" cy="208.904" rx="1.13636" ry="1.14155" fill="#C4C4C4"/>
<ellipse cx="248.864" cy="208.904" rx="1.13636" ry="1.14155" fill="#C4C4C4"/>
<ellipse cx="193.182" cy="216.895" rx="1.13636" ry="1.14155" fill="#C4C4C4"/>
<ellipse cx="201.136" cy="216.895" rx="1.13636" ry="1.14155" fill="#C4C4C4"/>
<ellipse cx="209.09" cy="216.895" rx="1.13636" ry="1.14155" fill="#C4C4C4"/>
<ellipse cx="217.046" cy="216.895" rx="1.13636" ry="1.14155" fill="#C4C4C4"/>
<ellipse cx="225" cy="216.895" rx="1.13636" ry="1.14155" fill="#C4C4C4"/>
<ellipse cx="232.955" cy="216.895" rx="1.13636" ry="1.14155" fill="#C4C4C4"/>
<ellipse cx="240.909" cy="216.895" rx="1.13636" ry="1.14155" fill="#C4C4C4"/>
<ellipse cx="248.864" cy="216.895" rx="1.13636" ry="1.14155" fill="#C4C4C4"/>
<ellipse cx="193.182" cy="224.886" rx="1.13636" ry="1.14155" fill="#C4C4C4"/>
<ellipse cx="201.136" cy="224.886" rx="1.13636" ry="1.14155" fill="#C4C4C4"/>
<ellipse cx="209.09" cy="224.886" rx="1.13636" ry="1.14155" fill="#C4C4C4"/>
<ellipse cx="217.046" cy="224.886" rx="1.13636" ry="1.14155" fill="#C4C4C4"/>
<ellipse cx="225" cy="224.886" rx="1.13636" ry="1.14155" fill="#C4C4C4"/>
<ellipse cx="232.955" cy="224.886" rx="1.13636" ry="1.14155" fill="#C4C4C4"/>
<ellipse cx="240.909" cy="224.886" rx="1.13636" ry="1.14155" fill="#C4C4C4"/>
<ellipse cx="248.864" cy="224.886" rx="1.13636" ry="1.14155" fill="#C4C4C4"/>
<ellipse cx="193.182" cy="232.876" rx="1.13636" ry="1.14155" fill="#C4C4C4"/>
<ellipse cx="201.136" cy="232.876" rx="1.13636" ry="1.14155" fill="#C4C4C4"/>
<ellipse cx="209.09" cy="232.876" rx="1.13636" ry="1.14155" fill="#C4C4C4"/>
<ellipse cx="217.046" cy="232.876" rx="1.13636" ry="1.14155" fill="#C4C4C4"/>
<ellipse cx="225" cy="232.876" rx="1.13636" ry="1.14155" fill="#C4C4C4"/>
<ellipse cx="232.955" cy="232.876" rx="1.13636" ry="1.14155" fill="#C4C4C4"/>
<ellipse cx="240.909" cy="232.876" rx="1.13636" ry="1.14155" fill="#C4C4C4"/>
<ellipse cx="248.864" cy="232.876" rx="1.13636" ry="1.14155" fill="#C4C4C4"/>
<ellipse cx="193.182" cy="240.868" rx="1.13636" ry="1.14155" fill="#C4C4C4"/>
<ellipse cx="201.136" cy="240.868" rx="1.13636" ry="1.14155" fill="#C4C4C4"/>
<ellipse cx="209.09" cy="240.868" rx="1.13636" ry="1.14155" fill="#C4C4C4"/>
<ellipse cx="217.046" cy="240.868" rx="1.13636" ry="1.14155" fill="#C4C4C4"/>
<ellipse cx="225" cy="240.868" rx="1.13636" ry="1.14155" fill="#C4C4C4"/>
<ellipse cx="232.955" cy="240.868" rx="1.13636" ry="1.14155" fill="#C4C4C4"/>
<ellipse cx="240.909" cy="240.868" rx="1.13636" ry="1.14155" fill="#C4C4C4"/>
<ellipse cx="248.864" cy="240.868" rx="1.13636" ry="1.14155" fill="#C4C4C4"/>
<ellipse cx="193.182" cy="248.858" rx="1.13636" ry="1.14155" fill="#C4C4C4"/>
<ellipse cx="201.136" cy="248.858" rx="1.13636" ry="1.14155" fill="#C4C4C4"/>
<ellipse cx="209.09" cy="248.858" rx="1.13636" ry="1.14155" fill="#C4C4C4"/>
<ellipse cx="217.046" cy="248.858" rx="1.13636" ry="1.14155" fill="#C4C4C4"/>
<ellipse cx="225" cy="248.858" rx="1.13636" ry="1.14155" fill="#C4C4C4"/>
<ellipse cx="232.955" cy="248.858" rx="1.13636" ry="1.14155" fill="#C4C4C4"/>
<ellipse cx="240.909" cy="248.858" rx="1.13636" ry="1.14155" fill="#C4C4C4"/>
<ellipse cx="248.864" cy="248.858" rx="1.13636" ry="1.14155" fill="#C4C4C4"/>
</g>
</svg>
