<svg width="128" height="128" viewBox="0 0 128 128" fill="none" xmlns="http://www.w3.org/2000/svg">
<g clip-path="url(#clip0)">
<path d="M88.7741 55.7422H117.677V59.8712H88.7741V55.7422Z" fill="#EE2524"/>
<path d="M88.7741 47.4844H117.677V51.6134H88.7741V47.4844Z" fill="#EE2524"/>
<path d="M43.3549 33.0313L41.2903 30.9668H37.1613L35.0968 33.0313L37.1613 35.0958L35.0968 53.6765L39.2258 57.8055L43.3549 53.6765L41.2903 35.0958L43.3549 33.0313Z" fill="#EE2524"/>
<path d="M30.9677 76.3867H2.06449L0.740906 77.9744L11.5423 86.9734C12.9385 88.1337 14.7036 88.7738 16.5161 88.7738C18.3286 88.7738 20.0937 88.1337 21.4899 86.9734L32.2893 77.9744L30.9677 76.3867Z" fill="#EE2524"/>
<path opacity="0.3" d="M86.7097 27.006L78.7591 20.6452H61.9355C59.6583 20.6452 57.8065 18.7933 57.8065 16.5161V4.12903C57.8065 1.85181 59.6583 0 61.9355 0H82.5807C84.8579 0 86.7097 1.85181 86.7097 4.12903V27.006Z" fill="#A9A9AA"/>
<path d="M56.1814 31.5292L47.4839 29.3558V25.7238C50.0111 23.4546 51.6129 20.1744 51.6129 16.5161V12.3871C51.6129 5.55544 46.0575 0 39.2258 0C32.3942 0 26.8387 5.55544 26.8387 12.3871V16.5161C26.8387 20.1724 28.4405 23.4526 30.9677 25.7238V29.3558L22.2702 31.5312C17.6663 32.6814 14.4516 36.7984 14.4516 41.5444V74.3226H0V99.0968H22.7097V128H55.7419V41.2903H51.6129V64H26.8387V41.2903H22.7097V74.3226H18.5806V41.5444C18.5806 38.6976 20.5111 36.2258 23.2712 35.5343L35.0968 32.5796V28.1804C36.3911 28.6411 37.7762 28.9032 39.2258 28.9032C40.6754 28.9032 42.0605 28.6391 43.3548 28.1804V32.5796L55.1804 35.5343C57.9405 36.2258 59.871 38.6976 59.871 41.5444V76.3871H64V41.5444C64 36.7984 60.7853 32.6814 56.1814 31.5292ZM4.12903 78.4516H28.9032V94.9677H4.12903V78.4516ZM26.8387 68.129H51.6129V123.871H41.2903V76.3871H37.1613V123.871H26.8387V99.0968H33.0323V74.3226H26.8387V68.129ZM30.9677 16.5161V12.3871C30.9677 7.83266 34.6714 4.12903 39.2258 4.12903C43.7802 4.12903 47.4839 7.83266 47.4839 12.3871V16.5161C47.4839 21.0706 43.7802 24.7742 39.2258 24.7742C34.6714 24.7742 30.9677 21.0706 30.9677 16.5161Z" fill="black"/>
<path d="M120.181 31.5292L111.484 29.3559V25.7238C114.011 23.4546 115.613 20.1744 115.613 16.5161V12.3871C115.613 5.55544 110.057 0 103.226 0C96.3941 0 90.8387 5.55544 90.8387 12.3871V16.5161C90.8387 20.1724 92.4405 23.4526 94.9677 25.7238V29.3559L86.2701 31.5313C81.6663 32.6815 78.4516 36.7984 78.4516 41.5444V76.3871H82.5806V41.5444C82.5806 38.6976 84.5111 36.2258 87.2712 35.5343L99.0968 32.5796V28.1804C100.391 28.6411 101.776 28.9032 103.226 28.9032C104.675 28.9032 106.06 28.6391 107.355 28.1804V32.5796L119.18 35.5343C121.941 36.2258 123.871 38.6976 123.871 41.5444V76.3871H128V41.5444C128 36.7984 124.785 32.6815 120.181 31.5292ZM94.9677 16.5161V12.3871C94.9677 7.83266 98.6714 4.12903 103.226 4.12903C107.78 4.12903 111.484 7.83266 111.484 12.3871V16.5161C111.484 21.0706 107.78 24.7742 103.226 24.7742C98.6714 24.7742 94.9677 21.0706 94.9677 16.5161Z" fill="black"/>
<path d="M115.613 64.0007H90.8387V41.291H86.7097V128.001H119.742V41.291H115.613V64.0007ZM105.29 123.872V76.3878H101.161V123.872H90.8387V68.1297H115.613V123.872H105.29Z" fill="black"/>
<path d="M66.0645 8.25781H70.1935V12.3868H66.0645V8.25781Z" fill="black"/>
<path d="M74.3225 8.25781H78.4515V12.3868H74.3225V8.25781Z" fill="black"/>
</g>
<defs>
<clipPath id="clip0">
<rect width="128" height="128" fill="white"/>
</clipPath>
</defs>
</svg>
