<svg width="153" height="153" viewBox="0 0 153 153" fill="none" xmlns="http://www.w3.org/2000/svg">
<path d="M66.3 48.4492C62.0823 48.4492 58.65 51.8815 58.65 56.0992H63.75C63.75 54.6942 64.8924 53.5492 66.3 53.5492C67.7076 53.5492 68.85 54.6942 68.85 56.0992H73.95C73.95 51.8815 70.5177 48.4492 66.3 48.4492Z" fill="black"/>
<path d="M86.7 48.4492C82.4823 48.4492 79.05 51.8815 79.05 56.0992H84.15C84.15 54.6942 85.2924 53.5492 86.7 53.5492C88.1076 53.5492 89.25 54.6942 89.25 56.0992H94.35C94.35 51.8815 90.9177 48.4492 86.7 48.4492Z" fill="black"/>
<path d="M76.5 117.301C70.8747 117.301 66.3 121.875 66.3 127.501C66.3 133.126 70.8747 137.701 76.5 137.701C82.1253 137.701 86.7 133.126 86.7 127.501C86.7 121.875 82.1253 117.301 76.5 117.301ZM76.5 132.601C73.6873 132.601 71.4 130.313 71.4 127.501C71.4 124.688 73.6873 122.401 76.5 122.401C79.3126 122.401 81.6 124.688 81.6 127.501C81.6 130.313 79.3126 132.601 76.5 132.601Z" fill="#EE2524"/>
<path d="M137.7 147.9V114.75C137.7 93.659 120.541 76.5 99.45 76.5H96.673C97.5808 75.7019 98.4351 74.8502 99.2434 73.95H102C109.03 73.95 114.75 68.2303 114.75 61.2V56.7069C117.823 54.6465 119.85 51.1428 119.85 47.175C119.85 43.1919 117.807 39.6831 114.719 37.6252C114.38 16.8249 97.382 0 76.5 0C55.618 0 38.6198 16.8249 38.2806 37.6252C35.1926 39.6831 33.15 43.1919 33.15 47.175C33.15 53.5015 38.2985 58.65 44.625 58.65H46.3615C47.5549 65.716 51.1657 71.9559 56.3295 76.5H53.55C32.459 76.5 15.3 93.659 15.3 114.75V147.9H0V153H17.85H30.6H122.4H135.15H153V147.9H137.7ZM109.65 61.2C109.65 65.0684 106.753 68.2405 103.023 68.7454C104.79 65.6727 106.029 62.2684 106.638 58.65H108.375C108.811 58.65 109.227 58.5684 109.65 58.5199V61.2ZM114.75 47.175C114.75 50.6889 111.891 53.55 108.375 53.55H107.1V40.8H108.375C111.891 40.8 114.75 43.6611 114.75 47.175ZM45.9 53.55H44.625C41.1086 53.55 38.25 50.6889 38.25 47.175C38.25 43.6611 41.1086 40.8 44.625 40.8H45.9V53.55ZM44.625 35.7C44.2297 35.7 43.8574 35.7765 43.4724 35.8173C44.727 18.6736 59.0427 5.1 76.5 5.1C93.9573 5.1 108.273 18.6736 109.528 35.8173C109.143 35.7765 108.77 35.7 108.375 35.7H106.638C104.201 21.2517 91.6317 10.2 76.5 10.2C61.3683 10.2 48.7993 21.2517 46.3615 35.7H44.625ZM101.997 40.7363C83.5941 40.0886 71.4 32.5635 71.4 25.5C71.4 24.0924 70.2601 22.95 68.85 22.95C67.4398 22.95 66.3 24.0924 66.3 25.5C66.3 31.8724 59.7108 37.1535 51.1479 38.0894C52.507 25.2986 63.3573 15.3 76.5 15.3C90.5378 15.3 101.962 26.7062 101.997 40.7363ZM51 53.55V43.2072C58.9636 42.5162 65.7212 38.6758 69.0948 33.2979C74.4294 40.3665 86.8963 45.3415 102 45.849V53.55C102 59.2952 100.067 64.5813 96.8515 68.85H76.5V73.95H91.7337C90.27 75.0465 88.6915 75.99 87.0085 76.755C80.3173 79.7946 72.6801 79.7946 65.9864 76.755C57.1633 72.7413 51 63.8622 51 53.55ZM68.618 83.0841C71.1374 83.7573 73.7715 84.15 76.5 84.15C79.2285 84.15 81.8626 83.7573 84.382 83.0841L76.5 98.8482L68.618 83.0841ZM72.3741 102H67.8759L57.6759 81.6H62.1741L72.3741 102ZM90.8259 81.6H95.3241L85.1241 102H80.6259L90.8259 81.6ZM28.05 114.75V147.9H20.4V114.75C20.4 96.9893 34.4505 82.4899 52.0123 81.679L62.1741 102H40.8C33.7696 102 28.05 107.72 28.05 114.75ZM119.85 147.9H33.15V114.75C33.15 110.532 36.5823 107.1 40.8 107.1H66.3H76.5H86.7H112.2C116.418 107.1 119.85 110.532 119.85 114.75V147.9ZM132.6 147.9H124.95V114.75C124.95 107.72 119.23 102 112.2 102H90.8259L100.988 81.679C118.549 82.4899 132.6 96.9893 132.6 114.75V147.9Z" fill="black"/>
<path d="M114.75 124.949H109.65V142.799H114.75V124.949Z" fill="black"/>
<path d="M114.75 114.75H109.65V119.85H114.75V114.75Z" fill="black"/>
<path d="M137.7 22.9492H132.6V28.0492H137.7V22.9492Z" fill="#EE2524"/>
<path d="M137.7 33.1504H132.6V38.2504H137.7V33.1504Z" fill="#EE2524"/>
<path d="M137.7 43.3496H132.6V48.4496H137.7V43.3496Z" fill="#EE2524"/>
<path d="M20.4 53.5508H15.3V58.6508H20.4V53.5508Z" fill="#EE2524"/>
<path d="M20.4 63.75H15.3V68.85H20.4V63.75Z" fill="#EE2524"/>
<path d="M20.4 73.9492H15.3V79.0492H20.4V73.9492Z" fill="#EE2524"/>
</svg>
