<svg width="360" height="483" viewBox="0 0 360 483" fill="none" xmlns="http://www.w3.org/2000/svg">
<path d="M278.872 190.233C289.508 190.233 298.731 195.06 300.814 201.745C301.111 202.561 301.26 203.453 301.26 204.344C301.26 204.418 301.26 204.492 301.26 204.641C301.26 212.588 291.219 219.049 278.872 219.049C266.6 219.049 256.782 212.885 256.484 205.012L256.484 204.27C256.484 203.453 256.633 202.561 256.93 201.745C259.087 195.06 268.31 190.233 278.872 190.233ZM278.872 218.38C290.847 218.38 300.516 212.216 300.516 204.715C300.516 204.641 300.516 204.567 300.516 204.492C300.516 203.601 300.367 202.784 300.144 202.042C298.136 195.655 289.211 191.05 278.872 191.05C268.608 191.05 259.608 195.655 257.6 202.042C257.377 202.859 257.228 203.601 257.228 204.344L257.228 205.012C257.525 212.365 267.269 218.38 278.872 218.38Z" fill="#A9A9AA" fill-opacity="0.4"/>
<path d="M278.872 201.671C289.508 201.671 298.731 206.498 300.814 213.182C301.111 213.999 301.26 214.89 301.26 215.781C301.26 215.856 301.26 215.93 301.26 216.078C301.26 224.025 291.219 230.486 278.872 230.486C266.6 230.486 256.782 224.322 256.484 216.45L256.484 215.707C256.484 214.89 256.633 213.999 256.93 213.182C259.087 206.498 268.31 201.671 278.872 201.671ZM278.872 229.818C290.847 229.818 300.516 223.654 300.516 216.153C300.516 216.078 300.516 216.004 300.516 215.93C300.516 215.039 300.367 214.222 300.144 213.479C298.136 207.092 289.211 202.487 278.872 202.487C268.608 202.487 259.608 207.092 257.6 213.479C257.377 214.296 257.228 215.039 257.228 215.781L257.228 216.45C257.525 223.802 267.269 229.818 278.872 229.818Z" fill="#A9A9AA" fill-opacity="0.4"/>
<path d="M136.337 25.5086C143.478 25.5086 149.725 28.7764 151.213 33.3067C151.362 33.9008 151.51 34.495 151.51 35.0891C151.51 35.1634 151.51 35.2376 151.51 35.3119C151.51 40.7334 144.742 45.1152 136.337 45.1152C128.081 45.1152 121.387 40.9562 121.164 35.5347L121.164 35.0891C121.164 34.495 121.313 33.9008 121.462 33.3809C122.875 28.7763 129.123 25.5086 136.337 25.5086ZM136.337 44.3726C144.296 44.3726 150.767 40.2878 150.767 35.3119C150.767 35.2376 150.767 35.2376 150.767 35.1634C150.767 34.5692 150.692 34.0494 150.469 33.5295C149.13 29.2963 143.18 26.2513 136.337 26.2513C129.494 26.2513 123.544 29.2963 122.205 33.5295C122.057 34.0494 121.982 34.5692 121.908 35.0891L121.908 35.5347C122.131 40.4364 128.528 44.3726 136.337 44.3726Z" fill="#A9A9AA"/>
<path d="M136.337 33.163C143.478 33.163 149.725 36.4307 151.213 40.9611C151.362 41.5552 151.51 42.1493 151.51 42.7434C151.51 42.8177 151.51 42.892 151.51 42.9663C151.51 48.3878 144.742 52.7695 136.337 52.7695C128.081 52.7695 121.387 48.6106 121.164 43.1891L121.164 42.7434C121.164 42.1493 121.313 41.5552 121.461 41.0353C122.875 36.4307 129.122 33.163 136.337 33.163ZM136.337 52.0269C144.296 52.0269 150.767 47.9422 150.767 42.9663C150.767 42.892 150.767 42.892 150.767 42.8178C150.767 42.2236 150.692 41.7037 150.469 41.1838C149.13 36.9506 143.18 33.9056 136.337 33.9057C129.494 33.9057 123.544 36.9506 122.205 41.1838C122.057 41.7037 121.982 42.2235 121.908 42.7434L121.908 43.1891C122.131 48.0908 128.527 52.0269 136.337 52.0269Z" fill="#A9A9AA"/>
<path d="M278.872 213.854C289.508 213.854 298.731 218.681 300.814 225.366C301.112 226.182 301.26 227.074 301.26 227.965C301.26 228.039 301.26 228.113 301.26 228.262C301.26 236.209 291.219 242.67 278.872 242.67C266.6 242.67 256.782 236.506 256.484 228.633L256.484 227.891C256.484 227.074 256.633 226.182 256.931 225.366C259.088 218.681 268.311 213.854 278.872 213.854ZM278.872 242.001C290.847 242.001 300.516 235.837 300.516 228.336C300.516 228.262 300.516 228.188 300.516 228.113C300.516 227.222 300.368 226.405 300.145 225.663C298.136 219.276 289.211 214.671 278.872 214.671C268.608 214.671 259.608 219.276 257.6 225.663C257.377 226.48 257.228 227.222 257.228 227.965L257.228 228.633C257.526 235.986 267.269 242.001 278.872 242.001Z" fill="#A9A9AA" fill-opacity="0.4"/>
<path d="M278.947 241.927C279.17 241.927 279.319 242.009 279.319 242.132L279.319 273.285C279.319 273.408 279.17 273.49 278.947 273.49C278.723 273.49 278.575 273.408 278.575 273.285L278.575 242.132C278.575 242.009 278.723 241.927 278.947 241.927Z" fill="#A9A9AA" fill-opacity="0.4"/>
<path d="M218.957 86.4073C219.034 86.4073 219.111 86.4073 219.188 86.4812L280.828 122.323C280.905 122.397 280.982 122.545 280.982 122.619L280.982 190.607C280.982 190.829 280.828 190.977 280.597 190.977C280.366 190.977 280.212 190.829 280.212 190.607L280.212 122.84L218.726 87.0724C218.572 86.9985 218.495 86.7028 218.572 86.555C218.726 86.4072 218.88 86.4073 218.957 86.4073Z" fill="#A9A9AA"/>
<path d="M98.4292 167.806C98.5036 167.806 98.5781 167.806 98.6524 167.881L279.318 272.821C279.467 272.895 279.541 273.118 279.467 273.341C279.392 273.489 279.169 273.563 278.946 273.489L98.8756 168.846L98.8756 223.136L114.495 232.419C114.644 232.493 114.644 232.642 114.644 232.716L114.644 282.401C114.644 282.55 114.569 282.624 114.421 282.698C114.272 282.773 114.198 282.773 114.049 282.698L98.5037 273.638L73.215 288.565C73.0663 288.64 72.9919 288.64 72.8431 288.565C72.6944 288.491 72.6199 288.343 72.6199 288.268L72.6199 238.064C72.6199 237.915 72.6944 237.841 72.8431 237.766L98.1318 223.21L98.1318 168.326C98.1318 168.178 98.2061 168.103 98.3549 168.029C98.2805 167.806 98.3549 167.806 98.4292 167.806ZM98.0574 272.895L98.0574 223.953L73.3637 238.212L73.3637 287.6L98.0574 272.895ZM113.826 232.865L98.8012 223.953L98.8012 272.895L113.826 281.659L113.826 232.865Z" fill="#A9A9AA" fill-opacity="0.4"/>
<path d="M98.654 250.242C98.7284 250.242 98.8028 250.242 98.8772 250.316L114.497 259.451C114.645 259.525 114.72 259.748 114.645 259.971C114.571 260.119 114.348 260.194 114.125 260.119L98.7284 251.133L73.2909 266.581C73.1422 266.655 72.919 266.655 72.7702 266.432C72.6959 266.284 72.6959 266.061 72.9191 265.912L98.5796 250.316C98.5053 250.242 98.5796 250.242 98.654 250.242Z" fill="#A9A9AA" fill-opacity="0.4"/>
<path d="M114.199 281.954C114.348 281.954 114.422 282.028 114.497 282.102C114.571 282.251 114.571 282.473 114.348 282.622L88.7615 297.55C88.6128 297.624 88.5384 297.624 88.3896 297.55L72.7701 288.415C72.6214 288.341 72.547 288.118 72.6214 287.895C72.6958 287.746 72.9189 287.672 73.142 287.746L88.6128 296.733L114.05 281.879C114.05 281.954 114.125 281.954 114.199 281.954Z" fill="#A9A9AA" fill-opacity="0.4"/>
<path d="M189.39 421.948C189.464 421.948 189.539 421.948 189.613 422.022L211.034 434.647C211.183 434.722 211.183 434.87 211.183 434.944L211.183 451.506C211.183 451.58 211.183 451.655 211.108 451.729C211.108 451.803 211.034 451.803 210.96 451.877L155.101 484.555C154.953 484.629 154.729 484.629 154.581 484.407C154.506 484.258 154.506 484.035 154.73 483.887L210.067 451.58L189.167 438.732C189.092 438.658 189.018 438.509 189.018 438.435L189.018 422.468C189.018 422.319 189.092 422.245 189.241 422.17C189.241 421.948 189.316 421.948 189.39 421.948ZM210.439 435.093L189.762 422.913L189.762 438.064L210.439 450.763L210.439 435.093Z" fill="#A9A9AA" fill-opacity="0.4"/>
<path d="M56.3273 345.175C56.4016 345.175 56.476 345.175 56.476 345.249L189.316 421.522C189.465 421.596 189.465 421.745 189.539 421.819C189.539 421.968 189.465 422.042 189.391 422.116L166.11 435.781L166.11 450.858L189.019 437.489C189.167 437.415 189.39 437.415 189.539 437.638C189.614 437.787 189.614 438.009 189.391 438.158L165.961 451.897C165.813 451.972 165.738 451.972 165.589 451.897C165.441 451.823 165.366 451.675 165.366 451.6L165.366 435.707C165.366 435.559 165.441 435.484 165.515 435.41L188.424 421.968L56.1785 345.992C56.0297 345.918 55.9554 345.695 56.0297 345.472C56.1041 345.175 56.2529 345.175 56.3273 345.175Z" fill="#A9A9AA"/>
<path d="M165.962 451.655C166.036 451.655 166.111 451.655 166.111 451.73L188.052 464.429C188.201 464.504 188.275 464.727 188.201 464.949C188.127 465.098 187.903 465.172 187.68 465.098L165.739 452.398C165.59 452.324 165.516 452.101 165.59 451.878C165.664 451.73 165.813 451.655 165.962 451.655Z" fill="#A9A9AA" fill-opacity="0.4"/>
<path d="M29.4539 329.484C29.9746 329.484 30.4209 329.633 30.8672 329.856L57.0483 345.08C57.4946 345.303 57.7178 345.675 57.7178 346.12C57.7178 346.491 57.4946 346.863 57.0483 347.16L31.0159 362.162C30.1977 362.607 29.0077 362.607 28.1895 362.162L2.00827 346.937C1.562 346.714 1.33893 346.343 1.33893 345.897C1.33893 345.526 1.56199 345.155 2.00826 344.858L28.0407 329.856C28.4126 329.633 28.9333 329.484 29.4539 329.484ZM29.5283 361.642C29.9002 361.642 30.2721 361.568 30.5696 361.419L56.6021 346.417C56.8252 346.269 56.8996 346.12 56.8996 346.046C56.8996 345.897 56.8252 345.823 56.6021 345.674L30.4209 330.45C29.9003 330.153 28.9333 330.153 28.3383 330.45L2.3058 345.452C2.08266 345.6 2.00826 345.674 2.00826 345.823C2.00827 345.972 2.08266 346.046 2.3058 346.194L28.4871 361.419C28.7846 361.568 29.1564 361.642 29.5283 361.642Z" fill="#A9A9AA"/>
<path d="M56.8256 344.858C55.7986 344.858 54.9661 345.423 54.9661 346.12C54.9661 346.818 55.7986 347.383 56.8256 347.383C57.8525 347.383 58.6851 346.818 58.6851 346.12C58.6851 345.423 57.8525 344.858 56.8256 344.858Z" fill="#EE2524"/>
<path d="M29.6772 328.52C28.6502 328.52 27.8177 329.085 27.8177 329.782C27.8177 330.48 28.6502 331.045 29.6772 331.045C30.7041 331.045 31.5366 330.48 31.5366 329.782C31.5366 329.085 30.7041 328.52 29.6772 328.52Z" fill="#EE2524"/>
<path d="M29.7519 360.901C28.725 360.901 27.8925 361.466 27.8925 362.163C27.8925 362.861 28.725 363.426 29.7519 363.426C30.7788 363.426 31.6113 362.861 31.6113 362.163C31.6113 361.466 30.7788 360.901 29.7519 360.901Z" fill="#EE2524"/>
<path d="M1.85977 344.637C0.832817 344.637 0.000305243 345.202 0.000305304 345.9C0.000305365 346.597 0.832817 347.162 1.85977 347.162C2.88673 347.162 3.71924 346.597 3.71924 345.9C3.71924 345.202 2.88673 344.637 1.85977 344.637Z" fill="#EE2524"/>
<path d="M29.4539 341.736C29.9746 341.736 30.4209 341.885 30.8672 342.107L57.0483 357.332C57.4946 357.555 57.7178 357.926 57.7178 358.372C57.7178 358.743 57.4946 359.115 57.0483 359.412L31.0159 374.414C30.1977 374.859 29.0077 374.859 28.1895 374.414L2.00827 359.189C1.562 358.966 1.33893 358.595 1.33893 358.149C1.33893 357.778 1.56199 357.407 2.00826 357.11L28.0407 342.107C28.4126 341.81 28.9333 341.736 29.4539 341.736ZM29.5283 373.894C29.9002 373.894 30.2721 373.82 30.5696 373.671L56.6021 358.669C56.8252 358.521 56.8996 358.446 56.8996 358.298C56.8996 358.149 56.8252 358.075 56.6021 357.926L30.4209 342.702C29.9003 342.404 28.9333 342.404 28.3383 342.702L2.3058 357.704C2.08266 357.852 2.00826 357.926 2.00826 358.075C2.00827 358.224 2.08266 358.298 2.3058 358.446L28.4871 373.671C28.7846 373.82 29.1564 373.894 29.5283 373.894Z" fill="#A9A9AA"/>
<path d="M56.8256 357.035C55.7986 357.035 54.9661 357.601 54.9661 358.298C54.9661 358.995 55.7986 359.561 56.8256 359.561C57.8525 359.561 58.6851 358.995 58.6851 358.298C58.6851 357.601 57.8525 357.035 56.8256 357.035Z" fill="#EE2524"/>
<path d="M29.6774 340.696C28.6504 340.696 27.8179 341.261 27.8179 341.958C27.8179 342.655 28.6504 343.221 29.6774 343.221C30.7044 343.221 31.5369 342.655 31.5369 341.958C31.5369 341.261 30.7044 340.696 29.6774 340.696Z" fill="#EE2524"/>
<path d="M29.7519 373.078C28.725 373.078 27.8925 373.644 27.8925 374.341C27.8925 375.038 28.725 375.604 29.7519 375.604C30.7788 375.604 31.6113 375.038 31.6113 374.341C31.6113 373.644 30.7788 373.078 29.7519 373.078Z" fill="#EE2524"/>
<path d="M1.85977 356.887C0.832817 356.887 0.000305243 357.452 0.000305304 358.15C0.000305365 358.847 0.832817 359.412 1.85977 359.412C2.88673 359.412 3.71924 358.847 3.71924 358.15C3.71924 357.452 2.88673 356.887 1.85977 356.887Z" fill="#EE2524"/>
<path d="M29.454 355.703C29.9746 355.703 30.4209 355.851 30.8672 356.074L57.0483 371.299C57.4946 371.522 57.7178 371.893 57.7178 372.339C57.7178 372.71 57.4946 373.082 57.0483 373.379L31.0159 388.381C30.1977 388.826 29.0077 388.826 28.1896 388.381L2.00832 373.156C1.56205 372.933 1.33899 372.562 1.33899 372.116C1.33899 371.745 1.56205 371.373 2.00832 371.076L28.0408 356.074C28.4127 355.777 28.9333 355.703 29.454 355.703ZM29.5283 387.861C29.9002 387.861 30.2721 387.787 30.5697 387.638L56.6021 372.636C56.8252 372.487 56.8996 372.413 56.8996 372.265C56.8996 372.116 56.8252 372.042 56.6021 371.893L30.4209 356.668C29.9003 356.371 28.9333 356.371 28.3383 356.668L2.30585 371.67C2.08272 371.819 2.00832 371.968 2.00832 372.042C2.00832 372.19 2.08272 372.265 2.30585 372.413L28.4871 387.638C28.7846 387.787 29.1564 387.861 29.5283 387.861Z" fill="#A9A9AA"/>
<path d="M56.8256 371.002C55.7986 371.002 54.9661 371.568 54.9661 372.265C54.9661 372.962 55.7986 373.527 56.8256 373.527C57.8525 373.527 58.6851 372.962 58.6851 372.265C58.6851 371.568 57.8525 371.002 56.8256 371.002Z" fill="#EE2524"/>
<path d="M29.6772 354.66C28.6502 354.66 27.8177 355.226 27.8177 355.923C27.8177 356.62 28.6502 357.186 29.6772 357.186C30.7041 357.186 31.5366 356.62 31.5366 355.923C31.5366 355.226 30.7041 354.66 29.6772 354.66Z" fill="#EE2524"/>
<path d="M29.7519 387.045C28.7249 387.045 27.8924 387.61 27.8924 388.308C27.8924 389.005 28.7249 389.57 29.7519 389.57C30.7788 389.57 31.6113 389.005 31.6113 388.308C31.6113 387.61 30.7788 387.045 29.7519 387.045Z" fill="#EE2524"/>
<path d="M1.85977 370.852C0.832817 370.852 0.000305243 371.417 0.000305304 372.114C0.000305365 372.812 0.832817 373.377 1.85977 373.377C2.88673 373.377 3.71924 372.812 3.71924 372.114C3.71924 371.417 2.88673 370.852 1.85977 370.852Z" fill="#EE2524"/>
<path d="M329.375 121.016C329.449 121.016 329.523 121.016 329.598 121.09L349.606 132.899C349.754 132.973 349.754 133.122 349.754 133.196L349.754 149.832C349.754 150.055 349.606 150.203 349.383 150.203C349.159 150.203 349.011 150.055 349.011 149.832L349.011 133.419L329.746 121.981L329.746 138.469C329.746 138.692 329.598 138.84 329.375 138.84C329.151 138.84 329.003 138.692 329.003 138.469L329.003 121.313C329.003 121.164 329.077 121.09 329.226 121.016C329.226 121.016 329.3 121.016 329.375 121.016Z" fill="#A9A9AA" fill-opacity="0.4"/>
<path d="M219.603 0.999004C219.676 0.999004 219.748 0.998989 219.821 1.07197L330.105 69.1576C330.178 69.2305 330.25 69.3765 330.25 69.4495L330.25 122.21C330.25 122.356 330.178 122.429 330.033 122.502L306.975 135.857L307.41 152.057L329.67 138.776C329.815 138.703 329.888 138.703 330.033 138.776L349.537 149.868C349.682 149.941 349.755 150.087 349.755 150.16C349.755 150.306 349.682 150.379 349.61 150.452L326.552 164.025C326.407 164.098 326.335 164.098 326.19 164.025L307.265 153.006L281.09 168.622C280.945 168.695 280.727 168.695 280.582 168.476C280.51 168.33 280.51 168.112 280.727 167.966L306.758 152.422L306.323 135.638C306.323 135.492 306.395 135.346 306.54 135.346L329.598 121.991L329.598 69.6684L219.458 1.6558C219.313 1.58282 219.241 1.29097 219.313 1.14502C219.313 1.07203 219.458 0.999004 219.603 0.999004ZM348.667 150.16L329.888 139.505L307.918 152.641L326.335 163.368L348.667 150.16Z" fill="#A9A9AA" fill-opacity="0.4"/>
<path d="M325.731 163.274C325.805 163.274 325.879 163.274 325.954 163.349L365.151 186.149L374.969 180.43C375.118 180.356 375.341 180.356 375.49 180.579C375.564 180.727 375.564 180.95 375.341 181.099L365.3 186.966C365.151 187.04 365.077 187.04 364.928 186.966L325.507 164.017C325.359 163.943 325.284 163.72 325.359 163.497C325.433 163.349 325.582 163.274 325.731 163.274Z" fill="#A9A9AA" fill-opacity="0.4"/>
<path d="M307.554 400.802C308.149 400.802 308.669 400.951 309.116 401.173L339.611 418.923C340.057 419.22 340.355 419.592 340.355 420.037C340.355 420.483 340.057 420.929 339.611 421.151L309.265 438.604C308.372 439.124 306.959 439.124 306.066 438.604L275.571 420.854C275.125 420.557 274.827 420.186 274.827 419.74C274.827 419.295 275.125 418.849 275.571 418.626L305.917 401.173C306.364 400.876 306.959 400.802 307.554 400.802ZM307.628 438.233C308.074 438.233 308.521 438.159 308.893 437.936L339.239 420.557C339.462 420.409 339.611 420.26 339.611 420.037C339.611 419.889 339.462 419.666 339.239 419.517L308.744 401.768C308.074 401.396 306.959 401.396 306.289 401.768L275.943 419.22C275.72 419.369 275.571 419.517 275.571 419.74C275.571 419.889 275.72 420.112 275.943 420.26L306.438 438.01C306.736 438.159 307.182 438.233 307.628 438.233Z" fill="#A9A9AA"/>
<path d="M339.462 418.551C338.271 418.551 337.305 419.216 337.305 420.036C337.305 420.856 338.271 421.521 339.462 421.521C340.653 421.521 341.619 420.856 341.619 420.036C341.619 419.216 340.653 418.551 339.462 418.551Z" fill="#A70001"/>
<path d="M307.777 399.535C306.586 399.535 305.62 400.2 305.62 401.021C305.62 401.841 306.586 402.506 307.777 402.506C308.968 402.506 309.934 401.841 309.934 401.021C309.934 400.2 308.968 399.535 307.777 399.535Z" fill="#A70001"/>
<path d="M307.926 437.266C306.734 437.266 305.769 437.931 305.769 438.751C305.769 439.571 306.734 440.236 307.926 440.236C309.117 440.236 310.083 439.571 310.083 438.751C310.083 437.931 309.117 437.266 307.926 437.266Z" fill="#A70001"/>
<path d="M275.422 418.328C274.231 418.328 273.265 418.993 273.265 419.813C273.265 420.634 274.231 421.299 275.422 421.299C276.613 421.299 277.579 420.634 277.579 419.813C277.579 418.993 276.613 418.328 275.422 418.328Z" fill="#A70001"/>
<path d="M307.554 414.988C308.149 414.988 308.669 415.136 309.116 415.359L339.611 433.109C340.057 433.406 340.355 433.777 340.355 434.223C340.355 434.669 340.057 435.114 339.611 435.337L309.264 452.79C308.372 453.31 306.959 453.31 306.066 452.79L275.571 435.04C275.125 434.743 274.827 434.371 274.827 433.926C274.827 433.48 275.125 433.035 275.571 432.812L305.917 415.359C306.364 415.136 306.959 414.988 307.554 414.988ZM307.628 452.493C308.074 452.493 308.521 452.418 308.893 452.196L339.239 434.743C339.462 434.594 339.611 434.446 339.611 434.223C339.611 434.074 339.462 433.852 339.239 433.703L308.744 416.027C308.074 415.656 306.959 415.656 306.289 416.027L275.943 433.48C275.72 433.629 275.571 433.777 275.571 434C275.571 434.149 275.72 434.371 275.943 434.52L306.438 452.27C306.736 452.418 307.182 452.493 307.628 452.493Z" fill="#A9A9AA"/>
<path d="M339.462 432.811C338.271 432.811 337.305 433.476 337.305 434.296C337.305 435.116 338.271 435.781 339.462 435.781C340.653 435.781 341.619 435.116 341.619 434.296C341.619 433.476 340.653 432.811 339.462 432.811Z" fill="#A70001"/>
<path d="M307.777 413.797C306.586 413.797 305.62 414.462 305.62 415.282C305.62 416.103 306.586 416.768 307.777 416.768C308.968 416.768 309.934 416.103 309.934 415.282C309.934 414.462 308.968 413.797 307.777 413.797Z" fill="#A70001"/>
<path d="M307.926 451.525C306.734 451.525 305.769 452.19 305.769 453.011C305.769 453.831 306.734 454.496 307.926 454.496C309.117 454.496 310.083 453.831 310.083 453.011C310.083 452.19 309.117 451.525 307.926 451.525Z" fill="#A70001"/>
<path d="M275.422 432.588C274.231 432.588 273.265 433.253 273.265 434.073C273.265 434.894 274.231 435.559 275.422 435.559C276.614 435.559 277.579 434.894 277.579 434.073C277.579 433.253 276.614 432.588 275.422 432.588Z" fill="#A70001"/>
<g opacity="0.4">
<path d="M260.396 329.503C260.471 329.503 260.545 329.503 260.545 329.578L324.362 366.043C324.511 366.117 324.585 366.266 324.585 366.34L324.585 410.01C324.585 410.232 324.436 410.381 324.213 410.381C323.99 410.381 323.841 410.232 323.841 410.01L323.841 366.563L260.471 330.246L234.438 346.139C234.289 346.214 234.066 346.214 233.918 345.991C233.769 345.768 233.843 345.62 234.066 345.471L260.322 329.429C260.322 329.504 260.322 329.503 260.396 329.503Z" fill="#A9A9AA"/>
</g>
<path d="M260.397 304.625C260.472 304.625 260.546 304.625 260.546 304.699L279.513 315.543C279.661 315.617 279.736 315.84 279.661 316.062C279.587 316.211 279.364 316.285 279.141 316.211L260.695 305.665L260.695 372.209C260.695 372.432 260.546 372.58 260.323 372.58C260.1 372.58 259.951 372.432 259.951 372.209L259.951 304.997C259.951 304.848 260.026 304.774 260.1 304.699C260.323 304.625 260.323 304.625 260.397 304.625Z" fill="#A9A9AA"/>
<path d="M359.543 333.07C359.766 333.07 359.915 333.218 359.915 333.441L359.915 483.313C359.915 483.462 359.84 483.536 359.691 483.61C359.543 483.685 359.468 483.685 359.32 483.61L306.957 453.235C306.808 453.161 306.734 452.938 306.808 452.715C306.882 452.566 307.106 452.492 307.329 452.566L359.171 482.645L359.171 333.367C359.171 333.218 359.394 333.07 359.543 333.07Z" fill="#A9A9AA"/>
<path d="M215.484 261.378C215.558 261.378 215.633 261.378 215.633 261.453L279.411 297.918C279.56 297.992 279.634 298.141 279.634 298.215L279.634 341.885C279.634 342.107 279.485 342.256 279.262 342.256C279.039 342.256 278.891 342.107 278.891 341.885L278.891 298.438L215.558 262.121L189.541 278.014C189.393 278.089 189.17 278.089 189.021 277.866C188.872 277.643 188.947 277.495 189.17 277.346L215.41 261.304C215.41 261.378 215.41 261.378 215.484 261.378Z" fill="#A9A9AA"/>
<path d="M215.485 235.762C215.559 235.762 215.634 235.762 215.634 235.836L234.589 246.679C234.737 246.754 234.812 246.976 234.737 247.199C234.663 247.348 234.44 247.422 234.217 247.348L215.782 236.802L215.782 303.345C215.782 303.568 215.634 303.717 215.411 303.717C215.188 303.717 215.039 303.568 215.039 303.345L215.039 236.133C215.039 235.985 215.113 235.91 215.188 235.836C215.411 235.762 215.411 235.762 215.485 235.762Z" fill="#A9A9AA"/>
<path d="M215.484 235.762C215.633 235.762 215.707 235.837 215.781 235.911C215.856 236.059 215.856 236.282 215.633 236.431L189.616 252.027L189.616 421.654C189.616 421.877 189.467 422.025 189.244 422.025C189.021 422.025 188.873 421.877 188.873 421.654L188.873 251.804C188.873 251.656 188.947 251.581 189.021 251.507L215.261 235.837C215.41 235.762 215.41 235.762 215.484 235.762Z" fill="#A9A9AA"/>
<path d="M280.452 122.798C280.354 122.798 280.256 122.798 280.256 122.7L149.646 47.2246C149.45 47.1264 149.351 46.832 149.45 46.5375C149.548 46.3412 149.843 46.2431 150.138 46.3412L280.747 121.817C280.944 121.915 281.042 122.209 280.944 122.504C280.747 122.7 280.551 122.798 280.452 122.798Z" fill="#A9A9AA"/>
<path d="M199.661 75.6191C199.438 75.6191 199.289 75.4705 199.289 75.2475V34.2964C199.289 34.1477 199.364 34.0734 199.438 33.9991C199.512 33.9248 199.661 33.9248 199.81 33.9991L209.631 39.5732C209.78 39.6475 209.854 39.7961 209.854 39.8705V49.3093C209.854 49.4579 209.78 49.5323 209.705 49.6066C209.556 49.6809 209.482 49.6809 209.333 49.6066L200.033 44.4784V75.3218C200.033 75.4704 199.884 75.6191 199.661 75.6191ZM200.033 43.5865L209.11 48.6404V40.0191L200.033 34.891V43.5865Z" fill="#A9A9AA"/>
<path d="M209.556 49.6805C209.407 49.6805 209.333 49.6062 209.259 49.5319C209.184 49.3833 209.184 49.1603 209.407 49.0117L219.377 42.9173V1.37161C219.377 1.14864 219.526 1 219.749 1C219.972 1 220.121 1.14864 220.121 1.37161V43.1403C220.121 43.2889 220.047 43.3633 219.972 43.4376L209.854 49.6062C209.705 49.6062 209.631 49.6805 209.556 49.6805Z" fill="#A9A9AA"/>
<path d="M209.557 40.2407C209.408 40.2407 209.334 40.1664 209.259 40.0178C209.185 39.8691 209.185 39.6462 209.408 39.4975L219.006 33.9978L210.003 28.7209L199.959 34.5923C199.811 34.6666 199.587 34.6666 199.439 34.4437C199.364 34.295 199.364 34.0721 199.587 33.9234L209.78 27.9034C209.929 27.8291 210.078 27.8291 210.152 27.9034L219.899 33.6262C220.048 33.7005 220.048 33.8491 220.048 33.9234C220.048 34.0721 219.973 34.1464 219.824 34.2207L209.706 40.0178C209.706 40.1664 209.631 40.2407 209.557 40.2407Z" fill="#A9A9AA"/>
</svg>
