<svg width="499" height="657" viewBox="0 0 499 657" fill="none" xmlns="http://www.w3.org/2000/svg">
<path d="M130.037 398.097C115.729 398.097 103.321 391.597 100.52 382.597C100.119 381.497 99.9193 380.297 99.9193 379.097C99.9193 378.997 99.9193 378.897 99.9193 378.697C99.9193 367.997 113.427 359.297 130.037 359.297C146.547 359.297 159.755 367.597 160.156 378.197V379.197C160.156 380.297 159.955 381.497 159.555 382.597C156.653 391.597 144.246 398.097 130.037 398.097ZM130.037 360.197C113.928 360.197 100.92 368.497 100.92 378.597C100.92 378.697 100.92 378.797 100.92 378.897C100.92 380.097 101.12 381.197 101.42 382.197C104.122 390.797 116.129 396.997 130.037 396.997C143.846 396.997 155.953 390.797 158.655 382.197C158.955 381.097 159.155 380.097 159.155 379.097V378.197C158.755 368.297 145.647 360.197 130.037 360.197Z" fill="#A9A9AA" fill-opacity="0.4"/>
<path d="M130.037 382.698C115.729 382.698 103.321 376.198 100.52 367.198C100.119 366.098 99.9193 364.898 99.9193 363.698C99.9193 363.598 99.9193 363.498 99.9193 363.298C99.9193 352.598 113.427 343.898 130.037 343.898C146.547 343.898 159.755 352.198 160.156 362.798V363.798C160.156 364.898 159.955 366.098 159.555 367.198C156.653 376.198 144.246 382.698 130.037 382.698ZM130.037 344.798C113.928 344.798 100.92 353.098 100.92 363.198C100.92 363.298 100.92 363.398 100.92 363.498C100.92 364.698 101.12 365.798 101.42 366.798C104.122 375.398 116.129 381.598 130.037 381.598C143.846 381.598 155.953 375.398 158.655 366.798C158.955 365.698 159.155 364.698 159.155 363.698V362.798C158.755 352.898 145.647 344.798 130.037 344.798Z" fill="#A9A9AA" fill-opacity="0.4"/>
<path d="M223.292 571.498C213.686 571.498 205.281 567.098 203.28 560.998C203.08 560.198 202.88 559.398 202.88 558.598C202.88 558.498 202.88 558.398 202.88 558.298C202.88 550.998 211.985 545.098 223.292 545.098C234.399 545.098 243.404 550.698 243.704 557.998V558.598C243.704 559.398 243.504 560.198 243.304 560.898C241.403 567.098 232.998 571.498 223.292 571.498ZM223.292 546.098C212.585 546.098 203.88 551.598 203.88 558.298C203.88 558.398 203.88 558.398 203.88 558.498C203.88 559.298 203.98 559.998 204.28 560.698C206.082 566.398 214.086 570.498 223.292 570.498C232.497 570.498 240.502 566.398 242.303 560.698C242.503 559.998 242.603 559.298 242.704 558.598V557.998C242.403 551.398 233.798 546.098 223.292 546.098Z" fill="#A9A9AA"/>
<path d="M223.292 561.197C213.686 561.197 205.281 556.797 203.28 550.697C203.08 549.897 202.88 549.097 202.88 548.297C202.88 548.197 202.88 548.097 202.88 547.997C202.88 540.697 211.985 534.797 223.292 534.797C234.399 534.797 243.404 540.397 243.704 547.697V548.297C243.704 549.097 243.504 549.897 243.304 550.597C241.403 556.797 232.998 561.197 223.292 561.197ZM223.292 535.797C212.585 535.797 203.88 541.297 203.88 547.997C203.88 548.097 203.88 548.097 203.88 548.197C203.88 548.997 203.98 549.697 204.28 550.397C206.082 556.097 214.086 560.197 223.292 560.197C232.497 560.197 240.502 556.097 242.303 550.397C242.503 549.697 242.603 548.997 242.704 548.297V547.697C242.403 541.097 233.798 535.797 223.292 535.797Z" fill="#A9A9AA"/>
<path d="M130.037 366.3C115.729 366.3 103.321 359.8 100.52 350.8C100.119 349.7 99.9193 348.5 99.9193 347.3C99.9193 347.2 99.9193 347.1 99.9193 346.9C99.9193 336.2 113.427 327.5 130.037 327.5C146.547 327.5 159.755 335.8 160.156 346.4V347.4C160.156 348.5 159.955 349.7 159.555 350.8C156.653 359.8 144.246 366.3 130.037 366.3ZM130.037 328.4C113.928 328.4 100.92 336.7 100.92 346.8C100.92 346.9 100.92 347 100.92 347.1C100.92 348.3 101.12 349.4 101.42 350.4C104.122 359 116.129 365.2 130.037 365.2C143.846 365.2 155.953 359 158.655 350.4C158.955 349.3 159.155 348.3 159.155 347.3V346.4C158.755 336.5 145.647 328.4 130.037 328.4Z" fill="#A9A9AA" fill-opacity="0.4"/>
<path d="M129.937 328.5C129.637 328.5 129.437 328.389 129.437 328.223V286.277C129.437 286.111 129.637 286 129.937 286C130.237 286 130.437 286.111 130.437 286.277V328.223C130.437 328.389 130.237 328.5 129.937 328.5Z" fill="#A9A9AA" fill-opacity="0.4"/>
<path d="M210.087 538.598C209.987 538.598 209.887 538.598 209.787 538.498L129.739 489.998C129.639 489.898 129.539 489.698 129.539 489.598V397.598C129.539 397.298 129.739 397.098 130.039 397.098C130.339 397.098 130.539 397.298 130.539 397.598V489.298L210.387 537.698C210.587 537.798 210.687 538.198 210.587 538.398C210.387 538.598 210.187 538.598 210.087 538.598Z" fill="#A9A9AA"/>
<path d="M372.784 428.3C372.684 428.3 372.584 428.3 372.484 428.2L129.438 286.9C129.238 286.8 129.138 286.5 129.238 286.2C129.338 286 129.638 285.9 129.938 286L372.184 426.9V353.8L351.171 341.3C350.971 341.2 350.971 341 350.971 340.9V274C350.971 273.8 351.071 273.7 351.271 273.6C351.471 273.5 351.571 273.5 351.772 273.6L372.684 285.8L406.704 265.7C406.904 265.6 407.005 265.6 407.205 265.7C407.405 265.8 407.505 266 407.505 266.1V333.7C407.505 333.9 407.405 334 407.205 334.1L373.184 353.7V427.6C373.184 427.8 373.084 427.9 372.884 428C372.984 428.3 372.884 428.3 372.784 428.3ZM373.284 286.8V352.7L406.504 333.5V267L373.284 286.8ZM352.072 340.7L372.284 352.7V286.8L352.072 275V340.7Z" fill="#A9A9AA" fill-opacity="0.4"/>
<path d="M372.482 317.298C372.382 317.298 372.281 317.298 372.181 317.198L351.169 304.898C350.969 304.798 350.869 304.498 350.969 304.198C351.069 303.998 351.369 303.898 351.669 303.998L372.382 316.098L406.602 295.298C406.802 295.198 407.102 295.198 407.303 295.498C407.403 295.698 407.403 295.998 407.102 296.198L372.582 317.198C372.682 317.298 372.582 317.298 372.482 317.298Z" fill="#A9A9AA" fill-opacity="0.4"/>
<path d="M351.569 274.598C351.369 274.598 351.269 274.498 351.169 274.399C351.069 274.198 351.069 273.898 351.369 273.698L385.79 253.598C385.99 253.498 386.09 253.498 386.29 253.598L407.303 265.898C407.503 265.998 407.603 266.298 407.503 266.598C407.403 266.798 407.103 266.898 406.802 266.798L385.99 254.698L351.769 274.698C351.769 274.598 351.669 274.598 351.569 274.598Z" fill="#A9A9AA" fill-opacity="0.4"/>
<path d="M258.416 471.399C258.316 471.399 258.216 471.399 258.116 471.299L229.299 454.299C229.099 454.199 229.098 453.999 229.098 453.899V431.599C229.098 431.499 229.099 431.399 229.199 431.299C229.199 431.199 229.299 431.199 229.399 431.099L304.544 387.099C304.744 386.999 305.044 386.999 305.244 387.299C305.344 387.499 305.344 387.799 305.044 387.999L230.599 431.499L258.716 448.799C258.816 448.899 258.916 449.099 258.916 449.199V470.699C258.916 470.899 258.816 470.999 258.616 471.099C258.616 471.399 258.516 471.399 258.416 471.399ZM230.099 453.699L257.916 470.099V449.699L230.099 432.599V453.699Z" fill="#A9A9AA" fill-opacity="0.4"/>
<path d="M437.422 574.775C437.322 574.775 437.222 574.775 437.222 574.675L258.515 471.975C258.315 471.875 258.315 471.675 258.215 471.575C258.215 471.375 258.315 471.275 258.415 471.175L289.734 452.775V432.475L258.915 450.475C258.715 450.575 258.415 450.575 258.215 450.275C258.115 450.075 258.115 449.775 258.415 449.575L289.934 431.075C290.134 430.975 290.234 430.975 290.434 431.075C290.634 431.175 290.734 431.375 290.734 431.475V452.875C290.734 453.075 290.634 453.175 290.534 453.275L259.716 471.375L437.623 573.675C437.823 573.775 437.923 574.075 437.823 574.375C437.723 574.775 437.522 574.775 437.422 574.775Z" fill="#A9A9AA"/>
<path d="M289.934 431.397C289.834 431.397 289.733 431.397 289.733 431.297L260.216 414.197C260.016 414.097 259.916 413.797 260.016 413.497C260.116 413.297 260.416 413.197 260.716 413.297L290.234 430.397C290.434 430.497 290.534 430.797 290.434 431.097C290.334 431.297 290.134 431.397 289.934 431.397Z" fill="#A9A9AA" fill-opacity="0.4"/>
<path d="M458.575 641.899C457.874 641.899 457.274 641.699 456.673 641.399L421.452 620.899C420.852 620.599 420.552 620.099 420.552 619.499C420.552 618.999 420.852 618.499 421.452 618.099L456.473 597.899C457.574 597.299 459.175 597.299 460.275 597.899L495.497 618.399C496.097 618.699 496.397 619.199 496.397 619.799C496.397 620.299 496.097 620.799 495.497 621.199L460.476 641.399C459.975 641.699 459.275 641.899 458.575 641.899ZM458.474 598.599C457.974 598.599 457.474 598.699 457.074 598.899L422.053 619.099C421.752 619.299 421.652 619.499 421.652 619.599C421.652 619.799 421.752 619.899 422.053 620.099L457.274 640.599C457.974 640.999 459.275 640.999 460.075 640.599L495.096 620.399C495.397 620.199 495.497 620.099 495.497 619.899C495.497 619.699 495.397 619.599 495.096 619.399L459.875 598.899C459.475 598.699 458.975 598.599 458.474 598.599Z" fill="#A9A9AA"/>
<path d="M421.753 621.201C423.135 621.201 424.255 620.44 424.255 619.501C424.255 618.562 423.135 617.801 421.753 617.801C420.372 617.801 419.252 618.562 419.252 619.501C419.252 620.44 420.372 621.201 421.753 621.201Z" fill="#EE2524"/>
<path d="M458.275 643.201C459.657 643.201 460.777 642.44 460.777 641.501C460.777 640.562 459.657 639.801 458.275 639.801C456.894 639.801 455.774 640.562 455.774 641.501C455.774 642.44 456.894 643.201 458.275 643.201Z" fill="#EE2524"/>
<path d="M458.175 599.599C459.557 599.599 460.677 598.838 460.677 597.899C460.677 596.96 459.557 596.199 458.175 596.199C456.793 596.199 455.674 596.96 455.674 597.899C455.674 598.838 456.793 599.599 458.175 599.599Z" fill="#EE2524"/>
<path d="M495.698 621.498C497.079 621.498 498.199 620.736 498.199 619.798C498.199 618.859 497.079 618.098 495.698 618.098C494.316 618.098 493.196 618.859 493.196 619.798C493.196 620.736 494.316 621.498 495.698 621.498Z" fill="#EE2524"/>
<path d="M458.575 625.399C457.874 625.399 457.274 625.199 456.673 624.899L421.452 604.399C420.852 604.099 420.552 603.599 420.552 602.999C420.552 602.499 420.852 601.999 421.452 601.599L456.473 581.399C457.574 580.799 459.175 580.799 460.275 581.399L495.497 601.899C496.097 602.199 496.397 602.699 496.397 603.299C496.397 603.799 496.097 604.299 495.497 604.699L460.476 624.899C459.975 625.299 459.275 625.399 458.575 625.399ZM458.474 582.099C457.974 582.099 457.474 582.199 457.074 582.399L422.053 602.599C421.752 602.799 421.652 602.899 421.652 603.099C421.652 603.299 421.752 603.399 422.053 603.599L457.274 624.099C457.974 624.499 459.275 624.499 460.075 624.099L495.096 603.899C495.397 603.699 495.497 603.599 495.497 603.399C495.497 603.199 495.397 603.099 495.096 602.899L459.875 582.399C459.475 582.199 458.975 582.099 458.474 582.099Z" fill="#A9A9AA"/>
<path d="M421.753 604.802C423.135 604.802 424.255 604.041 424.255 603.102C424.255 602.163 423.135 601.402 421.753 601.402C420.372 601.402 419.252 602.163 419.252 603.102C419.252 604.041 420.372 604.802 421.753 604.802Z" fill="#EE2524"/>
<path d="M458.275 626.802C459.657 626.802 460.777 626.041 460.777 625.102C460.777 624.163 459.657 623.402 458.275 623.402C456.894 623.402 455.774 624.163 455.774 625.102C455.774 626.041 456.894 626.802 458.275 626.802Z" fill="#EE2524"/>
<path d="M458.175 583.201C459.557 583.201 460.677 582.44 460.677 581.501C460.677 580.562 459.557 579.801 458.175 579.801C456.793 579.801 455.674 580.562 455.674 581.501C455.674 582.44 456.793 583.201 458.175 583.201Z" fill="#EE2524"/>
<path d="M495.698 605.002C497.079 605.002 498.199 604.24 498.199 603.302C498.199 602.363 497.079 601.602 495.698 601.602C494.316 601.602 493.196 602.363 493.196 603.302C493.196 604.24 494.316 605.002 495.698 605.002Z" fill="#EE2524"/>
<path d="M458.575 606.598C457.874 606.598 457.274 606.398 456.673 606.098L421.452 585.598C420.852 585.298 420.552 584.798 420.552 584.198C420.552 583.698 420.852 583.198 421.452 582.798L456.473 562.598C457.574 561.998 459.175 561.998 460.275 562.598L495.497 583.098C496.097 583.398 496.397 583.898 496.397 584.498C496.397 584.998 496.097 585.498 495.497 585.898L460.476 606.098C459.975 606.498 459.275 606.598 458.575 606.598ZM458.474 563.298C457.974 563.298 457.474 563.398 457.074 563.598L422.053 583.798C421.752 583.998 421.652 584.098 421.652 584.298C421.652 584.498 421.752 584.598 422.053 584.798L457.274 605.298C457.974 605.698 459.275 605.698 460.075 605.298L495.096 585.098C495.397 584.898 495.497 584.698 495.497 584.598C495.497 584.398 495.397 584.298 495.096 584.098L459.875 563.598C459.475 563.398 458.975 563.298 458.474 563.298Z" fill="#A9A9AA"/>
<path d="M421.753 586.002C423.135 586.002 424.255 585.24 424.255 584.302C424.255 583.363 423.135 582.602 421.753 582.602C420.372 582.602 419.252 583.363 419.252 584.302C419.252 585.24 420.372 586.002 421.753 586.002Z" fill="#EE2524"/>
<path d="M458.275 608.002C459.657 608.002 460.777 607.24 460.777 606.302C460.777 605.363 459.657 604.602 458.275 604.602C456.894 604.602 455.774 605.363 455.774 606.302C455.774 607.24 456.894 608.002 458.275 608.002Z" fill="#EE2524"/>
<path d="M458.175 564.4C459.557 564.4 460.677 563.639 460.677 562.7C460.677 561.761 459.557 561 458.175 561C456.793 561 455.674 561.761 455.674 562.7C455.674 563.639 456.793 564.4 458.175 564.4Z" fill="#EE2524"/>
<path d="M495.698 586.201C497.079 586.201 498.199 585.44 498.199 584.501C498.199 583.562 497.079 582.801 495.698 582.801C494.316 582.801 493.196 583.562 493.196 584.501C493.196 585.44 494.316 586.201 495.698 586.201Z" fill="#EE2524"/>
<path d="M62.0974 491.3C61.9974 491.3 61.8973 491.3 61.7972 491.2L34.881 475.3C34.6809 475.2 34.681 475 34.681 474.9V452.5C34.681 452.2 34.8811 452 35.1813 452C35.4814 452 35.6816 452.2 35.6816 452.5V474.6L61.5971 490V467.8C61.5971 467.5 61.7973 467.3 62.0974 467.3C62.3976 467.3 62.5977 467.5 62.5977 467.8V490.9C62.5977 491.1 62.4976 491.2 62.2975 491.3C62.2975 491.3 62.1975 491.3 62.0974 491.3Z" fill="#A9A9AA" fill-opacity="0.4"/>
<path d="M214.289 656.901C214.189 656.901 214.089 656.901 213.989 656.801L61.7972 563.5C61.6972 563.4 61.5971 563.2 61.5971 563.1V490.801C61.5971 490.601 61.6971 490.5 61.8973 490.4L93.7164 472.1L93.1161 449.9L62.3976 468.1C62.1974 468.2 62.0974 468.2 61.8973 468.1L34.9811 452.9C34.781 452.8 34.681 452.6 34.681 452.5C34.681 452.3 34.781 452.2 34.881 452.1L66.7002 433.5C66.9003 433.4 67.0004 433.4 67.2005 433.5L93.3161 448.6L129.438 427.2C129.638 427.1 129.938 427.1 130.138 427.4C130.238 427.6 130.238 427.9 129.938 428.1L94.0165 449.4L94.617 472.4C94.617 472.6 94.5169 472.801 94.3167 472.801L62.4976 491.1V562.801L214.489 656C214.689 656.1 214.789 656.5 214.689 656.7C214.689 656.8 214.489 656.901 214.289 656.901ZM36.1819 452.5L62.0975 467.1L92.4156 449.1L67.0003 434.4L36.1819 452.5Z" fill="#A9A9AA" fill-opacity="0.4"/>
<path d="M66.9999 434.397C66.8999 434.397 66.7999 434.397 66.6998 434.297L13.9681 403.597L0.76023 411.297C0.56011 411.397 0.259979 411.397 0.0598584 411.097C-0.0402017 410.897 -0.0402505 410.597 0.25993 410.397L13.768 402.497C13.9682 402.397 14.0682 402.397 14.2683 402.497L67.3002 433.397C67.5003 433.497 67.6003 433.797 67.5002 434.097C67.4002 434.297 67.2001 434.397 66.9999 434.397Z" fill="#A9A9AA" fill-opacity="0.4"/>
<path d="M91.4525 111.573C90.6521 111.573 89.9516 111.373 89.3513 111.073L48.3267 87.1734C47.7263 86.7734 47.326 86.2734 47.326 85.6734C47.326 85.0734 47.7263 84.4734 48.3267 84.1734L89.1512 60.6734C90.3519 59.9734 92.253 59.9734 93.4537 60.6734L134.478 84.5734C135.079 84.9734 135.479 85.4734 135.479 86.0734C135.479 86.6734 135.079 87.2734 134.478 87.5734L93.6539 111.073C93.0535 111.473 92.253 111.573 91.4525 111.573ZM91.3525 61.1734C90.7521 61.1734 90.1518 61.2734 89.6515 61.5734L48.827 84.9734C48.5268 85.1734 48.3267 85.3734 48.3267 85.6734C48.3267 85.8734 48.5268 86.1734 48.827 86.3734L89.8516 110.273C90.7521 110.773 92.253 110.773 93.1536 110.273L133.978 86.7734C134.278 86.5734 134.478 86.3734 134.478 86.0734C134.478 85.8734 134.278 85.5734 133.978 85.3734L92.9534 61.4734C92.5532 61.2734 91.9528 61.1734 91.3525 61.1734Z" fill="#A9A9AA"/>
<path d="M48.5268 87.6719C50.1294 87.6719 51.4285 86.7764 51.4285 85.6719C51.4285 84.5673 50.1294 83.6719 48.5268 83.6719C46.9242 83.6719 45.625 84.5673 45.625 85.6719C45.625 86.7764 46.9242 87.6719 48.5268 87.6719Z" fill="#A70001"/>
<path d="M91.1524 113.273C92.755 113.273 94.0541 112.378 94.0541 111.273C94.0541 110.169 92.755 109.273 91.1524 109.273C89.5498 109.273 88.2506 110.169 88.2506 111.273C88.2506 112.378 89.5498 113.273 91.1524 113.273Z" fill="#A70001"/>
<path d="M90.9522 62.4727C92.5548 62.4727 93.854 61.5772 93.854 60.4727C93.854 59.3681 92.5548 58.4727 90.9522 58.4727C89.3496 58.4727 88.0505 59.3681 88.0505 60.4727C88.0505 61.5772 89.3496 62.4727 90.9522 62.4727Z" fill="#A70001"/>
<path d="M134.678 87.9727C136.281 87.9727 137.58 87.0772 137.58 85.9727C137.58 84.8681 136.281 83.9727 134.678 83.9727C133.076 83.9727 131.777 84.8681 131.777 85.9727C131.777 87.0772 133.076 87.9727 134.678 87.9727Z" fill="#A70001"/>
<path d="M91.4525 92.4719C90.6521 92.4719 89.9516 92.2719 89.3513 91.9719L48.3267 68.0719C47.7263 67.6719 47.326 67.1719 47.326 66.5719C47.326 65.9719 47.7263 65.3719 48.3267 65.0719L89.1512 41.5719C90.3519 40.8719 92.253 40.8719 93.4537 41.5719L134.478 65.4719C135.079 65.8719 135.479 66.3719 135.479 66.9719C135.479 67.5719 135.079 68.1719 134.478 68.4719L93.6539 91.9719C93.0535 92.2719 92.253 92.4719 91.4525 92.4719ZM91.3525 41.9719C90.7521 41.9719 90.1518 42.0719 89.6515 42.3719L48.827 65.8719C48.5268 66.0719 48.3267 66.2719 48.3267 66.5719C48.3267 66.7719 48.5268 67.0719 48.827 67.2719L89.8516 91.0719C90.7521 91.5719 92.253 91.5719 93.1536 91.0719L133.978 67.5719C134.278 67.3719 134.478 67.1719 134.478 66.8719C134.478 66.6719 134.278 66.3719 133.978 66.1719L92.9534 42.2719C92.5532 42.0719 91.9528 41.9719 91.3525 41.9719Z" fill="#A9A9AA"/>
<path d="M48.5268 68.4727C50.1294 68.4727 51.4285 67.5772 51.4285 66.4727C51.4285 65.3681 50.1294 64.4727 48.5268 64.4727C46.9242 64.4727 45.625 65.3681 45.625 66.4727C45.625 67.5772 46.9242 68.4727 48.5268 68.4727Z" fill="#A70001"/>
<path d="M91.1524 94.0742C92.755 94.0742 94.0541 93.1788 94.0541 92.0742C94.0541 90.9696 92.755 90.0742 91.1524 90.0742C89.5498 90.0742 88.2506 90.9696 88.2506 92.0742C88.2506 93.1788 89.5498 94.0742 91.1524 94.0742Z" fill="#A70001"/>
<path d="M90.9522 43.2734C92.5548 43.2734 93.854 42.378 93.854 41.2734C93.854 40.1689 92.5548 39.2734 90.9522 39.2734C89.3496 39.2734 88.0505 40.1689 88.0505 41.2734C88.0505 42.378 89.3496 43.2734 90.9522 43.2734Z" fill="#A70001"/>
<path d="M134.678 68.7734C136.281 68.7734 137.58 67.878 137.58 66.7734C137.58 65.6689 136.281 64.7734 134.678 64.7734C133.076 64.7734 131.777 65.6689 131.777 66.7734C131.777 67.878 133.076 68.7734 134.678 68.7734Z" fill="#A70001"/>
<g opacity="0.4">
<path d="M154.893 207.576C154.793 207.576 154.693 207.576 154.693 207.476L68.8413 158.376C68.6412 158.276 68.5411 158.076 68.5411 157.976V99.1758C68.5411 98.8758 68.7413 98.6758 69.0414 98.6758C69.3416 98.6758 69.5417 98.8758 69.5417 99.1758V157.676L154.793 206.576L189.814 185.176C190.014 185.076 190.314 185.076 190.514 185.376C190.714 185.676 190.614 185.876 190.314 186.076L154.993 207.676C154.993 207.576 154.993 207.576 154.893 207.576Z" fill="#A9A9AA"/>
</g>
<path d="M154.892 244.074C154.791 244.074 154.691 244.074 154.691 243.974L129.176 229.374C128.976 229.274 128.876 228.974 128.976 228.674C129.076 228.474 129.376 228.374 129.676 228.474L154.491 242.674V153.074C154.491 152.774 154.691 152.574 154.992 152.574C155.292 152.574 155.492 152.774 155.492 153.074V243.574C155.492 243.774 155.392 243.874 155.292 243.974C154.992 244.074 154.992 244.074 154.892 244.074Z" fill="#A9A9AA"/>
<path d="M21.5129 202.775C21.2127 202.775 21.0126 202.575 21.0126 202.275V0.474994C21.0126 0.274994 21.1127 0.175 21.3128 0.075C21.5129 -0.025 21.613 -0.025 21.8131 0.075L92.2554 40.975C92.4555 41.075 92.5555 41.375 92.4555 41.675C92.3554 41.875 92.0552 41.975 91.7551 41.875L22.0132 1.37499V202.375C22.0132 202.575 21.713 202.775 21.5129 202.775Z" fill="#A9A9AA"/>
<path d="M215.313 302.298C215.213 302.298 215.113 302.298 215.113 302.198L129.313 253.098C129.113 252.998 129.013 252.798 129.013 252.698V193.898C129.013 193.598 129.213 193.398 129.513 193.398C129.813 193.398 130.013 193.598 130.013 193.898V252.398L215.213 301.298L250.213 279.898C250.413 279.798 250.713 279.798 250.913 280.098C251.113 280.398 251.013 280.598 250.713 280.798L215.413 302.398C215.413 302.298 215.413 302.298 215.313 302.298Z" fill="#A9A9AA"/>
<path d="M215.311 336.801C215.211 336.801 215.111 336.801 215.111 336.701L189.611 322.101C189.411 322.001 189.311 321.701 189.411 321.401C189.511 321.201 189.811 321.101 190.111 321.201L214.911 335.401V245.801C214.911 245.501 215.111 245.301 215.411 245.301C215.711 245.301 215.911 245.501 215.911 245.801V336.301C215.911 336.501 215.811 336.601 215.711 336.701C215.411 336.801 215.411 336.801 215.311 336.801Z" fill="#A9A9AA"/>
</svg>
