<svg width="416" height="399" viewBox="0 0 416 399" fill="none" xmlns="http://www.w3.org/2000/svg">
<path d="M245.96 179.475C245.86 179.475 245.76 179.475 245.66 179.375C245.46 179.275 245.46 179.075 245.46 178.975V127.675L228.96 118.675C228.76 118.575 228.66 118.375 228.66 118.275C228.66 118.075 228.76 117.975 228.86 117.875L264.36 97.075C264.46 96.975 264.66 96.975 264.86 97.075L282.56 106.175C282.56 106.175 282.66 106.175 282.66 106.275C282.66 106.275 282.66 106.275 282.76 106.375C282.86 106.475 282.86 106.575 282.86 106.675V158.175C282.86 158.375 282.76 158.475 282.56 158.575L246.06 179.375C246.16 179.375 246.06 179.475 245.96 179.475ZM246.46 127.675V178.075L281.96 157.875V107.475L246.46 127.675ZM230.26 118.175L246.06 126.775L281.36 106.575L264.66 97.975L230.26 118.175Z" fill="#A9A9AA"/>
<g opacity="0.4">
<path d="M0.381964 218C0.215827 218 0.132751 217.917 0.0496821 217.834C-0.0333865 217.668 -0.033389 217.419 0.215817 217.253L161.369 122.05C161.535 121.967 161.784 121.967 161.95 122.216C162.033 122.382 162.033 122.631 161.784 122.797L0.548099 217.917C0.46503 218 0.381964 218 0.381964 218Z" fill="#A9A9AA"/>
</g>
<path d="M78.2601 328.472C65.6601 328.472 54.6602 322.672 52.1602 314.772C51.8602 313.772 51.6602 312.672 51.6602 311.672C51.6602 311.572 51.6602 311.472 51.6602 311.372C51.6602 301.872 63.5601 294.172 78.2601 294.172C92.8601 294.172 104.46 301.572 104.86 310.872V311.772C104.86 312.772 104.66 313.772 104.36 314.772C101.86 322.672 90.8601 328.472 78.2601 328.472ZM78.2601 295.072C64.1601 295.072 52.6602 302.372 52.6602 311.272C52.6602 311.372 52.6602 311.472 52.6602 311.572C52.6602 312.572 52.8602 313.572 53.1602 314.472C55.5602 321.972 66.1601 327.472 78.2601 327.472C90.4601 327.472 100.96 321.972 103.36 314.472C103.66 313.572 103.76 312.572 103.86 311.672V310.872C103.56 302.172 92.0601 295.072 78.2601 295.072Z" fill="#A9A9AA"/>
<path d="M78.2601 308.472C65.6601 308.472 54.6602 302.672 52.1602 294.772C51.8602 293.772 51.6602 292.672 51.6602 291.672C51.6602 291.572 51.6602 291.472 51.6602 291.372C51.6602 281.872 63.5601 274.172 78.2601 274.172C92.8601 274.172 104.46 281.572 104.86 290.872V291.772C104.86 292.772 104.66 293.772 104.36 294.772C101.86 302.672 90.8601 308.472 78.2601 308.472ZM78.2601 275.072C64.1601 275.072 52.6602 282.372 52.6602 291.272C52.6602 291.372 52.6602 291.472 52.6602 291.572C52.6602 292.572 52.8602 293.572 53.1602 294.472C55.5602 301.972 66.1601 307.472 78.2601 307.472C90.4601 307.472 100.96 301.972 103.36 294.472C103.66 293.572 103.76 292.572 103.86 291.772V290.972C103.56 282.172 92.0601 275.072 78.2601 275.072Z" fill="#A9A9AA"/>
<path d="M78.2601 287.573C65.6601 287.573 54.6602 281.773 52.1602 273.873C51.8602 272.873 51.6602 271.773 51.6602 270.773C51.6602 270.673 51.6602 270.573 51.6602 270.473C51.6602 260.973 63.5601 253.273 78.2601 253.273C92.8601 253.273 104.46 260.673 104.86 269.973V270.873C104.86 271.873 104.66 272.873 104.36 273.873C101.86 281.773 90.8601 287.573 78.2601 287.573ZM78.2601 254.173C64.1601 254.173 52.6602 261.473 52.6602 270.373C52.6602 270.473 52.6602 270.573 52.6602 270.673C52.6602 271.673 52.8602 272.673 53.1602 273.573C55.5602 281.073 66.1601 286.573 78.2601 286.573C90.4601 286.573 100.96 281.073 103.36 273.573C103.66 272.673 103.76 271.673 103.86 270.773V269.973C103.56 261.273 92.0601 254.173 78.2601 254.173Z" fill="#A9A9AA"/>
<g opacity="0.4">
<path d="M282.5 306.475C282.2 306.475 282 306.367 282 306.206V227.269C282 227.108 282.2 227 282.5 227C282.8 227 283 227.108 283 227.269V306.206C283 306.367 282.8 306.475 282.5 306.475Z" fill="#A9A9AA"/>
</g>
<path d="M233.5 313C233.2 313 233 312.966 233 312.915V288.085C233 288.034 233.2 288 233.5 288C233.8 288 234 288.034 234 288.085V312.915C234 312.966 233.8 313 233.5 313Z" fill="#A9A9AA"/>
<path d="M263.168 330.775C263.069 330.775 262.97 330.775 262.97 330.675L233.236 313.275C233.039 313.175 232.94 312.875 233.039 312.575C233.138 312.375 233.434 312.275 233.73 312.375L262.772 329.375V305.475L233.236 288.275C233.039 288.175 232.94 287.875 233.039 287.575C233.138 287.375 233.434 287.275 233.73 287.375L263.464 304.675C263.662 304.775 263.76 304.975 263.76 305.075V330.175C263.76 330.375 263.662 330.475 263.563 330.575C263.365 330.775 263.266 330.775 263.168 330.775Z" fill="#A9A9AA"/>
<path d="M263.161 330.775C262.961 330.775 262.861 330.675 262.761 330.575C262.661 330.375 262.661 330.075 262.961 329.875L281.961 318.775V294.875L263.361 305.675C263.161 305.775 262.861 305.775 262.661 305.475C262.561 305.275 262.561 304.975 262.861 304.775L282.061 293.575C282.261 293.475 282.361 293.475 282.561 293.575C282.761 293.675 282.861 293.875 282.861 293.975V319.075C282.861 319.275 282.761 319.375 282.661 319.475L263.361 330.675C263.361 330.775 263.261 330.775 263.161 330.775Z" fill="#A9A9AA"/>
<g opacity="0.4">
<path d="M100.961 262.873C100.661 262.873 100.461 262.673 100.461 262.373V200.073C100.461 199.873 100.561 199.773 100.661 199.673C100.861 199.573 100.961 199.573 101.161 199.673L161.061 234.173V122.773C161.061 122.473 161.261 122.273 161.561 122.273C161.861 122.273 162.061 122.473 162.061 122.773V235.073C162.061 235.273 161.961 235.373 161.861 235.473C161.661 235.573 161.561 235.573 161.361 235.473L101.461 200.973V262.373C101.461 262.673 101.261 262.873 100.961 262.873Z" fill="#A9A9AA"/>
</g>
<g opacity="0.4">
<path d="M161.559 235.575C161.359 235.575 161.259 235.475 161.159 235.375C161.059 235.175 161.059 234.875 161.359 234.675L200.659 211.675V181.375L162.159 204.775C161.959 204.875 161.759 204.875 161.659 204.775L140.359 191.975V222.475C140.359 222.775 140.159 222.975 139.859 222.975C139.559 222.975 139.359 222.775 139.359 222.475V191.175C139.359 190.975 139.459 190.875 139.659 190.775C139.859 190.675 139.959 190.675 140.159 190.775L161.859 203.775L200.859 180.075C201.059 179.975 201.159 179.975 201.359 180.075C201.559 180.175 201.659 180.375 201.659 180.475V211.975C201.659 212.175 201.559 212.275 201.459 212.375L161.959 235.475C161.759 235.475 161.659 235.575 161.559 235.575Z" fill="#A9A9AA"/>
</g>
<path d="M415.401 431.275C415.101 431.275 414.902 431.075 414.902 430.775V162.275L282.788 243.075C282.589 243.175 282.489 243.175 282.289 243.075C282.089 242.975 281.99 242.775 281.99 242.675V134.375L201.803 180.975C201.603 181.075 201.304 181.075 201.104 180.775C200.904 180.475 201.004 180.275 201.304 180.075L282.289 133.075C282.489 132.975 282.589 132.975 282.788 133.075C282.988 133.175 283.088 133.375 283.088 133.475V241.775L415.201 160.975C415.401 160.875 415.501 160.875 415.7 160.975C415.9 161.075 416 161.275 416 161.375V430.675C415.9 431.075 415.7 431.275 415.401 431.275Z" fill="#A9A9AA"/>
<path d="M385.062 321.575C384.962 321.575 384.862 321.575 384.862 321.475C384.662 321.375 384.562 321.175 384.562 321.075V180.075L372.763 173.175C372.563 173.075 372.562 172.875 372.562 172.775C372.562 172.675 372.663 172.475 372.763 172.375L403.162 154.575C403.262 154.475 403.462 154.475 403.662 154.575L415.562 160.875C415.763 160.975 415.863 161.275 415.763 161.575C415.663 161.775 415.362 161.875 415.062 161.775L403.462 155.575L374.062 172.775L385.362 179.375C385.562 179.475 385.562 179.675 385.562 179.775V320.175L415.062 302.575C415.263 302.475 415.563 302.475 415.763 302.775C415.863 302.975 415.862 303.275 415.562 303.475L385.362 321.575C385.262 321.575 385.163 321.575 385.062 321.575Z" fill="#A9A9AA"/>
<path opacity="0.4" d="M385.062 321.573C384.962 321.573 384.862 321.573 384.862 321.473L372.862 314.973C372.662 314.873 372.562 314.673 372.562 314.573V172.773C372.562 172.473 372.762 172.273 373.062 172.273C373.363 172.273 373.562 172.473 373.562 172.773V314.373L385.362 320.673C385.562 320.773 385.663 321.073 385.562 321.373C385.462 321.473 385.262 321.573 385.062 321.573Z" fill="#A9A9AA"/>
<path d="M171.3 80.8992C170.6 80.8992 170 80.6992 169.4 80.3992L134.2 59.8992C133.6 59.5992 133.3 59.0992 133.3 58.4992C133.3 57.9992 133.6 57.4992 134.2 57.0992L169.2 36.8992C170.3 36.2992 171.9 36.2992 173 36.8992L208.2 57.3992C208.8 57.6992 209.1 58.1992 209.1 58.7992C209.1 59.2992 208.8 59.7992 208.2 60.1992L173.2 80.3992C172.7 80.6992 172 80.8992 171.3 80.8992ZM171.2 37.5992C170.7 37.5992 170.2 37.6992 169.8 37.8992L134.8 58.0992C134.5 58.2992 134.4 58.4992 134.4 58.5992C134.4 58.7992 134.5 58.8992 134.8 59.0992L170 79.5992C170.7 79.9992 172 79.9992 172.8 79.5992L207.8 59.3992C208.1 59.1992 208.2 59.0992 208.2 58.8992C208.2 58.6992 208.1 58.5992 207.8 58.3992L172.6 37.8992C172.2 37.6992 171.7 37.5992 171.2 37.5992Z" fill="#A9A9AA"/>
<path d="M134.5 60.2008C135.881 60.2008 137 59.4397 137 58.5008C137 57.5619 135.881 56.8008 134.5 56.8008C133.119 56.8008 132 57.5619 132 58.5008C132 59.4397 133.119 60.2008 134.5 60.2008Z" fill="#A70001"/>
<path d="M171 82.2008C172.381 82.2008 173.5 81.4397 173.5 80.5008C173.5 79.5619 172.381 78.8008 171 78.8008C169.619 78.8008 168.5 79.5619 168.5 80.5008C168.5 81.4397 169.619 82.2008 171 82.2008Z" fill="#A70001"/>
<path d="M170.9 38.5992C172.281 38.5992 173.4 37.8381 173.4 36.8992C173.4 35.9603 172.281 35.1992 170.9 35.1992C169.519 35.1992 168.4 35.9603 168.4 36.8992C168.4 37.8381 169.519 38.5992 170.9 38.5992Z" fill="#A70001"/>
<path d="M208.4 60.4976C209.781 60.4976 210.9 59.7365 210.9 58.7976C210.9 57.8587 209.781 57.0977 208.4 57.0977C207.019 57.0977 205.9 57.8587 205.9 58.7976C205.9 59.7365 207.019 60.4976 208.4 60.4976Z" fill="#A70001"/>
<path d="M171.3 64.3992C170.6 64.3992 170 64.1992 169.4 63.8992L134.2 43.3992C133.6 43.0992 133.3 42.5992 133.3 41.9992C133.3 41.4992 133.6 40.9992 134.2 40.5992L169.2 20.3992C170.3 19.7992 171.9 19.7992 173 20.3992L208.2 40.8992C208.8 41.1992 209.1 41.6992 209.1 42.2992C209.1 42.7992 208.8 43.2992 208.2 43.6992L173.2 63.8992C172.7 64.2992 172 64.3992 171.3 64.3992ZM171.2 21.0992C170.7 21.0992 170.2 21.1992 169.8 21.3992L134.8 41.5992C134.5 41.7992 134.4 41.8992 134.4 42.0992C134.4 42.2992 134.5 42.3992 134.8 42.5992L170 63.0992C170.7 63.4992 172 63.4992 172.8 63.0992L207.8 42.8992C208.1 42.6992 208.2 42.5992 208.2 42.3992C208.2 42.1992 208.1 42.0992 207.8 41.8992L172.6 21.3992C172.2 21.1992 171.7 21.0992 171.2 21.0992Z" fill="#A9A9AA"/>
<path d="M134.5 43.8023C135.881 43.8023 137 43.0412 137 42.1024C137 41.1635 135.881 40.4023 134.5 40.4023C133.119 40.4023 132 41.1635 132 42.1024C132 43.0412 133.119 43.8023 134.5 43.8023Z" fill="#A70001"/>
<path d="M171 65.8023C172.381 65.8023 173.5 65.0412 173.5 64.1024C173.5 63.1635 172.381 62.4023 171 62.4023C169.619 62.4023 168.5 63.1635 168.5 64.1024C168.5 65.0412 169.619 65.8023 171 65.8023Z" fill="#A70001"/>
<path d="M170.9 22.2008C172.281 22.2008 173.4 21.4397 173.4 20.5008C173.4 19.5619 172.281 18.8008 170.9 18.8008C169.519 18.8008 168.4 19.5619 168.4 20.5008C168.4 21.4397 169.519 22.2008 170.9 22.2008Z" fill="#A70001"/>
<path d="M208.4 44.0015C209.781 44.0015 210.9 43.2404 210.9 42.3015C210.9 41.3626 209.781 40.6016 208.4 40.6016C207.019 40.6016 205.9 41.3626 205.9 42.3015C205.9 43.2404 207.019 44.0015 208.4 44.0015Z" fill="#A70001"/>
<path d="M171.3 45.5984C170.6 45.5984 170 45.3984 169.4 45.0984L134.2 24.5984C133.6 24.2984 133.3 23.7984 133.3 23.1984C133.3 22.6984 133.6 22.1984 134.2 21.7984L169.2 1.59844C170.3 0.998437 171.9 0.998437 173 1.59844L208.2 22.0984C208.8 22.3984 209.1 22.8984 209.1 23.4984C209.1 23.9984 208.8 24.4984 208.2 24.8984L173.2 45.0984C172.7 45.4984 172 45.5984 171.3 45.5984ZM171.2 2.29839C170.7 2.29839 170.2 2.39844 169.8 2.59844L134.8 22.7984C134.5 22.9984 134.4 23.0984 134.4 23.2984C134.4 23.4984 134.5 23.5984 134.8 23.7984L170 44.2984C170.7 44.6984 172 44.6984 172.8 44.2984L207.8 24.0984C208.1 23.8984 208.2 23.6984 208.2 23.5984C208.2 23.3984 208.1 23.2984 207.8 23.0984L172.6 2.59844C172.2 2.39844 171.7 2.29839 171.2 2.29839Z" fill="#A9A9AA"/>
<path d="M134.5 25.0015C135.881 25.0015 137 24.2404 137 23.3015C137 22.3626 135.881 21.6016 134.5 21.6016C133.119 21.6016 132 22.3626 132 23.3015C132 24.2404 133.119 25.0015 134.5 25.0015Z" fill="#A70001"/>
<path d="M171 47.0015C172.381 47.0015 173.5 46.2404 173.5 45.3015C173.5 44.3626 172.381 43.6016 171 43.6016C169.619 43.6016 168.5 44.3626 168.5 45.3015C168.5 46.2404 169.619 47.0015 171 47.0015Z" fill="#A70001"/>
<path d="M170.9 3.40002C172.281 3.40002 173.4 2.6389 173.4 1.70001C173.4 0.761128 172.281 0 170.9 0C169.519 0 168.4 0.761128 168.4 1.70001C168.4 2.6389 169.519 3.40002 170.9 3.40002Z" fill="#A70001"/>
<path d="M208.4 25.2008C209.781 25.2008 210.9 24.4397 210.9 23.5008C210.9 22.5619 209.781 21.8008 208.4 21.8008C207.019 21.8008 205.9 22.5619 205.9 23.5008C205.9 24.4397 207.019 25.2008 208.4 25.2008Z" fill="#A70001"/>
<path d="M153.539 70C153.739 70 153.84 70.1027 153.94 70.2055C154.04 70.4111 154.04 70.7195 153.739 70.925L71.0029 120.365L71.0029 176.486C71.0029 176.794 70.8023 177 70.5014 177C70.2006 177 70 176.794 70 176.486L70 120.057C70 119.851 70.1004 119.748 70.2006 119.646L153.238 70.1028C153.439 70 153.539 70 153.539 70Z" fill="#A9A9AA"/>
</svg>
