<svg width="176" height="20" viewBox="0 0 176 20" fill="none" xmlns="http://www.w3.org/2000/svg">
<path d="M34.2457 6.43533V15.3767H32.3287V0.893333H35.1001L37.2127 11.282L39.349 0.893333H42.2005V15.376H40.2264V5.67L38.1019 15.3767H36.2546L34.2339 5.88267L34.2457 6.43533ZM50.0174 13.4587L53.3075 13.6587V15.3767H44.5568V13.6587L47.7662 13.4587V6.27067L45.2496 6.07067V4.36467H50.0174V13.4587ZM47.6506 1.08267V0.823333L47.7544 0.6L47.9041 0.4L48.1011 0.246667L48.3776 0.141333L48.6317 0.0706667H49.1742L49.4172 0.141333L49.6477 0.247333L49.8447 0.4L49.9944 0.6L50.0863 0.823333L50.156 1.08267V2.09333L50.0982 2.21133L49.9018 2.352L49.821 2.44667L49.7291 2.54L49.6477 2.576L49.5439 2.63467H48.5391L48.2968 2.552L48.0893 2.42267L47.9041 2.352L47.7662 2.14067L47.6847 1.90533V1.364L47.6506 1.08267ZM67.3823 7.05867L67.6016 6.52933L67.8676 6.04733L68.1795 5.612L68.5256 5.23533L68.9065 4.906L69.2763 4.62333L69.7379 4.412L70.2226 4.27067L70.7309 4.188H71.8276L72.3471 4.29467L72.8324 4.45867L73.2829 4.694L73.7098 5L73.9751 5.25867V0H76.2847V15.3767H74.3448L74.1484 14.294L73.8253 14.6353L73.4096 14.9527L72.9709 15.212L72.4745 15.4L71.955 15.5173L71.4119 15.5767H70.8576L70.3388 15.506L69.8417 15.294L69.38 15.106L68.9643 14.8473L68.5716 14.5293L68.2137 14.1647L67.9024 13.7293L67.6253 13.2587L67.4059 12.7413L67.2326 12.1767L67.094 11.5767L66.9666 10.9767V8.87L67.0822 8.23533L67.2096 7.62333L67.3823 7.05867ZM69.357 8.56533L69.2763 9.412V10.3293L69.3452 11.1647L69.4838 11.8587L69.692 12.4353L69.9691 12.882L70.2922 13.212L70.6961 13.4473L71.1696 13.5647H72.2321L72.4856 13.494L72.7168 13.412L72.9132 13.3053L73.0977 13.1767L73.2481 13.0353L73.386 12.8587L73.5134 12.6707L73.629 12.4353L73.7209 12.1647L73.8024 11.8707L73.8943 11.4707V8.23533L73.8135 7.882L73.7098 7.57667L73.606 7.306L73.4208 7.05933L73.2711 6.87067L73.1095 6.706L72.9243 6.56467L72.7404 6.41133L72.5093 6.318L72.2551 6.24733H71.2392L70.7539 6.36467L70.35 6.57667L70.0151 6.894L69.7379 7.34067L69.5186 7.906L69.357 8.56467V8.56533ZM57.9958 8.72933V15.3767H55.6862V4.36467H57.5683L57.7647 5.45867L57.9958 5.2L58.3649 4.87067L58.7918 4.612L59.2541 4.412L59.7506 4.27067L60.293 4.188H60.8939L61.8173 4.27067L62.6139 4.48267L63.3067 4.84733L63.861 5.36467L64.2767 6.01133L64.5656 6.788L64.6576 7.64733V15.3647H62.3486V7.2L62.1752 6.84667L61.9322 6.57667L61.6327 6.37667L61.1941 6.24733L60.7317 6.17667H60.1203L59.5424 6.306L59.0696 6.55267L58.6769 6.894L58.3649 7.36467L58.1344 7.97667L57.9958 8.72933Z" fill="#232529"/>
<path d="M4.69946 15.2949C4.62263 15.7529 4.81702 16.2135 5.19594 16.4715C5.75738 16.7547 6.3831 16.8806 7.00848 16.8362V18.2129C4.3757 18.2129 3.04848 17.2835 3.04848 15.5182V12.4009C3.04848 11.2242 2.03188 10.6595 0 10.6595V9.23619C2.03188 9.23619 3.04848 8.65952 3.04848 7.49485V4.43619C3.04848 2.67152 4.3757 1.77752 7.00848 1.74219V3.10685C6.37803 3.08019 5.75218 3.22685 5.19594 3.53019C5.02387 3.65032 4.88693 3.81535 4.79955 4.0079C4.71217 4.20044 4.67759 4.41336 4.69946 4.62419V7.61285C4.69946 8.88352 3.99481 9.64819 2.58615 9.89485V10.0129C3.99481 10.2595 4.69946 11.0242 4.69946 12.2949V15.2949Z" fill="#232529"/>
<path d="M10.2877 19.3884V17.977C11.1369 18.2177 12.0149 18.337 12.8969 18.3304C13.4913 18.3691 14.0791 18.1847 14.5485 17.8124C14.9498 17.441 15.1658 16.9057 15.1369 16.353V6.41235L11.3385 6.21235V5.03569H16.7761V16.2124C16.8123 16.6972 16.7398 17.184 16.564 17.6362C16.3883 18.0885 16.1139 18.4945 15.7615 18.8237C14.9364 19.4645 13.9114 19.7819 12.8745 19.7177C12.0014 19.7341 11.1298 19.6232 10.2877 19.3884ZM15.772 0.929688C16.4188 0.929688 16.7419 1.27102 16.7419 1.97635C16.7419 2.68302 16.4188 3.03569 15.772 3.03569C15.1258 3.03569 14.8138 2.68235 14.8138 1.97702C14.8138 1.27035 15.1363 0.929688 15.772 0.929688ZM25.7133 4.82369C26.4751 4.82369 26.8678 5.25902 26.8678 6.10635C26.8678 6.95302 26.4869 7.38835 25.7133 7.38835C24.9397 7.38835 24.5588 6.96502 24.5588 6.10635C24.5588 5.24769 24.9397 4.82369 25.7133 4.82369ZM25.7133 12.883C26.4751 12.883 26.8678 13.3177 26.8678 14.165C26.8678 15.0117 26.4869 15.459 25.7133 15.459C24.9397 15.459 24.5588 15.0237 24.5588 14.1657C24.5588 13.3057 24.9397 12.9417 25.7133 12.9417V12.883ZM83.2588 12.4237C84.171 12.4237 84.6326 12.9304 84.6326 13.9417C84.6326 14.953 84.171 15.471 83.2588 15.471C82.3459 15.471 81.8961 14.965 81.8961 13.9417C81.8961 12.9177 82.3466 12.4237 83.2588 12.4237Z" fill="#232529"/>
<path d="M90.0588 14.7433V13.0966C91.2422 13.6096 92.5135 13.8814 93.8002 13.8966C95.9128 13.8966 96.9636 13.1546 96.9636 11.6846C96.9805 11.4059 96.9318 11.127 96.8213 10.8713C96.7109 10.6155 96.5419 10.3901 96.3285 10.2139C95.5281 9.70286 94.6617 9.30687 93.7542 9.03726C92.7354 8.73641 91.8065 8.18236 91.0518 7.42526C90.4902 6.74971 90.198 5.8852 90.2329 5.00193C90.2134 4.52088 90.3082 4.04214 90.5091 3.60602C90.71 3.1699 91.0112 2.78919 91.3874 2.49593C92.3221 1.84518 93.4427 1.52663 94.5744 1.58993C95.8596 1.57126 97.1356 1.81526 98.3269 2.30793L97.749 3.81393C96.7182 3.36839 95.6136 3.12478 94.4936 3.09593C92.7382 3.09593 91.849 3.7426 91.849 5.02526C91.837 5.30438 91.8832 5.58292 91.9847 5.8426C92.0863 6.10227 92.2408 6.3372 92.4381 6.53193C93.1765 7.07227 94.006 7.47084 94.8857 7.70793C96.0044 8.02979 97.033 8.61418 97.8882 9.41393C98.3965 10.0323 98.6598 10.8206 98.627 11.6253C98.65 12.1552 98.5489 12.6831 98.3321 13.1657C98.1154 13.6484 97.789 14.072 97.3799 14.4019C96.3411 15.1372 95.0877 15.4939 93.8238 15.4139C92.5364 15.4637 91.2533 15.2351 90.0595 14.7433H90.0588ZM100.658 5.0846H102.356L104.665 11.1079C105.036 11.9613 105.303 12.8586 105.461 13.7786C105.665 12.8613 105.934 11.9606 106.269 11.0846L108.533 5.0846H110.242L105.958 16.4726C105.658 17.3496 105.178 18.1518 104.549 18.8259C104.253 19.1063 103.904 19.3228 103.523 19.4623C103.142 19.6017 102.737 19.6612 102.332 19.6373C101.824 19.6373 101.317 19.5813 100.82 19.4726V18.2259C101.224 18.2993 101.634 18.3346 102.044 18.3313C102.523 18.3646 102.999 18.2313 103.395 17.9546C103.787 17.6055 104.086 17.1603 104.261 16.6613L104.78 15.2959L100.658 5.0846ZM112.84 14.7433V13.2139C113.888 13.7138 115.029 13.9824 116.188 14.0019C117.839 14.0019 118.67 13.5079 118.67 12.5079C118.668 12.3334 118.627 12.1615 118.551 12.0048C118.475 11.8481 118.366 11.7105 118.231 11.6019C117.603 11.1635 116.915 10.8224 116.188 10.5899C115.205 10.3071 114.298 9.80459 113.532 9.11926C113.168 8.67863 112.975 8.11816 112.989 7.54326C112.978 7.15601 113.064 6.77224 113.24 6.42839C113.416 6.08454 113.676 5.79202 113.994 5.5786C114.83 5.06344 115.8 4.8171 116.777 4.87193C117.922 4.86148 119.058 5.08998 120.113 5.54326L119.571 6.91926C118.662 6.51765 117.687 6.29417 116.696 6.2606C115.275 6.2606 114.56 6.6606 114.56 7.43726C114.551 7.79726 114.726 8.13526 115.021 8.33126C115.681 8.72016 116.383 9.03192 117.112 9.2606C118.044 9.54531 118.909 10.0219 119.652 10.6606C120.069 11.1153 120.294 11.7206 120.275 12.3433C120.29 12.7642 120.202 13.1823 120.018 13.5601C119.835 13.9379 119.562 14.2636 119.224 14.5079C118.333 15.0809 117.288 15.3565 116.234 15.2959C115.075 15.3892 113.911 15.1995 112.839 14.7426L112.84 14.7433ZM131.324 13.8139V15.0846C130.569 15.2737 129.794 15.3722 129.015 15.3779C126.833 15.3779 125.736 14.3193 125.736 12.2139V6.33126H123.335V5.4846L125.736 5.03726L126.475 2.3546H127.422V5.0846H131.371V6.34326H127.422V12.2253C127.388 12.466 127.409 12.7115 127.484 12.9427C127.558 13.1739 127.684 13.3844 127.852 13.5579C128.02 13.731 128.224 13.8623 128.45 13.9415C128.676 14.0206 128.917 14.0454 129.154 14.0139C129.881 13.9979 130.606 13.9311 131.324 13.8139ZM143.102 10.4606H136.173C136.173 12.8139 137.259 13.9073 139.28 13.9073C140.427 13.9115 141.563 13.6755 142.617 13.2139V14.6846C141.585 15.1529 140.467 15.3894 139.338 15.3779C138.685 15.409 138.034 15.3029 137.424 15.0661C136.814 14.8293 136.259 14.467 135.793 14.0019C135.334 13.4924 134.98 12.8947 134.752 12.2442C134.524 11.5936 134.427 10.9033 134.465 10.2139C134.387 8.81082 134.823 7.42798 135.689 6.33126C136.096 5.86017 136.602 5.48775 137.169 5.24141C137.736 4.99508 138.351 4.88112 138.968 4.90793C139.529 4.87702 140.09 4.96576 140.615 5.16843C141.14 5.37109 141.617 5.68319 142.016 6.0846C142.812 6.98598 143.227 8.16887 143.171 9.37793L143.102 10.4606ZM136.173 9.09593H141.346C141.346 7.22526 140.527 6.29593 138.887 6.29593C137.248 6.29593 136.313 7.22526 136.151 9.09593H136.174H136.173ZM153.123 15.1899V8.6846C153.158 8.05202 153.08 7.41822 152.893 6.81393C152.827 6.65364 152.714 6.51789 152.569 6.42518C152.425 6.33248 152.255 6.28734 152.084 6.29593C151.837 6.28039 151.59 6.3464 151.382 6.48415C151.174 6.62189 151.016 6.82405 150.93 7.0606C150.639 7.87774 150.517 8.7469 150.572 9.61393V15.1899H149.117V8.6846C149.117 7.0846 148.736 6.33126 147.962 6.33126C147.73 6.32803 147.502 6.39589 147.309 6.52599C147.115 6.6561 146.965 6.8424 146.877 7.0606C146.629 8.00314 146.546 8.98293 146.634 9.9546V15.1899H145.134V5.0846H146.289L146.532 6.44926H146.635C147.028 5.41393 147.64 4.90793 148.447 4.90793C148.914 4.8984 149.367 5.06349 149.72 5.37167C150.074 5.67985 150.304 6.10952 150.365 6.5786H150.422C150.884 5.40193 151.577 4.90793 152.397 4.90793C152.727 4.88136 153.058 4.94605 153.355 5.09512C153.652 5.24419 153.903 5.47208 154.083 5.7546C154.494 6.63829 154.673 7.61518 154.602 8.58993V15.1899H153.124H153.123ZM157.234 14.7433V13.2139C158.282 13.715 159.424 13.9836 160.582 14.0019C162.233 14.0019 163.065 13.5079 163.065 12.5079C163.061 12.3324 163.018 12.1599 162.94 12.0032C162.863 11.8464 162.751 11.7093 162.614 11.6019C161.992 11.1604 161.307 10.819 160.582 10.5899C159.6 10.3071 158.693 9.80459 157.927 9.11926C157.563 8.67863 157.37 8.11816 157.384 7.54326C157.373 7.15601 157.459 6.77224 157.635 6.42839C157.811 6.08454 158.07 5.79202 158.389 5.5786C159.225 5.06344 160.195 4.8171 161.171 4.87193C162.317 4.86148 163.452 5.08998 164.507 5.54326L163.954 6.9546C163.041 6.55151 162.062 6.32799 161.067 6.29593C159.647 6.29593 158.942 6.69593 158.942 7.4726C158.933 7.82926 159.103 8.16593 159.393 8.3666C160.058 8.7524 160.763 9.06399 161.494 9.29593C162.427 9.58065 163.292 10.0572 164.035 10.6959C164.453 11.1506 164.677 11.7559 164.659 12.3786C164.672 12.8006 164.582 13.2194 164.397 13.5973C164.211 13.9752 163.936 14.3003 163.596 14.5433C162.709 15.1169 161.667 15.3926 160.617 15.3313C159.459 15.4126 158.299 15.2109 157.234 14.7433Z" fill="#232529"/>
<path d="M170.881 12.2949C170.881 11.0242 171.585 10.2595 173.006 10.0129V9.89485C171.562 9.64819 170.881 8.88352 170.881 7.61285V4.56619C170.902 4.35411 170.866 4.1403 170.776 3.94753C170.687 3.75475 170.547 3.59024 170.373 3.47152C169.816 3.18709 169.194 3.06108 168.572 3.10685V1.74219C171.216 1.74219 172.544 2.67152 172.544 4.43552V7.49552C172.544 8.67152 173.56 9.23552 175.592 9.23552V10.6595C173.56 10.6595 172.544 11.2362 172.544 12.4009V15.4715C172.544 17.2362 171.216 18.1302 168.572 18.1655V16.7889C169.193 16.8381 169.815 16.716 170.373 16.4355C170.744 16.1869 170.941 15.7435 170.881 15.2955V12.2955V12.2949Z" fill="#232529"/>
</svg>
