<svg width="96" height="11" viewBox="0 0 96 11" fill="none" xmlns="http://www.w3.org/2000/svg">
<g clip-path="url(#clip0)">
<path d="M18.7268 3.45049L18.728 3.67935V8.24838H17.6553V0.47998H19.1904L20.35 6.05482L21.5189 0.47998H23.0775L23.0799 1.14309V8.24838H21.9966V3.52326L22.0001 3.28853L22.006 3.04206L20.8535 8.24838H19.8242L18.7198 3.16412L18.7268 3.45049Z" fill="#626CAE"/>
<path d="M27.3496 7.22478L29.1465 7.32689V8.2482H24.3604V7.32689L26.1173 7.22478V3.36464L24.7441 3.25784V2.33887H27.3496V7.22478Z" fill="#626CAE"/>
<path d="M26.0551 0.580716L26.088 0.443399L26.1455 0.318992L26.2276 0.213363L26.3321 0.130034L26.4541 0.0725249L26.5903 0.0408363L26.7382 0.0302734L26.886 0.0408363L27.021 0.0725249L27.1431 0.130034L27.2463 0.213363L27.3273 0.320165L27.3837 0.443399L27.4177 0.580716L27.4306 0.72977L27.4294 0.828357L27.4212 0.906991L27.4083 0.980931L27.3884 1.05252L27.3625 1.1206L27.3285 1.18515L27.2886 1.24383L27.2417 1.29664L27.1912 1.34242L27.1384 1.38115L27.0844 1.41518L27.0269 1.44335L26.967 1.46565L26.906 1.48325L26.8426 1.49499L26.7769 1.50086L26.676 1.49969L26.5339 1.48091L26.4037 1.43866L26.2875 1.37058L26.1912 1.27669L26.1196 1.16285L26.0727 1.03257L26.0469 0.888213L26.041 0.732117L26.0551 0.580716Z" fill="#626CAE"/>
<path d="M36.8433 3.77681L36.9607 3.49396L37.105 3.23458L37.2752 2.99985L37.4665 2.79446L37.6766 2.61959L37.9113 2.47758L38.159 2.36843L38.4242 2.29214L38.7059 2.24872L39.004 2.23698L39.3045 2.25928L39.5885 2.31561L39.8549 2.40716L40.1025 2.53391L40.3314 2.6947L40.4804 2.83437V2.76864L40.4711 2.65128L40.464 2.54917V2.46467V2.39894V0H41.6952V8.24842H40.8056H40.6518L40.545 7.6616L40.3713 7.83999L40.1471 8.01369L39.9018 8.15571L39.6366 8.25664L39.3526 8.32119L39.0509 8.34936L38.7481 8.34231L38.4583 8.30945L38.1907 8.23786L37.9395 8.13341L37.7048 7.99726L37.4912 7.82826L37.2975 7.62874L37.125 7.394L36.9806 7.1358L36.8633 6.85882L36.7658 6.55837L36.6931 6.23561L36.6438 5.88938L36.6191 5.52086V5.14059L36.6414 4.7662L36.6872 4.4141L36.7576 4.08548L36.8433 3.77681ZM37.9254 4.58663L37.882 5.03027V5.52555L37.9195 5.97037L37.997 6.34711L38.1144 6.6546L38.2634 6.88933L38.4442 7.06773L38.6601 7.18509L38.9195 7.25317L39.1836 7.26725L39.3491 7.25786L39.5028 7.23556L39.6413 7.20153L39.7657 7.15575L39.876 7.09942L39.9734 7.03252L40.0591 6.95389L40.1342 6.86351L40.2011 6.75671L40.2622 6.63231L40.315 6.48912L40.3607 6.32833L40.3971 6.14876L40.4253 5.95159L40.4441 5.73564L40.4535 5.50091V5.3049V5.07017L40.4394 4.81901L40.4147 4.58428L40.3807 4.37655L40.3373 4.18994L40.2845 4.02563L40.2222 3.88361L40.153 3.76625L40.0744 3.66414L39.9863 3.57494L39.8866 3.49866L39.7751 3.43528L39.6507 3.38364L39.5134 3.34491L39.362 3.31909L39.1988 3.30618L38.9535 3.31439L38.6906 3.3766L38.4712 3.49396L38.2869 3.66649L38.1343 3.90122L38.017 4.20637L37.9254 4.58663Z" fill="#626CAE"/>
<path d="M31.7097 4.68153L31.6804 5.15569V8.24826H30.4492V2.33892H31.4762L31.5841 2.93044L31.7109 2.78726L31.9163 2.61591L32.1451 2.47624L32.3975 2.36827L32.6709 2.29315L32.9655 2.24973L33.2988 2.23682L33.7988 2.27789L34.2378 2.39526L34.6133 2.59009L34.9185 2.86355L35.1485 3.21095L35.3011 3.62759L35.3797 4.10644L35.3926 4.45971V8.24826H34.1615V4.57003L34.1603 4.39164L34.1286 4.10175L34.0629 3.86584L33.9631 3.67689L33.8329 3.53135L33.6662 3.4222L33.4596 3.34944L33.2073 3.31305L32.8752 3.32244L32.5583 3.39169L32.2965 3.52079L32.0841 3.7074L31.9151 3.96091L31.7884 4.28484L31.7097 4.68153Z" fill="#626CAE"/>
<path d="M2.56775 8.22825C2.55884 8.34171 2.57971 8.45553 2.62829 8.55845C2.67687 8.66138 2.75148 8.74983 2.84473 8.81507C3.02861 8.9387 3.35801 9.00364 3.83295 9.0099V9.75047C2.39092 9.73091 1.66991 9.24854 1.66991 8.30336V6.65321C1.66991 6.02726 1.1136 5.71429 0.000976562 5.71429V4.94907C1.1136 4.94907 1.66991 4.63609 1.66991 4.01015V2.36703C1.66991 1.42264 2.39092 0.940265 3.83295 0.919922V1.6558C3.35879 1.66284 3.02939 1.72779 2.84473 1.85063C2.75148 1.91587 2.67687 2.00432 2.62829 2.10725C2.57971 2.21017 2.55884 2.32399 2.56775 2.43745V4.08057C2.56775 4.76207 2.18436 5.1701 1.41757 5.30468V5.36337C2.18436 5.49873 2.56775 5.90677 2.56775 6.58748V8.22825Z" fill="#E0C164"/>
<path d="M5.62422 10.4069V9.64641C6.08857 9.77675 6.56911 9.84037 7.05138 9.83537C7.43634 9.83537 7.73679 9.74147 7.95275 9.55369C8.06154 9.456 8.1471 9.33521 8.20316 9.20016C8.25921 9.06511 8.28432 8.91923 8.27667 8.77321V3.43896L6.20283 3.33568V2.72891H9.17569V8.72861C9.17569 9.32092 8.98986 9.77747 8.61821 10.0983C8.24655 10.4191 7.72036 10.5795 7.03965 10.5795C6.56176 10.5873 6.08507 10.5293 5.62305 10.4069H5.62422ZM8.62525 0.496621C8.97734 0.496621 9.15339 0.684405 9.15339 1.05997C9.15339 1.43554 8.97734 1.62489 8.62525 1.62802C8.27628 1.62802 8.1018 1.43867 8.1018 1.05997C8.1018 0.681275 8.27628 0.493491 8.62525 0.496621Z" fill="#808082"/>
<path d="M14.0584 2.59033C14.4762 2.59033 14.6851 2.81919 14.6851 3.27692C14.6851 3.73464 14.4762 3.96468 14.0584 3.96703C13.6406 3.96703 13.4316 3.73816 13.4316 3.28044C13.4316 2.82272 13.6406 2.59385 14.0584 2.59385V2.59033ZM14.0584 6.91876C14.4762 6.91876 14.6851 7.14762 14.6851 7.60535C14.6851 8.06307 14.4762 8.2935 14.0584 8.29663C13.6406 8.29663 13.4316 8.0662 13.4316 7.60535C13.4316 7.14449 13.6406 6.91563 14.0584 6.91876Z" fill="#808082"/>
<path d="M45.5275 6.6665C46.0275 6.6665 46.2775 6.94036 46.2775 7.48806C46.2775 8.03576 46.0275 8.30962 45.5275 8.30962C45.0307 8.30962 44.7822 8.03576 44.7822 7.48806C44.7822 6.94036 45.0307 6.6665 45.5275 6.6665Z" fill="#808082"/>
<path d="M49.2594 7.90828V7.02921C49.9067 7.30271 50.6012 7.44704 51.3039 7.45407C52.4556 7.45407 53.0315 7.05894 53.0315 6.26869C53.0394 6.11857 53.0117 5.9687 52.9505 5.8314C52.8893 5.69409 52.7964 5.57326 52.6794 5.47882C52.4447 5.29416 51.9752 5.07508 51.271 4.82157C50.5864 4.58137 50.095 4.29421 49.7969 3.96011C49.4988 3.62601 49.3498 3.19215 49.3498 2.65853C49.3389 2.3997 49.3909 2.14209 49.5015 1.90782C49.6121 1.67354 49.7779 1.46961 49.9847 1.31353C50.408 0.989601 50.9882 0.827637 51.7252 0.827637C52.4286 0.818073 53.1269 0.948946 53.7791 1.21259L53.4634 2.02241C52.9009 1.78109 52.2972 1.65039 51.6853 1.63746C50.7206 1.63746 50.2382 1.98134 50.2382 2.6691C50.2319 2.81931 50.2575 2.96916 50.3133 3.10875C50.3692 3.24834 50.454 3.3745 50.5621 3.47892C50.7781 3.68313 51.2233 3.90221 51.8978 4.13616C52.7076 4.42566 53.2482 4.72455 53.5198 5.03283C53.7996 5.36371 53.9449 5.78761 53.927 6.22057C53.927 6.85277 53.6989 7.34884 53.2428 7.70876C52.7866 8.06868 52.1391 8.24903 51.3004 8.24981C50.4279 8.24981 49.7464 8.13636 49.2559 7.90945" fill="#6DB9B5"/>
<path d="M55.042 2.72871H55.9703L57.2614 5.95743C57.5313 6.63267 57.6776 7.10995 57.7003 7.38928H57.7297C57.8424 6.89824 57.9911 6.41614 58.1745 5.94686L59.3552 2.72754H60.2941L57.9468 8.85517C57.7261 9.42791 57.4695 9.85825 57.1769 10.1462C56.8842 10.4341 56.4793 10.5781 55.9621 10.5781C55.6834 10.5787 55.4054 10.5508 55.1324 10.4948V9.77884C55.3538 9.81974 55.5786 9.83939 55.8037 9.83752C56.0653 9.85344 56.3248 9.78247 56.5419 9.63565C56.7547 9.44704 56.9162 9.2076 57.0114 8.93968L57.2978 8.1991L55.042 2.72871Z" fill="#6DB9B5"/>
<path d="M61.7023 7.90806V7.0865C62.2747 7.35534 62.8975 7.50013 63.5297 7.51136C64.435 7.51136 64.8876 7.24455 64.8876 6.71093C64.8867 6.6166 64.8644 6.5237 64.8226 6.43917C64.7807 6.35463 64.7203 6.28063 64.6459 6.22269C64.4847 6.0842 64.1126 5.90972 63.5297 5.69924C62.7629 5.41287 62.2798 5.15037 62.0803 4.91172C61.8816 4.67506 61.7753 4.37448 61.781 4.06552C61.7743 3.85701 61.8214 3.65029 61.9179 3.46528C62.0143 3.28027 62.1567 3.12321 62.3314 3.00923C62.6984 2.75416 63.207 2.62663 63.8572 2.62663C64.483 2.62136 65.1032 2.74564 65.6787 2.99163L65.3817 3.7322C64.8831 3.51829 64.349 3.3989 63.8067 3.38011C63.0297 3.38011 62.6413 3.5988 62.6413 4.03618C62.6391 4.13082 62.6607 4.22449 62.7042 4.30857C62.7477 4.39266 62.8116 4.46446 62.8901 4.51738C63.056 4.63787 63.4386 4.80492 64.0379 5.01853C64.7327 5.27204 65.1944 5.52124 65.4228 5.76614C65.6509 6.00999 65.774 6.33372 65.7655 6.66751C65.7738 6.89413 65.7253 7.11921 65.6244 7.32233C65.5236 7.52545 65.3736 7.70016 65.1881 7.8306C64.8031 8.11227 64.2582 8.25311 63.5532 8.25311C62.7363 8.25311 62.119 8.13966 61.7012 7.91275" fill="#6DB9B5"/>
<path d="M71.8046 7.40937V8.09126C71.3978 8.19405 70.9801 8.24725 70.5606 8.24971C69.3689 8.24892 68.7731 7.68205 68.7731 6.54908V3.4037H67.4551V2.93424L68.7731 2.69834L69.1533 1.28174H69.6721V2.72885H71.8351V3.40487H69.6721V6.54908C69.6721 7.19068 69.9882 7.51148 70.6204 7.51148C71.0174 7.50404 71.4135 7.46953 71.8058 7.4082" fill="#6DB9B5"/>
<path d="M78.2484 5.61018H74.427C74.4536 6.84486 75.0197 7.4622 76.1253 7.4622C76.7538 7.4649 77.3761 7.33701 77.9526 7.08663V7.8765C77.3871 8.12716 76.7743 8.25324 76.1558 8.2462C75.3491 8.2462 74.704 8.00012 74.2204 7.50797C73.7369 7.01582 73.4951 6.33863 73.4951 5.47638C73.4951 4.60084 73.7181 3.90721 74.1641 3.3955C74.6101 2.88379 75.2067 2.62793 75.9539 2.62793C76.6518 2.62793 77.2089 2.84858 77.6252 3.28987C78.0414 3.73116 78.2496 4.31799 78.2496 5.05035L78.2484 5.61018ZM74.4458 4.87899H77.2754C77.2762 3.87983 76.8287 3.38024 75.9328 3.38024C75.0369 3.38024 74.5416 3.88217 74.447 4.88604" fill="#6DB9B5"/>
<path d="M83.7299 8.15005V4.65961C83.7299 4.1792 83.686 3.8451 83.5984 3.65732C83.5639 3.57084 83.5033 3.49726 83.4251 3.44678C83.3468 3.39631 83.2548 3.37144 83.1618 3.37564C83.0283 3.37149 82.8967 3.40858 82.7849 3.48187C82.6732 3.55516 82.5868 3.66109 82.5374 3.78524C82.4075 4.05831 82.3426 4.51604 82.3426 5.15841V8.15005H81.548V4.65961C81.548 3.80363 81.3423 3.37564 80.9307 3.37564C80.8043 3.37198 80.6799 3.40776 80.5747 3.478C80.4696 3.54824 80.3889 3.64947 80.3439 3.76764C80.2202 4.02975 80.1584 4.55398 80.1584 5.34033V8.15005H79.3604V2.72896H79.9871L80.1209 3.46014H80.1702C80.3908 2.90696 80.7218 2.63037 81.1631 2.63037C81.6998 2.63037 82.0519 2.93004 82.2194 3.52939H82.2487C82.4991 2.93004 82.8594 2.63037 83.3296 2.63037C83.7514 2.63037 84.0577 2.78255 84.2486 3.08692C84.4395 3.39129 84.535 3.89987 84.535 4.61267V8.15357L83.7299 8.15005Z" fill="#6DB9B5"/>
<path d="M85.9768 7.90806V7.0865C86.5491 7.35534 87.1719 7.50013 87.8041 7.51136C88.7094 7.51136 89.162 7.24455 89.162 6.71093C89.1611 6.6166 89.1388 6.5237 89.097 6.43917C89.0551 6.35463 88.9947 6.28063 88.9203 6.22269C88.7591 6.0842 88.387 5.90972 87.8041 5.69924C87.0373 5.41287 86.5542 5.15037 86.3547 4.91173C86.156 4.67506 86.0497 4.37448 86.0554 4.06552C86.0487 3.85701 86.0959 3.65029 86.1923 3.46528C86.2887 3.28027 86.4311 3.12321 86.6058 3.00923C86.9728 2.75416 87.4814 2.62663 88.1316 2.62663C88.7574 2.62136 89.3776 2.74564 89.9531 2.99163L89.655 3.7322C89.1563 3.51827 88.6222 3.39887 88.0799 3.38011C87.303 3.38011 86.9145 3.5988 86.9145 4.03618C86.9123 4.13082 86.9339 4.22449 86.9774 4.30857C87.0209 4.39266 87.0848 4.46446 87.1633 4.51738C87.3292 4.63787 87.7118 4.80492 88.3111 5.01853C89.0059 5.27204 89.4676 5.52124 89.696 5.76614C89.9243 6.00951 90.0478 6.33279 90.0399 6.66633C90.0482 6.89296 89.9996 7.11804 89.8988 7.32116C89.798 7.52427 89.648 7.69898 89.4625 7.82942C89.0775 8.1111 88.5326 8.25194 87.8276 8.25194C87.0115 8.25194 86.3942 8.13848 85.9756 7.91158" fill="#6DB9B5"/>
<path d="M93.4271 6.59471C93.4271 5.91321 93.8121 5.50517 94.582 5.37059V5.31191C93.8113 5.17733 93.4263 4.76929 93.4271 4.08779V2.44115C93.4353 2.32753 93.4139 2.21373 93.3649 2.11087C93.3159 2.00802 93.2411 1.91962 93.1478 1.85433C92.9616 1.72914 92.6333 1.66498 92.1631 1.66185V0.930664C93.6082 0.950225 94.3308 1.4326 94.3308 2.37778V4.02089C94.3308 4.64684 94.8871 4.95981 95.9997 4.95981V5.72503C94.8871 5.72503 94.3308 6.038 94.3308 6.66395V8.31293C94.3308 9.25733 93.6082 9.7397 92.1631 9.76004V9.0136C92.6325 9.0136 92.9608 8.94944 93.1478 8.82112C93.2411 8.75583 93.3159 8.66743 93.3649 8.56458C93.4139 8.46172 93.4353 8.34792 93.4271 8.2343V6.59471Z" fill="#E0C164"/>
</g>
<defs>
<clipPath id="clip0">
<rect width="96" height="10.5793" fill="white"/>
</clipPath>
</defs>
</svg>
