<svg width="136" height="58" viewBox="0 0 136 58" fill="none" xmlns="http://www.w3.org/2000/svg">
<g clip-path="url(#clip0)">
<path d="M43.2148 36.0469C40.3184 36.0469 37.5958 37.176 35.5453 39.2227C31.316 43.452 31.316 50.3323 35.5453 54.5616C37.592 56.6083 40.3184 57.7374 43.2148 57.7374C46.1111 57.7374 48.8338 56.6083 50.8843 54.5616C52.931 52.5149 54.06 49.7885 54.06 46.8921C54.06 43.9958 52.931 41.2731 50.8843 39.2227C48.8338 37.176 46.1111 36.0469 43.2148 36.0469Z" fill="#41B6E6"/>
<path d="M10.8415 36.0469C7.94513 36.0469 5.22249 37.176 3.17201 39.2227C-1.05734 43.452 -1.05734 50.3323 3.17201 54.5616C5.21871 56.6083 7.94513 57.7374 10.8415 57.7374C13.7378 57.7374 16.4605 56.6083 18.511 54.5616C22.7403 50.3323 22.7403 43.452 18.511 39.2227C16.4605 37.176 13.7378 36.0469 10.8415 36.0469Z" fill="#41B6E6"/>
<path d="M84.859 39.2273C80.6901 35.0583 74.0137 36.1496 68.9612 33.5214C64.324 31.1122 59.9247 26.7242 57.2549 22.2494C56.0314 20.199 55.2384 17.9483 54.6871 15.6335C53.9432 12.5031 53.9621 9.29328 52.0136 6.58197C48.3695 1.51052 40.9304 0.604236 36.1799 4.66366C31.9091 8.31147 31.15 14.8556 34.4958 19.372C38.4306 24.6813 45.5525 23.4692 50.994 26.1654C55.465 28.382 59.5018 32.313 62.3943 36.3422C63.7689 38.2605 64.7998 40.379 65.4531 42.6447C66.1781 45.1559 66.0875 47.837 66.8994 50.3066C69.1538 57.1567 77.7182 59.9171 83.5524 55.6802C88.8655 51.8209 89.5075 43.8758 84.859 39.2273Z" fill="#41B6E6"/>
<path d="M79.5344 8.33237L80.1726 5.91182L80.9618 3.57812H84.3037L81.1808 12.1803H78.258L77.0648 8.93656L75.8715 12.1803H72.9147L69.8069 3.57812H73.1337L73.9381 5.9307L74.5951 8.33237L76.1056 3.57812H78.0201L79.5344 8.33237Z" fill="#41B6E6"/>
<path d="M93.8915 7.46114C93.8915 7.8652 93.8425 8.29946 93.7405 8.75638H87.7628C87.9969 9.51162 88.9711 9.8477 89.6773 9.8477C90.6176 9.8477 91.3237 9.57959 91.8599 9.16043L93.4233 10.9088C92.3811 11.8831 91.0027 12.3211 89.5262 12.3211C86.8376 12.3211 84.553 10.9919 84.553 7.88408C84.553 4.75738 86.9886 3.38284 89.3072 3.38284C91.9279 3.37529 93.8915 4.85556 93.8915 7.46114ZM89.3752 5.67877C88.6351 5.67877 87.8798 6.01486 87.7779 6.72101H90.8857C90.8517 6.02996 90.1153 5.67877 89.3752 5.67877Z" fill="#41B6E6"/>
<path d="M95.0696 15.6923V3.57827H97.9093L98.0452 4.50344C98.7854 3.66135 99.8918 3.37814 100.866 3.42723C103.37 3.57827 104.763 5.14162 104.763 7.86427C104.763 10.4698 103.102 12.3164 100.613 12.3164C99.5028 12.3164 98.7136 11.9803 98.2454 11.4101V15.6961H95.0696V15.6923ZM101.602 7.86049C101.602 6.66721 100.862 5.97994 99.888 5.97994C98.8118 5.97994 98.1736 6.87112 98.1736 7.76231C98.1736 8.80454 98.7778 9.74482 99.888 9.74482C100.862 9.74482 101.602 9.05377 101.602 7.86049Z" fill="#41B6E6"/>
<path d="M109.159 12.1292H106.017V0H109.159V12.1292Z" fill="#41B6E6"/>
<path d="M120.212 3.57957V12.1327H117.274L117.123 11.2075C116.383 12.0458 115.276 12.3328 114.317 12.2837C111.798 12.1478 110.405 10.3352 110.405 7.86556C110.405 5.32795 112.051 3.39453 114.555 3.39453C115.782 3.39453 116.605 3.81369 117.058 4.50474L117.225 3.57957H120.212ZM113.562 7.86178C113.562 9.05506 114.317 9.72723 115.276 9.72723C116.352 9.72723 117.04 8.87003 117.04 7.86178C117.04 6.70249 116.401 5.96235 115.276 5.96235C114.317 5.96613 113.562 6.6685 113.562 7.86178Z" fill="#41B6E6"/>
<path d="M125.94 15.7413H122.613L124.343 11.7423L120.952 3.57812H124.328L125.049 5.6286L125.989 8.58537L127.013 5.60972L127.817 3.57812H131.227L125.94 15.7413Z" fill="#41B6E6"/>
<path d="M132.337 10.5173C132.337 9.66005 132.941 8.82173 134.15 8.82173C135.377 8.82173 135.996 9.67893 135.996 10.5173C135.996 11.3744 135.373 12.2128 134.15 12.2128C132.941 12.2165 132.337 11.3593 132.337 10.5173ZM132.507 0.015625H135.868L135.8 8.14957H132.56L132.507 0.015625Z" fill="#41B6E6"/>
<path d="M77.4008 23.104C77.4008 23.323 77.3744 23.5572 77.3178 23.8026H74.0929C74.2213 24.2104 74.7462 24.3917 75.1238 24.3917C75.6298 24.3917 76.0112 24.2482 76.302 24.0216L77.1441 24.9657C76.5814 25.4906 75.8413 25.7285 75.0407 25.7285C73.5907 25.7285 72.3596 25.011 72.3596 23.3344C72.3596 21.6502 73.6737 20.9063 74.9237 20.9063C76.3435 20.9025 77.4008 21.6993 77.4008 23.104ZM74.9652 22.1449C74.5649 22.1449 74.1609 22.3261 74.1042 22.7075H75.7809C75.762 22.3337 75.3655 22.1449 74.9652 22.1449Z" fill="#41B6E6"/>
<path d="M80.0291 24.4029C80.3387 24.4029 80.4898 24.3311 80.4898 24.1763C80.4898 24.0404 80.3349 23.9573 80.0102 23.9309C79.1152 23.8931 78.0277 23.5306 78.0277 22.4166C78.0277 21.3026 79.0775 20.9023 80.1575 20.9023C80.9014 20.9023 81.5962 21.1289 82.0418 21.465L81.3168 22.4883C81.0524 22.326 80.5389 22.2089 80.1575 22.2089C79.9045 22.2089 79.7496 22.2542 79.7496 22.4355C79.7496 22.5186 79.8025 22.6432 80.0933 22.6545C81.0524 22.6923 82.2117 22.9641 82.2117 24.1763C82.2117 25.328 81.1808 25.7434 80.0668 25.7434C79.2625 25.7434 78.3638 25.5244 77.8389 25.1355L78.3902 23.8855C79.1077 24.3462 79.6477 24.3727 80.0291 24.4029Z" fill="#41B6E6"/>
<path d="M82.967 27.5445V21.0117H84.4964L84.5681 21.5102C84.9684 21.057 85.5651 20.9022 86.09 20.9286C87.4381 21.0117 88.1895 21.8538 88.1895 23.3227C88.1895 24.7275 87.2908 25.7244 85.954 25.7244C85.3574 25.7244 84.9307 25.5431 84.6777 25.2335V27.5445H82.967ZM86.4902 23.3227C86.4902 22.6808 86.0937 22.3069 85.5651 22.3069C84.9835 22.3069 84.6399 22.7865 84.6399 23.2661C84.6399 23.8288 84.9647 24.3348 85.5651 24.3348C86.09 24.3385 86.4902 23.9647 86.4902 23.3227Z" fill="#41B6E6"/>
<path d="M93.8992 23.3268C93.8992 25.0034 92.6115 25.7285 91.3162 25.7285C89.9946 25.7285 88.7522 25.0034 88.7522 23.3268C88.7522 21.6048 89.9832 20.9062 91.3162 20.9062C92.6946 20.91 93.8992 21.6426 93.8992 23.3268ZM92.215 23.3268C92.215 22.8019 91.9167 22.311 91.3162 22.311C90.7196 22.311 90.4288 22.8019 90.4288 23.3268C90.4288 23.8517 90.7083 24.3237 91.3162 24.3237C91.9053 24.3237 92.215 23.8819 92.215 23.3268Z" fill="#41B6E6"/>
<path d="M96.3386 21.5179C96.5916 21.0723 97.0108 20.9023 97.4526 20.9023C97.9321 20.9023 98.3664 21.0647 98.6647 21.3933L97.9775 22.6356C97.6867 22.4166 97.4979 22.3637 97.2071 22.3637C96.7653 22.3637 96.4103 22.6167 96.4103 23.2247V25.6264H94.6997V21.0119H96.2404L96.3386 21.5179Z" fill="#41B6E6"/>
<path d="M101.531 21.0364H102.573V22.3581H101.523V23.861C101.531 24.1857 101.723 24.3141 101.984 24.3141C102.158 24.3141 102.347 24.2613 102.482 24.1518L102.864 25.4206C102.456 25.6471 102.014 25.7302 101.531 25.7302C100.606 25.7302 99.8014 25.3148 99.8278 23.8648V22.3618H99.0952V21.0402H99.8278V19.8997L101.531 19.7109V21.0364Z" fill="#41B6E6"/>
<path d="M105.507 24.4029C105.817 24.4029 105.968 24.3311 105.968 24.1763C105.968 24.0404 105.813 23.9573 105.488 23.9309C104.593 23.8931 103.506 23.5306 103.506 22.4166C103.506 21.3026 104.555 20.9023 105.635 20.9023C106.379 20.9023 107.074 21.1289 107.52 21.465L106.795 22.4883C106.53 22.326 106.017 22.2089 105.635 22.2089C105.382 22.2089 105.228 22.2542 105.228 22.4355C105.228 22.5186 105.281 22.6432 105.571 22.6545C106.53 22.6923 107.69 22.9641 107.69 24.1763C107.69 25.328 106.659 25.7434 105.545 25.7434C104.741 25.7434 103.842 25.5244 103.317 25.1355L103.868 23.8855C104.582 24.3462 105.126 24.3727 105.507 24.4029Z" fill="#41B6E6"/>
</g>
<defs>
<clipPath id="clip0">
<rect width="136" height="57.7419" fill="white"/>
</clipPath>
</defs>
</svg>
