<svg width="106" height="64" viewBox="0 0 106 64" fill="none" xmlns="http://www.w3.org/2000/svg">
<path d="M10.0366 55.5158L8.72678 60.283L6.72078 55.563H5.94198L3.97139 60.283L2.62619 55.5158H0.183594L2.76779 63.7758H4.77379L6.33138 59.7992L7.91258 63.7758H9.91858L12.4674 55.5158H10.0366Z" fill="#010E28"/>
<path d="M16.8429 55.5158H13.3265V63.7758H15.6039V61.4984H16.8429C18.6011 61.4984 19.9109 60.2358 19.9109 58.5012C19.9109 56.7784 18.6011 55.5158 16.8429 55.5158ZM16.5715 59.516H15.6039V57.51H16.5715C17.1733 57.51 17.5627 57.923 17.5627 58.513C17.5627 59.103 17.1733 59.516 16.5715 59.516Z" fill="#010E28"/>
<path d="M33.6571 63.7758L32.4181 55.5158H30.1525L28.1937 60.0116L26.2467 55.5158H23.9693L22.7185 63.7758H25.0313L25.6685 59.0322L27.8515 63.7994H28.5241L30.7189 59.0204L31.3561 63.7758H33.6571Z" fill="#010E28"/>
<path d="M41.157 60.5308C41.157 58.6664 39.741 57.2032 37.6878 57.2032C35.6818 57.2032 34.2304 58.6428 34.2304 60.5898C34.2304 62.5368 35.6936 63.9882 37.6878 63.9882C39.2808 63.9882 40.5788 63.0796 41.0272 61.6282H38.8324C38.6318 62.0058 38.1952 62.23 37.6878 62.23C36.9916 62.23 36.5314 61.8524 36.3898 61.1208H41.1216C41.1452 60.9202 41.157 60.7314 41.157 60.5308ZM37.6878 58.926C38.3486 58.926 38.8088 59.2682 38.9976 59.9054H36.4252C36.6022 59.2682 37.0506 58.926 37.6878 58.926Z" fill="#010E28"/>
<path d="M45.7192 57.3802C44.964 57.3802 44.4212 57.5926 43.9728 58.1118L43.6306 57.4038H42.1556V63.7758H44.3504V60.5426C44.3504 59.7284 44.6808 59.3862 45.4478 59.3862H46.3092V57.3802H45.7192Z" fill="#010E28"/>
<path d="M50.1806 63.9882C51.9742 63.9882 53.343 62.82 53.5908 61.0972H51.4314C51.2544 61.6636 50.7706 62.0294 50.1806 62.0294C49.4136 62.0294 48.859 61.4276 48.859 60.5898C48.859 59.7638 49.4136 59.1738 50.1806 59.1738C50.7588 59.1738 51.2426 59.516 51.4196 60.0352H53.5672C53.3194 58.336 51.986 57.215 50.1924 57.215C48.1274 57.215 46.6642 58.6192 46.6642 60.5898C46.6642 62.5604 48.1392 63.9882 50.1806 63.9882Z" fill="#010E28"/>
<path d="M58.4257 57.2268C57.7885 57.2268 57.1985 57.451 56.7265 57.8286V55.1028H54.5317V63.7758H56.7265V60.3774C56.7265 59.5632 57.1395 59.0912 57.8003 59.0912C58.3785 59.0912 58.6381 59.4688 58.6381 60.2004V63.7758H60.8329V59.9408C60.8329 58.2888 59.8889 57.2268 58.4257 57.2268Z" fill="#010E28"/>
<path d="M67.282 57.4038L67.0578 57.8994C66.5386 57.4628 65.866 57.215 65.1108 57.215C63.1638 57.215 61.7714 58.6192 61.7714 60.5898C61.7714 62.5722 63.1638 63.9882 65.1108 63.9882C65.8542 63.9882 66.515 63.7522 67.0342 63.3274L67.223 63.7758H68.9222V57.4038H67.282ZM65.4058 62.053C64.5798 62.053 63.978 61.4276 63.978 60.5898C63.978 59.7638 64.5798 59.1502 65.4058 59.1502C66.2318 59.1502 66.8336 59.7638 66.8336 60.5898C66.8336 61.4276 66.2318 62.053 65.4058 62.053Z" fill="#010E28"/>
<path d="M74.1541 57.2268C73.3281 57.2268 72.6201 57.5336 72.1481 58.0646L71.8531 57.4038H70.3073V63.7758H72.5021V60.3774C72.5021 59.5632 72.8915 59.0912 73.5759 59.0912C74.1305 59.0912 74.4137 59.457 74.4137 60.2004V63.7758H76.6085V59.8936C76.6085 58.277 75.6291 57.2268 74.1541 57.2268Z" fill="#010E28"/>
<path d="M82.4675 55.1028V57.6398C82.0191 57.3566 81.4763 57.2032 80.8863 57.2032C78.9393 57.2032 77.5469 58.6192 77.5469 60.5898C77.5469 62.5722 78.9393 64 80.8863 64C81.6297 64 82.2905 63.7404 82.8097 63.3038L83.0221 63.7758H84.6387V55.1028H82.4675ZM81.1813 62.053C80.3671 62.053 79.7535 61.4276 79.7535 60.6016C79.7535 59.7638 80.3671 59.1384 81.1813 59.1384C82.0073 59.1384 82.6091 59.7638 82.6091 60.6016C82.6091 61.4276 82.0073 62.053 81.1813 62.053Z" fill="#010E28"/>
<path d="M86.0255 56.6132H88.1967V54.7488H86.0255V56.6132ZM86.0137 63.7758H88.2085V57.4038H86.0137V63.7758Z" fill="#010E28"/>
<path d="M92.0404 63.9882C93.7395 63.9882 94.8606 63.115 94.8606 61.7816C94.8606 60.1768 93.5272 59.9644 92.5124 59.7874C91.9106 59.6812 91.4268 59.5868 91.4268 59.2328C91.4268 58.9378 91.6628 58.7608 92.0168 58.7608C92.4062 58.7608 92.6776 58.9496 92.6776 59.3508H94.7425C94.7189 58.0646 93.657 57.2032 92.0404 57.2032C90.412 57.2032 89.3146 58.0292 89.3146 59.3036C89.3146 60.8494 90.6244 61.1444 91.6156 61.3096C92.2291 61.404 92.713 61.5102 92.713 61.876C92.713 62.2064 92.4062 62.3716 92.0875 62.3716C91.6746 62.3716 91.3442 62.1592 91.3442 61.6872H89.232C89.2556 63.0678 90.3058 63.9882 92.0404 63.9882Z" fill="#010E28"/>
<path d="M102.45 60.5308C102.45 58.6664 101.034 57.2032 98.9809 57.2032C96.9749 57.2032 95.5235 58.6428 95.5235 60.5898C95.5235 62.5368 96.9867 63.9882 98.9809 63.9882C100.574 63.9882 101.872 63.0796 102.32 61.6282H100.125C99.9249 62.0058 99.4883 62.23 98.9809 62.23C98.2847 62.23 97.8245 61.8524 97.6829 61.1208H102.415C102.438 60.9202 102.45 60.7314 102.45 60.5308ZM98.9809 58.926C99.6417 58.926 100.102 59.2682 100.291 59.9054H97.7183C97.8953 59.2682 98.3437 58.926 98.9809 58.926Z" fill="#010E28"/>
<path d="M103.59 61.0264H105.643V55.2798H103.59V61.0264ZM103.555 63.7758H105.679V61.7462H103.555V63.7758Z" fill="#010E28"/>
<path d="M104.672 34.9834L87.0791 4.49073C87.0606 4.47225 87.0606 4.45377 87.0421 4.43529C86.9313 4.23201 86.8019 4.0472 86.6725 3.8624C86.6356 3.80696 86.5986 3.75152 86.5432 3.69608C86.4138 3.51127 86.2844 3.34495 86.1366 3.17863C86.0812 3.12319 86.0257 3.04926 85.9703 2.97534C85.8409 2.84598 85.7116 2.71662 85.5822 2.58725C85.5083 2.51333 85.4159 2.42093 85.3419 2.34701C85.2311 2.23613 85.1202 2.14372 84.9908 2.05132C84.8799 1.95892 84.7691 1.84804 84.6397 1.77412C84.5288 1.7002 84.4364 1.62627 84.3255 1.55235C84.1777 1.45995 84.0483 1.36755 83.9005 1.27515C83.8635 1.25667 83.845 1.23819 83.8081 1.21971C83.7157 1.18274 83.6417 1.1273 83.5493 1.09034C83.42 1.01642 83.2721 0.9425 83.1243 0.868578C82.9765 0.813137 82.8471 0.739215 82.6992 0.683774C82.5699 0.646813 82.459 0.591372 82.3296 0.535931C82.1633 0.48049 81.997 0.425049 81.8307 0.388088C81.7198 0.351127 81.6089 0.332647 81.498 0.295686C81.3317 0.258725 81.1469 0.221765 80.9806 0.184804C80.8697 0.166323 80.7588 0.147843 80.6479 0.129363C80.4816 0.110882 80.3153 0.0924019 80.149 0.0739215C80.0196 0.0554412 79.8902 0.0554412 79.7609 0.0369608C79.613 0.0184804 79.4652 0.0184804 79.3173 0.0184804C79.1695 0.0184804 79.0217 0.0184804 78.8738 0.0369608C78.7444 0.0369608 78.6151 0.0554412 78.5042 0.0739215C78.3379 0.0924019 78.1716 0.110882 78.0052 0.129363C77.8943 0.147843 77.7835 0.166323 77.6726 0.184804C77.5063 0.221765 77.3215 0.258725 77.1551 0.295686C77.0443 0.332647 76.9334 0.351127 76.8225 0.388088C76.6562 0.425049 76.4898 0.48049 76.342 0.535931C76.2126 0.572892 76.1018 0.628333 75.9724 0.683774C75.8245 0.739215 75.6952 0.813137 75.5473 0.868578C75.3995 0.9425 75.2701 1.01642 75.1223 1.09034C75.0299 1.1273 74.956 1.18274 74.8636 1.21971C74.8266 1.23819 74.8081 1.25667 74.7712 1.27515C74.6233 1.36755 74.494 1.45995 74.3461 1.55235C74.2352 1.62627 74.1428 1.7002 74.032 1.77412C73.9026 1.86652 73.7917 1.95892 73.6808 2.05132C73.5699 2.14372 73.4406 2.23613 73.3297 2.34701C73.2373 2.42093 73.1634 2.51333 73.071 2.58725C72.9416 2.71662 72.8122 2.84598 72.6829 2.97534C72.6274 3.03078 72.572 3.1047 72.5166 3.17863C72.3872 3.34495 72.2394 3.51127 72.11 3.69608C72.073 3.75152 72.0361 3.80696 71.9991 3.8624C71.8697 4.0472 71.7404 4.25049 71.6295 4.43529C71.611 4.45377 71.611 4.47225 71.5925 4.49073L61.7425 21.5481L51.8925 4.49073C51.874 4.47225 51.874 4.45377 51.8555 4.43529C51.837 4.41681 51.8185 4.39833 51.8185 4.36137C51.7631 4.26897 51.7077 4.17657 51.6522 4.08417C51.5598 3.9548 51.4674 3.82544 51.375 3.69608C51.3565 3.65912 51.338 3.64064 51.3011 3.60367C51.2641 3.54823 51.2087 3.47431 51.1532 3.41887C51.0793 3.32647 51.0239 3.25255 50.95 3.17863C50.8945 3.1047 50.8206 3.03078 50.7652 2.95686C50.6543 2.8275 50.5434 2.71662 50.4325 2.60573C50.3216 2.49485 50.1923 2.38397 50.0814 2.27309C50.0259 2.21765 49.952 2.1622 49.8781 2.10676C49.8226 2.05132 49.7487 1.99588 49.6748 1.94044C49.6563 1.92196 49.6378 1.90348 49.6194 1.885C49.5824 1.86652 49.5454 1.82956 49.5085 1.81108C49.49 1.7926 49.453 1.77412 49.4346 1.75564C49.3606 1.71868 49.3052 1.66323 49.2313 1.60779C49.1574 1.55235 49.1019 1.51539 49.028 1.47843C48.8801 1.38603 48.7323 1.29363 48.5845 1.20123C48.4551 1.1273 48.3073 1.05338 48.1779 0.97946C48.1409 0.96098 48.104 0.9425 48.067 0.924019C48.0485 0.924019 48.0301 0.905539 48.0301 0.905539C47.8822 0.831617 47.7344 0.776176 47.5865 0.702255C47.5126 0.665294 47.4572 0.646813 47.3832 0.628333C47.3278 0.591372 47.2539 0.572892 47.18 0.554412H47.1615C47.143 0.535931 47.106 0.535931 47.0876 0.535931C46.9952 0.49897 46.9212 0.48049 46.8473 0.443529C46.8288 0.443529 46.8104 0.425049 46.7919 0.425049C46.6625 0.388088 46.5331 0.332647 46.4038 0.295686C46.219 0.240245 46.0342 0.203284 45.8494 0.166323C45.7015 0.129363 45.5722 0.110882 45.4243 0.0924019C45.3874 0.0924019 45.3319 0.0739215 45.2765 0.0739215C45.221 0.0554412 45.1656 0.0554412 45.1102 0.0554412C44.9993 0.0369608 44.8884 0.0369608 44.7775 0.0184804C44.7405 0.0184804 44.7036 0.0184804 44.6666 0.0184804C44.6297 0.0184804 44.5927 0.0184804 44.5557 0.0184804C44.4079 0.0184804 44.2601 0 44.1122 0H44.0937C43.9089 0 43.7241 0 43.5578 0.0184804C43.5208 0.0184804 43.5024 0.0184804 43.4839 0.0184804C43.4284 0.0184804 43.3915 0.0184804 43.336 0.0369608C43.2991 0.0369608 43.2436 0.0369608 43.2067 0.0554412C43.1328 0.0554412 43.0588 0.0739215 42.9849 0.0924019C42.948 0.0924019 42.8925 0.110882 42.8371 0.110882C42.6892 0.129363 42.5599 0.147843 42.412 0.184804C42.3196 0.203284 42.2272 0.221765 42.1348 0.240245C41.8576 0.295686 41.5804 0.369608 41.3032 0.46201C41.0999 0.535931 40.9151 0.591372 40.7118 0.683774C40.5085 0.757696 40.3237 0.850098 40.1389 0.9425C39.9726 1.01642 39.8248 1.10882 39.6584 1.20123C39.5291 1.27515 39.3997 1.34907 39.2888 1.44147C39.2334 1.47843 39.1964 1.49691 39.141 1.53387C38.9747 1.64475 38.8083 1.77412 38.642 1.885C38.4942 1.99588 38.3463 2.12524 38.217 2.23613C38.18 2.27309 38.1431 2.29157 38.0876 2.34701C38.0691 2.36549 38.0507 2.38397 38.0322 2.40245C37.9582 2.45789 37.8843 2.53181 37.8289 2.60573C37.7919 2.62421 37.7734 2.66118 37.755 2.67966C37.718 2.71662 37.6995 2.7351 37.6626 2.77206L37.6441 2.79054C37.5886 2.86446 37.5147 2.9199 37.4593 2.99382C37.4223 3.03078 37.3854 3.06774 37.3484 3.1047C37.3114 3.14167 37.2745 3.19711 37.2375 3.23407C37.1636 3.32647 37.0897 3.41887 37.0157 3.51127C36.9973 3.52975 36.9973 3.54823 36.9788 3.54823C36.9233 3.62216 36.8494 3.71456 36.8125 3.78848C36.757 3.8624 36.7016 3.9548 36.6461 4.02872C36.6092 4.06568 36.5907 4.12113 36.5537 4.15809C36.5168 4.19505 36.4983 4.25049 36.4613 4.30593C36.4244 4.36137 36.3874 4.41681 36.3689 4.45377L36.332 4.50921L36.295 4.56466L26.5374 21.4927L16.7058 4.50921C14.2479 0.221765 8.75924 -1.25667 4.49027 1.21971C0.202826 3.6776 -1.2756 9.16627 1.20077 13.4352L18.4245 43.2626C18.6462 43.7431 18.905 44.2051 19.2191 44.6301L19.367 44.8889C19.367 44.8704 19.3855 44.8704 19.3855 44.8519C20.0877 45.7944 20.9933 46.6075 22.0651 47.2174C26.3526 49.6938 31.8228 48.2153 34.2807 43.9279L44.0937 26.889L44.1122 26.8705L53.9623 43.9279C53.9807 43.9464 53.9992 43.9648 53.9992 43.9833C54.1101 44.1681 54.2395 44.3529 54.3688 44.5377C54.4058 44.5932 54.4612 44.6671 54.4982 44.7225C54.6276 44.8889 54.7569 45.0552 54.8863 45.203C54.9417 45.2769 54.9972 45.3509 55.0711 45.4063C55.182 45.5357 55.3113 45.665 55.4407 45.7944C55.5331 45.8868 55.607 45.9607 55.6994 46.0531C55.8103 46.1455 55.9212 46.2379 56.0321 46.3303C56.1614 46.4412 56.2723 46.5336 56.4017 46.626C56.4941 46.6999 56.6049 46.7554 56.6973 46.8293C56.8452 46.9217 56.993 47.0326 57.1409 47.1065C57.1778 47.125 57.1963 47.1435 57.2333 47.1619C57.3072 47.1989 57.3996 47.2359 57.4735 47.2913C57.6214 47.3652 57.7692 47.4391 57.9171 47.5131C58.0464 47.5685 58.1943 47.6424 58.3421 47.6979C58.4715 47.7533 58.6008 47.8088 58.7117 47.8457C58.878 47.9012 59.0259 47.9566 59.1922 47.9936C59.3031 48.0305 59.414 48.049 59.5249 48.086C59.6912 48.1229 59.8575 48.1599 60.0423 48.1968C60.1532 48.2153 60.2641 48.2338 60.3934 48.2523C60.5598 48.2708 60.7261 48.2892 60.8924 48.3077C61.0218 48.3262 61.1511 48.3262 61.2805 48.3447C61.4283 48.3447 61.5762 48.3447 61.724 48.3447C61.8719 48.3447 62.0197 48.3447 62.1675 48.3447C62.2969 48.3262 62.4263 48.3262 62.5372 48.3077C62.7035 48.2892 62.8698 48.2708 63.0361 48.2523C63.147 48.2338 63.2579 48.2153 63.3688 48.1968C63.5351 48.1599 63.7199 48.1229 63.8862 48.086C63.9971 48.049 64.108 48.0305 64.2189 47.9936C64.3852 47.9566 64.533 47.9012 64.6994 47.8457C64.8287 47.8088 64.9396 47.7533 65.069 47.6979C65.1983 47.6424 65.3462 47.587 65.494 47.5131C65.6419 47.4391 65.7897 47.3652 65.9375 47.2913C66.0115 47.2543 66.1039 47.2174 66.1778 47.1619C66.2148 47.1435 66.2332 47.125 66.2702 47.1065C66.418 47.0141 66.5659 46.9217 66.7137 46.8293C66.7876 46.7923 66.8431 46.7369 66.917 46.6815C66.954 46.663 66.9909 46.6445 67.0094 46.626C67.0279 46.6075 67.0464 46.6075 67.0464 46.5891C67.1572 46.4966 67.2681 46.4227 67.3605 46.3303C67.416 46.2934 67.4714 46.2379 67.5269 46.201C67.5453 46.1825 67.5638 46.164 67.5823 46.1455C67.6008 46.1455 67.6193 46.127 67.6193 46.1086C67.6377 46.0901 67.6562 46.0716 67.6747 46.0716C67.7301 46.0162 67.8041 45.9422 67.8595 45.8868C67.878 45.8683 67.8965 45.8498 67.9334 45.8129C67.9889 45.7574 68.0443 45.702 68.0813 45.665L68.0997 45.6465C68.1737 45.5726 68.2291 45.5172 68.303 45.4433C68.34 45.4063 68.3585 45.3693 68.3954 45.3139C68.4324 45.2769 68.4509 45.2585 68.4694 45.2215C68.5618 45.0921 68.6726 44.9813 68.7466 44.8519C68.7835 44.8149 68.8205 44.778 68.8574 44.7225C68.8944 44.6671 68.9498 44.5932 68.9868 44.5377C69.0238 44.4823 69.0607 44.4268 69.0977 44.3714C69.1901 44.242 69.2825 44.1127 69.3564 43.9833C69.3749 43.9648 69.3934 43.9464 69.3934 43.9279L79.2434 26.8705L89.0935 43.9279C91.5698 48.2153 97.04 49.6753 101.309 47.1989C105.67 44.741 107.13 39.2708 104.672 34.9834ZM49.1389 2.67966C49.2867 2.79054 49.4161 2.9199 49.5639 3.03078C49.7487 3.19711 49.9335 3.36343 50.0999 3.56671C50.2847 3.77 50.451 3.97328 50.6173 4.19505C51.4859 5.37779 52.0218 6.80078 52.1512 8.24225C52.1881 8.53794 52.1881 8.8521 52.1881 9.14779C52.1697 10.1642 51.9479 11.1806 51.5228 12.1416C51.5228 12.1601 51.5044 12.1786 51.5044 12.1786L50.0259 6.35725L49.8042 5.47019L49.6378 4.84186L49.3791 3.84392L49.065 2.60573C49.0834 2.6427 49.1019 2.66118 49.1389 2.67966ZM48.1594 4.43529L48.4181 3.71456L48.6399 4.56466L48.991 5.95068L49.2128 6.83774L50.6543 12.5112L49.6933 11.9568L47.4017 10.6447L46.2005 9.94245L46.3853 9.425L46.7364 8.46402L46.8288 8.18681L47.2908 6.91166L48.1594 4.43529ZM24.2458 44.316L26.8146 39.8437L27.6462 40.3242L24.2458 44.316ZM28.4408 40.7677L32.9316 43.355L24.098 45.8683L28.4408 40.7677ZM26.5004 38.624L25.5394 38.0696L28.6257 29.3653L33.9665 25.6877L26.5004 38.624ZM10.0713 8.11289L9.23973 8.59338L6.634 4.06568L10.0713 8.11289ZM6.56008 2.60573L15.3013 5.08211L10.866 7.65088L6.56008 2.60573ZM16.3547 22.7309L10.9954 19.0533L7.94611 10.3675L8.92557 9.81308L16.3547 22.7309ZM12.0487 24.6344L4.23155 15.4496L10.2746 19.6077L12.0487 24.6344ZM11.5128 20.4578L17.2972 24.4311L17.8331 31.4351L13.6565 26.5194L11.5128 20.4578ZM21.6216 30.0676L19.0898 25.6693L22.7119 28.1641L21.6216 30.0676ZM24.098 25.7617L23.3957 23.7473L24.5045 25.0594L24.098 25.7617ZM23.5251 26.7596L23.1555 27.3879L18.1473 23.9506L17.6113 16.9465L21.7879 21.8438L23.5251 26.7596ZM17.9625 32.9505L18.2212 36.1846C18.1288 36.4064 18.0549 36.6096 17.9994 36.8314L14.5066 28.8664L17.9625 32.9505ZM18.9789 34.6507L18.9419 34.0963L19.1637 34.355L18.9789 34.6507ZM19.6257 33.5419L18.8126 32.5994L18.3136 26.1313L21.1041 30.9731L19.6257 33.5419ZM27.369 30.2154L24.7448 37.6261L20.3095 35.0758L27.369 30.2154ZM21.8064 32.9505L29.6606 23.7473L27.868 28.7924L21.8064 32.9505ZM29.1246 27.9239L31.2683 21.8438L35.4449 16.9465L34.909 23.9506L29.1246 27.9239ZM35.2786 10.4969L36.0732 8.26073C36.0363 8.55642 36.0363 8.87058 36.0363 9.16627L35.796 12.3079L35.5558 15.4311L32.0815 19.4968L35.2786 10.4969ZM37.2006 14.8952L38.2909 13.62L39.104 12.6591L40.8227 10.6447L41.8391 9.44348L42.3935 8.77818L42.5783 8.88906L43.2252 9.25867L43.373 9.35107L42.3935 11.0513L40.1574 14.9137L39.7139 15.6898L39.6584 15.7822L38.679 17.4824L35.9254 22.2689L36.4244 15.8007L37.2006 14.8952ZM41.0075 19.7555L40.2868 20.2545L36.7016 22.7124L39.1964 18.3695V18.351L39.6954 17.4824L39.7878 17.3161L40.2498 16.503L40.4346 16.1888L40.8781 15.4126L42.7631 12.1416L43.3545 11.1252L44.0937 9.85004L44.1307 9.7946L45.1102 10.349L44.833 11.1252L44.0937 13.2135L43.6317 14.5441L42.8555 16.7617L42.5599 17.6303L42.1718 18.7206L42.0609 19.0348L41.5619 19.3674L41.0075 19.7555ZM44.0937 8.07593L43.798 8.59338L43.1328 8.22377L42.9479 8.11289L43.0219 8.03897L43.6317 7.31823L44.0753 6.80078L44.6666 6.11701L46.4038 4.08417L45.0178 6.48661L44.5557 7.29975L44.0937 8.07593ZM46.2005 2.95686L45.5722 3.69608L44.1122 5.41475L43.5208 6.09853L43.1882 6.48661L42.5783 7.20735L42.1903 7.65088L42.1163 7.61392L40.9336 6.93014L39.2334 5.95068L38.4387 5.48867L37.755 5.10059L38.6051 4.86034L39.5845 4.58314L40.065 4.45377L42.6523 3.71456L44.1122 3.30799L45.7385 2.84598L46.4962 2.64269L46.2005 2.95686ZM35.7591 24.4495L40.7303 21.0492H40.7488L41.1184 21.7145V21.7329L39.4182 26.5563L35.2232 31.4351L35.7591 24.4495ZM41.6913 22.7124V22.6939L42.0794 21.6036L42.4859 20.4578L42.7816 19.6077L42.874 19.5522L44.1122 18.7021L44.8884 18.1662L44.9069 18.1477L45.6646 17.6303L47.7528 16.1888L48.4921 15.6898L48.8432 15.4496L48.5475 15.7822L47.9377 16.503L46.0527 18.7206L45.3504 19.5522L44.1122 20.9937L43.5208 21.6775L42.6892 22.6569L42.0794 23.3592V23.3777L41.0075 24.6344L41.6913 22.7124ZM48.0485 14.9137L47.3093 15.4311L45.3504 16.7802L44.5927 17.2976L44.0937 17.6303L43.3176 18.1662L43.2806 18.1847L43.2991 18.1477L43.6132 17.2792L44.1122 15.8747L44.5742 14.5441L45.4243 12.1416L45.8124 11.0328L45.8863 10.7925L49.1019 12.6406L50.3031 13.3244L49.9151 13.5831L48.0485 14.9137ZM47.18 4.50921L46.0711 7.61392L45.6276 8.88906L45.4058 9.49892L44.9808 9.25867L44.5742 9.01843L45.0547 8.18681L45.1656 8.00201L45.6276 7.18887L47.18 4.50921ZM38.1246 3.56671C38.9562 2.64269 39.9541 1.94044 41.0814 1.49691C41.3217 1.40451 41.5619 1.31211 41.8022 1.23819C41.9315 1.20123 42.0794 1.16426 42.2087 1.1273C42.2457 1.1273 42.2827 1.1273 42.3196 1.1273C42.4305 1.09034 42.5414 1.07186 42.6707 1.05338C42.8001 1.01642 42.911 1.01642 43.0404 0.997941C43.1143 0.97946 43.2067 0.97946 43.2806 0.96098C43.336 0.96098 43.3915 0.9425 43.4284 0.9425C43.5208 0.9425 43.6317 0.924019 43.7241 0.924019C43.9828 0.905539 44.2416 0.905539 44.4818 0.924019C44.5742 0.924019 44.6851 0.924019 44.7775 0.9425C44.833 0.9425 44.8884 0.9425 44.9254 0.96098C44.9993 0.97946 45.0917 0.97946 45.1656 0.997941C45.295 1.01642 45.4243 1.0349 45.5352 1.05338C45.6461 1.07186 45.757 1.09034 45.8863 1.1273C45.9233 1.1273 45.9603 1.14578 45.9972 1.16426C46.1266 1.20122 46.2744 1.23819 46.4038 1.27515C46.644 1.34907 46.8843 1.42299 47.1245 1.53387L44.0937 2.38397L42.4675 2.84598L42.0055 2.97534L38.8453 3.88088L37.6071 4.23201H37.5886C37.755 3.99176 37.9398 3.77 38.1246 3.56671ZM36.7016 12.1601L37.2006 5.80284L38.217 6.39421L39.0116 6.85622L41.4141 8.22377L41.6174 8.35313L41.488 8.50098L38.5127 11.9753L36.7201 14.0821L36.5353 14.2853L36.5722 13.8233V13.8048L36.7016 12.1601ZM35.0199 8.5749L30.4922 21.4003L21.677 31.7493L26.8515 22.7678C26.9255 22.657 26.9994 22.5645 27.0733 22.4537L27.0548 22.4167L35.0199 8.5749ZM26.0199 22.4352L24.985 24.2278L22.5826 21.4003L18.0364 8.5749L26.0199 22.4352ZM20.9563 19.5153L17.5005 15.4496L16.9276 8.13137L20.9563 19.5153ZM17.1309 22.2873L9.68326 9.35107L10.6627 8.79666L16.6319 15.8007L17.1309 22.2873ZM16.521 14.3038L11.4389 8.35313L15.8557 5.80284L16.521 14.3038ZM15.4676 4.21353L5.93174 1.51539C9.33213 0.129363 13.2869 1.21971 15.4676 4.21353ZM8.48204 9.03691L7.65042 9.5174L5.8763 4.50921L8.48204 9.03691ZM4.00979 2.60573L1.57037 12.2155C0.0734636 8.83362 1.10837 4.86034 4.00979 2.60573ZM4.63812 3.71456L6.85576 9.96093L2.40199 12.5297L4.63812 3.71456ZM7.15145 10.811L9.75718 18.1847L2.73464 13.3613L7.15145 10.811ZM4.04675 16.6139L12.8804 26.9814L17.6483 38.3653C17.5744 38.9382 17.5559 39.4926 17.5929 40.0655L4.04675 16.6139ZM19.8844 44.0203L19.2561 42.9115C18.5723 41.47 18.3321 39.8252 18.5723 38.2359C18.5723 38.2174 18.5908 38.2174 18.5908 38.199L18.5723 38.1805C18.6832 37.5337 18.868 36.8684 19.1452 36.24L21.5846 45.8314C20.9009 45.3139 20.3464 44.7041 19.8844 44.0203ZM19.9584 35.8889L24.4491 38.4762L22.213 44.778L19.9584 35.8889ZM25.2253 38.9197L26.0569 39.4002L23.4696 43.8909L25.2253 38.9197ZM23.5066 46.9402L33.024 44.242C30.8433 47.2174 26.9255 48.3262 23.5066 46.9402ZM33.4675 42.6343L29.0322 40.084L34.1328 34.0963L33.4675 42.6343ZM34.2437 32.5809L28.256 39.6219L27.2951 39.0675L34.7611 26.1128L34.2437 32.5809ZM35.0938 32.9505L38.5681 28.8848L34.5394 40.2872L35.0938 32.9505ZM44.1122 25.1333L43.6132 26.0019L43.5948 26.0204L35.6482 39.8068L40.1759 26.9814L42.5414 24.2093L42.5599 24.1908L43.1512 23.4886L44.0937 22.3797L44.6851 21.696L45.72 20.4763L46.644 19.3859L48.3997 17.3346L49.0095 16.6323L48.5105 17.5009L47.1984 19.7555L46.7549 20.5317L46.7179 20.6056L46.1451 21.622L45.5352 22.6754L45.0547 23.4886L44.1122 25.1333Z" fill="#14BDEF"/>
</svg>
