<svg width="174" height="105" viewBox="0 0 174 105" fill="none" xmlns="http://www.w3.org/2000/svg">
<path d="M16.4752 91.082L14.3251 98.9032L11.0322 91.1595H9.75384L6.51909 98.9032L4.31094 91.082H0.301392L4.54337 104.634H7.83624L10.393 98.1095L12.9886 104.634H16.2815L20.4654 91.082H16.4752Z" fill="#232529"/>
<path d="M27.6476 91.082H21.8754V104.634H25.6137V100.897H27.6476C30.5337 100.897 32.6837 98.8258 32.6837 95.98C32.6837 93.1535 30.5337 91.082 27.6476 91.082ZM27.2021 97.6449H25.6137V94.3538H27.2021C28.1899 94.3538 28.8291 95.0313 28.8291 95.9993C28.8291 96.9673 28.1899 97.6449 27.2021 97.6449Z" fill="#232529"/>
<path d="M55.2487 104.634L53.2148 91.082H49.4958L46.2804 98.458L43.0844 91.082H39.346L37.2928 104.634H41.0893L42.1353 96.8511L45.7187 104.672H46.8228L50.4256 96.8318L51.4715 104.634H55.2487Z" fill="#232529"/>
<path d="M67.5597 99.307C67.5597 96.2482 65.2353 93.8477 61.8649 93.8477C58.5721 93.8477 56.1896 96.2095 56.1896 99.4038C56.1896 102.598 58.5914 104.979 61.8649 104.979C64.4799 104.979 66.6105 103.489 67.3466 101.107H63.7438C63.4145 101.727 62.6978 102.095 61.8649 102.095C60.7221 102.095 59.9667 101.475 59.7343 100.275H67.5015C67.5403 99.9459 67.5597 99.6361 67.5597 99.307ZM61.8649 96.6741C62.9496 96.6741 63.7051 97.2355 64.015 98.2809H59.7924C60.0829 97.2355 60.819 96.6741 61.8649 96.6741Z" fill="#232529"/>
<path d="M75.0483 94.1406C73.8086 94.1406 72.9176 94.4891 72.1816 95.3409L71.6198 94.1793H69.1986V104.633H72.8014V99.3289C72.8014 97.9931 73.3437 97.4317 74.6028 97.4317H76.0168V94.1406H75.0483Z" fill="#232529"/>
<path d="M82.3718 104.979C85.316 104.979 87.5629 103.063 87.9697 100.236H84.425C84.1345 101.166 83.3403 101.766 82.3718 101.766C81.1128 101.766 80.2024 100.778 80.2024 99.404C80.2024 98.0488 81.1128 97.0808 82.3718 97.0808C83.3209 97.0808 84.1151 97.6423 84.4056 98.4941H87.9309C87.5242 95.7063 85.3354 93.8672 82.3912 93.8672C79.0015 93.8672 76.5996 96.171 76.5996 99.404C76.5996 102.637 79.0208 104.979 82.3718 104.979Z" fill="#232529"/>
<path d="M95.9061 93.887C94.8601 93.887 93.8916 94.2549 93.1168 94.8744V90.4023H89.514V104.631H93.1168V99.056C93.1168 97.7202 93.7948 96.9458 94.8795 96.9458C95.8286 96.9458 96.2547 97.5653 96.2547 98.7656V104.631H99.8575V98.3397C99.8575 95.6294 98.3079 93.887 95.9061 93.887Z" fill="#232529"/>
<path d="M110.444 94.1769L110.076 94.99C109.224 94.2737 108.12 93.8672 106.88 93.8672C103.684 93.8672 101.398 96.171 101.398 99.404C101.398 102.656 103.684 104.979 106.88 104.979C108.1 104.979 109.185 104.592 110.037 103.895L110.347 104.631H113.137V94.1769H110.444ZM107.364 101.805C106.008 101.805 105.021 100.778 105.021 99.404C105.021 98.0488 106.008 97.0421 107.364 97.0421C108.72 97.0421 109.708 98.0488 109.708 99.404C109.708 100.778 108.72 101.805 107.364 101.805Z" fill="#232529"/>
<path d="M121.725 93.8867C120.369 93.8867 119.207 94.3901 118.432 95.2612L117.948 94.1771H115.41V104.631H119.013V99.0557C119.013 97.7199 119.652 96.9455 120.776 96.9455C121.686 96.9455 122.151 97.5456 122.151 98.7653V104.631H125.754V98.2619C125.754 95.6097 124.146 93.8867 121.725 93.8867Z" fill="#232529"/>
<path d="M135.371 90.4023V94.5646C134.635 94.1 133.744 93.8483 132.776 93.8483C129.58 93.8483 127.294 96.1714 127.294 99.4045C127.294 102.657 129.58 104.999 132.776 104.999C133.996 104.999 135.081 104.573 135.933 103.857L136.282 104.631H138.935V90.4023H135.371ZM133.26 101.805C131.923 101.805 130.916 100.779 130.916 99.4238C130.916 98.0493 131.923 97.0233 133.26 97.0233C134.616 97.0233 135.604 98.0493 135.604 99.4238C135.604 100.779 134.616 101.805 133.26 101.805Z" fill="#232529"/>
<path d="M141.212 92.8791H144.776V89.8203H141.212V92.8791ZM141.192 104.63H144.795V94.1762H141.192V104.63Z" fill="#232529"/>
<path d="M151.085 104.979C153.875 104.979 155.715 103.547 155.715 101.359C155.715 98.7262 153.526 98.3777 151.86 98.0874C150.872 97.9131 150.078 97.7582 150.078 97.1775C150.078 96.6935 150.466 96.4031 151.047 96.4031C151.686 96.4031 152.131 96.7128 152.131 97.3711H155.521C155.482 95.2609 153.739 93.8477 151.085 93.8477C148.412 93.8477 146.611 95.2028 146.611 97.2936C146.611 99.8297 148.761 100.314 150.388 100.585C151.395 100.74 152.19 100.914 152.19 101.514C152.19 102.056 151.686 102.327 151.163 102.327C150.485 102.327 149.943 101.979 149.943 101.204H146.475C146.514 103.469 148.238 104.979 151.085 104.979Z" fill="#232529"/>
<path d="M168.173 99.307C168.173 96.2482 165.848 93.8477 162.478 93.8477C159.185 93.8477 156.803 96.2095 156.803 99.4038C156.803 102.598 159.205 104.979 162.478 104.979C165.093 104.979 167.224 103.489 167.959 101.107H164.356C164.028 101.727 163.311 102.095 162.478 102.095C161.335 102.095 160.58 101.475 160.347 100.275H168.115C168.153 99.9459 168.173 99.6361 168.173 99.307ZM162.478 96.6741C163.563 96.6741 164.318 97.2355 164.629 98.2809H160.406C160.696 97.2355 161.432 96.6741 162.478 96.6741Z" fill="#232529"/>
<path d="M170.044 100.123H173.414V90.6953H170.044V100.123ZM169.986 104.634H173.473V101.304H169.986V104.634Z" fill="#232529"/>
<path d="M171.82 57.3946L142.941 7.3676C142.911 7.33728 142.911 7.30697 142.88 7.27665C142.699 6.94314 142.486 6.63994 142.274 6.33675C142.213 6.24579 142.152 6.15484 142.061 6.06388C141.849 5.76068 141.637 5.48781 141.394 5.21494C141.303 5.12398 141.212 5.00269 141.121 4.88142C140.909 4.66919 140.696 4.45695 140.484 4.24471C140.363 4.12343 140.211 3.97184 140.09 3.85056C139.908 3.66865 139.726 3.51704 139.513 3.36545C139.331 3.21385 139.149 3.03194 138.937 2.91067C138.755 2.78939 138.603 2.6681 138.421 2.54682C138.178 2.39523 137.966 2.24364 137.723 2.09204C137.663 2.06172 137.632 2.03141 137.572 2.00109C137.42 1.94043 137.299 1.84948 137.147 1.78884C136.935 1.66756 136.692 1.54629 136.449 1.42501C136.207 1.33405 135.994 1.21277 135.752 1.12182C135.539 1.06118 135.357 0.97022 135.145 0.879262C134.872 0.788304 134.599 0.697346 134.326 0.636707C134.144 0.576068 133.962 0.545749 133.78 0.48511C133.507 0.424471 133.203 0.363833 132.93 0.303194C132.748 0.272874 132.566 0.242555 132.384 0.212236C132.111 0.181916 131.838 0.151597 131.565 0.121277C131.353 0.0909582 131.141 0.0909582 130.928 0.0606388C130.685 0.0303194 130.443 0.0303194 130.2 0.0303194C129.957 0.0303194 129.715 0.0303194 129.472 0.0606388C129.26 0.0606388 129.047 0.0909582 128.865 0.121277C128.592 0.151597 128.319 0.181916 128.046 0.212236C127.864 0.242555 127.682 0.272874 127.5 0.303194C127.227 0.363833 126.924 0.424471 126.651 0.48511C126.469 0.545749 126.287 0.576068 126.105 0.636707C125.832 0.697346 125.559 0.788304 125.316 0.879262C125.104 0.939901 124.922 1.03086 124.709 1.12182C124.467 1.21277 124.254 1.33405 124.012 1.42501C123.769 1.54629 123.557 1.66756 123.314 1.78884C123.162 1.84948 123.041 1.94043 122.889 2.00109C122.829 2.03141 122.798 2.06172 122.738 2.09204C122.495 2.24364 122.283 2.39523 122.04 2.54682C121.858 2.6681 121.706 2.78939 121.524 2.91067C121.312 3.06226 121.13 3.21385 120.948 3.36545C120.766 3.51704 120.553 3.66865 120.371 3.85056C120.22 3.97184 120.098 4.12343 119.947 4.24471C119.734 4.45695 119.522 4.66919 119.31 4.88142C119.219 4.97237 119.128 5.09365 119.037 5.21494C118.824 5.48781 118.582 5.76068 118.369 6.06388C118.309 6.15484 118.248 6.24579 118.187 6.33675C117.975 6.63994 117.763 6.97346 117.58 7.27665C117.55 7.30697 117.55 7.33728 117.52 7.3676L101.351 35.3523L85.182 7.3676C85.1517 7.33728 85.1516 7.30697 85.1213 7.27665C85.0909 7.24633 85.0605 7.21601 85.0605 7.15537C84.9696 7.00378 84.8787 6.85218 84.7876 6.70059C84.6359 6.48834 84.4842 6.27611 84.3325 6.06388C84.3022 6.00324 84.2718 5.97292 84.2112 5.91227C84.1505 5.82131 84.0596 5.70004 83.9685 5.60908C83.8471 5.45749 83.7562 5.33621 83.6349 5.21494C83.5438 5.09365 83.4225 4.97237 83.3316 4.8511C83.1495 4.63887 82.9675 4.45695 82.7854 4.27503C82.6034 4.09311 82.3911 3.9112 82.2091 3.72929C82.118 3.63833 81.9967 3.54736 81.8754 3.4564C81.7843 3.36545 81.663 3.27449 81.5416 3.18353C81.5113 3.15322 81.4809 3.1229 81.4507 3.09258C81.39 3.06226 81.3292 3.00162 81.2687 2.9713C81.2383 2.94098 81.1776 2.91067 81.1474 2.88035C81.0259 2.81971 80.9349 2.72874 80.8136 2.63778C80.6923 2.54682 80.6012 2.48619 80.4799 2.42555C80.2371 2.27396 79.9945 2.12236 79.7519 1.97077C79.5395 1.84948 79.2969 1.7282 79.0845 1.60693C79.0237 1.57661 78.9632 1.54629 78.9024 1.51597C78.8721 1.51597 78.8419 1.48565 78.8419 1.48565C78.5991 1.36437 78.3565 1.27341 78.1137 1.15214C77.9924 1.0915 77.9014 1.06118 77.78 1.03086C77.689 0.97022 77.5677 0.939901 77.4464 0.909582H77.416C77.3857 0.879262 77.3249 0.879262 77.2947 0.879262C77.1431 0.818623 77.0216 0.788304 76.9003 0.727665C76.8699 0.727665 76.8397 0.697346 76.8093 0.697346C76.5969 0.636707 76.3845 0.545749 76.1723 0.48511C75.8689 0.394152 75.5656 0.333513 75.2622 0.272874C75.0194 0.212236 74.8072 0.181916 74.5644 0.151597C74.5038 0.151597 74.4127 0.121277 74.3218 0.121277C74.2307 0.0909582 74.1397 0.0909582 74.0488 0.0909582C73.8668 0.0606388 73.6847 0.0606388 73.5027 0.0303194C73.4419 0.0303194 73.3814 0.0303194 73.3206 0.0303194C73.2601 0.0303194 73.1993 0.0303194 73.1386 0.0303194C72.896 0.0303194 72.6534 0 72.4106 0H72.3802C72.0769 0 71.7735 0 71.5005 0.0303194C71.4398 0.0303194 71.4096 0.0303194 71.3792 0.0303194C71.2881 0.0303194 71.2275 0.0303194 71.1364 0.0606388C71.0759 0.0606388 70.9848 0.0606388 70.9242 0.0909582C70.8029 0.0909582 70.6814 0.121277 70.5601 0.151597C70.4995 0.151597 70.4084 0.181916 70.3175 0.181916C70.0747 0.212236 69.8625 0.242555 69.6197 0.303194C69.468 0.333513 69.3163 0.363833 69.1647 0.394152C68.7096 0.48511 68.2546 0.606388 67.7996 0.757985C67.4659 0.879262 67.1625 0.97022 66.8288 1.12182C66.4951 1.24309 66.1917 1.39469 65.8884 1.54629C65.6154 1.66756 65.3728 1.81916 65.0996 1.97077C64.8874 2.09204 64.675 2.21332 64.4929 2.36491C64.402 2.42555 64.3413 2.45587 64.2503 2.51651C63.9773 2.69842 63.7042 2.91067 63.4312 3.09258C63.1886 3.27449 62.9458 3.48672 62.7336 3.66865C62.6728 3.72929 62.6123 3.75961 62.5211 3.85056C62.4908 3.88088 62.4606 3.9112 62.4302 3.94152C62.3087 4.03248 62.1874 4.15375 62.0965 4.27503C62.0358 4.30534 62.0054 4.366 61.9752 4.39632C61.9144 4.45695 61.8841 4.48727 61.8235 4.54791L61.7931 4.57823C61.702 4.6995 61.5807 4.79046 61.4898 4.91174C61.4291 4.97237 61.3685 5.03301 61.3077 5.09365C61.247 5.1543 61.1864 5.24526 61.1257 5.3059C61.0044 5.45749 60.8831 5.60908 60.7616 5.76068C60.7314 5.791 60.7314 5.82131 60.701 5.82131C60.6099 5.94261 60.4886 6.0942 60.4281 6.21547C60.337 6.33675 60.246 6.48834 60.1549 6.60962C60.0943 6.67026 60.064 6.76123 60.0032 6.82187C59.9427 6.8825 59.9123 6.97346 59.8516 7.06442C59.791 7.15537 59.7303 7.24633 59.6999 7.30697L59.6393 7.39792L59.5786 7.48889L43.5614 35.2615L27.4227 7.39792C23.3881 0.363833 14.3784 -2.06172 7.37082 2.00109C0.332936 6.03356 -2.09391 15.0384 1.97107 22.0421L30.244 70.9777C30.6079 71.766 31.0327 72.524 31.5483 73.2213L31.7911 73.6459C31.7911 73.6155 31.8215 73.6155 31.8215 73.5851C32.9741 75.1314 34.4607 76.4654 36.2201 77.466C43.258 81.5289 52.2374 79.1032 56.2721 72.0692L72.3802 44.1148L72.4106 44.0844L88.5796 72.0692C88.6098 72.0996 88.6402 72.1297 88.6402 72.1601C88.8222 72.4633 89.0346 72.7665 89.2469 73.0697C89.3076 73.1607 89.3986 73.282 89.4593 73.3728C89.6717 73.6458 89.884 73.9187 90.0964 74.1612C90.1873 74.2824 90.2784 74.4038 90.3997 74.4947C90.5818 74.707 90.794 74.9191 91.0064 75.1314C91.1581 75.283 91.2794 75.4043 91.4311 75.5559C91.6131 75.7075 91.7952 75.859 91.9772 76.0106C92.1895 76.1926 92.3715 76.3442 92.5839 76.4958C92.7356 76.617 92.9175 76.7081 93.0691 76.8293C93.3119 76.9809 93.5545 77.1628 93.7973 77.2841C93.8579 77.3144 93.8883 77.3448 93.949 77.375C94.0703 77.4357 94.222 77.4964 94.3433 77.5873C94.5861 77.7085 94.8287 77.8298 95.0715 77.9512C95.2837 78.0421 95.5265 78.1633 95.7691 78.2544C95.9815 78.3453 96.1938 78.4363 96.3758 78.4968C96.6488 78.5879 96.8916 78.6788 97.1645 78.7395C97.3466 78.8 97.5286 78.8304 97.7107 78.8911C97.9837 78.9516 98.2566 79.0123 98.56 79.0729C98.742 79.1032 98.9241 79.1336 99.1363 79.1639C99.4095 79.1943 99.6825 79.2245 99.9554 79.2548C100.168 79.2852 100.38 79.2852 100.593 79.3155C100.835 79.3155 101.078 79.3155 101.321 79.3155C101.563 79.3155 101.806 79.3155 102.049 79.3155C102.261 79.2852 102.473 79.2852 102.655 79.2548C102.928 79.2245 103.201 79.1943 103.474 79.1639C103.656 79.1336 103.838 79.1032 104.02 79.0729C104.293 79.0123 104.597 78.9516 104.87 78.8911C105.052 78.8304 105.234 78.8 105.416 78.7395C105.689 78.6788 105.932 78.5879 106.205 78.4968C106.417 78.4363 106.599 78.3453 106.811 78.2544C107.024 78.1633 107.266 78.0724 107.509 77.9512C107.752 77.8298 107.994 77.7085 108.237 77.5873C108.358 77.5266 108.51 77.466 108.631 77.375C108.692 77.3448 108.722 77.3144 108.783 77.2841C109.026 77.1325 109.269 76.9809 109.511 76.8293C109.632 76.7686 109.724 76.6777 109.845 76.5868C109.906 76.5565 109.966 76.5261 109.997 76.4958C110.027 76.4654 110.057 76.4654 110.057 76.4352C110.239 76.2835 110.421 76.1622 110.573 76.0106C110.664 75.9501 110.755 75.859 110.846 75.7985C110.876 75.7682 110.907 75.7378 110.937 75.7075C110.967 75.7075 110.998 75.6771 110.998 75.6469C111.028 75.6166 111.058 75.5862 111.089 75.5862C111.18 75.4953 111.301 75.3739 111.392 75.283C111.422 75.2527 111.453 75.2223 111.513 75.1618C111.604 75.0707 111.695 74.9798 111.756 74.9191L111.786 74.8888C111.908 74.7675 111.999 74.6767 112.12 74.5554C112.181 74.4947 112.211 74.434 112.272 74.3431C112.332 74.2824 112.363 74.2522 112.393 74.1915C112.545 73.9792 112.727 73.7974 112.848 73.5851C112.909 73.5244 112.969 73.4639 113.03 73.3728C113.091 73.282 113.182 73.1607 113.242 73.0697C113.303 72.9788 113.364 72.8877 113.425 72.7968C113.576 72.5845 113.728 72.3724 113.849 72.1601C113.88 72.1297 113.91 72.0996 113.91 72.0692L130.079 44.0844L146.248 72.0692C150.313 79.1032 159.292 81.4985 166.3 77.4357C173.458 73.4032 175.855 64.4286 171.82 57.3946ZM80.662 4.39632C80.9046 4.57823 81.117 4.79046 81.3596 4.97237C81.663 5.24526 81.9663 5.51813 82.2394 5.85163C82.5428 6.18516 82.8158 6.51866 83.0888 6.8825C84.5146 8.82294 85.3943 11.1575 85.6067 13.5224C85.6673 14.0076 85.6673 14.523 85.6673 15.0081C85.637 16.6756 85.273 18.3432 84.5752 19.9198C84.5752 19.9502 84.5449 19.9805 84.5449 19.9805L82.118 10.4299L81.7541 8.97453L81.4809 7.94368L81.0563 6.30643L80.5406 4.27503C80.5709 4.33568 80.6012 4.366 80.662 4.39632ZM79.0541 7.27665L79.4788 6.0942L79.8428 7.48889L80.4192 9.76283L80.7833 11.2182L83.1495 20.5262L81.572 19.6166L77.8103 17.464L75.8385 16.3118L76.1419 15.4629L76.7182 13.8863L76.8699 13.4315L77.6283 11.3394L79.0541 7.27665ZM39.7997 72.7059L44.0164 65.3686L45.3815 66.1569L39.7997 72.7059ZM46.6858 66.8845L54.0575 71.1293L39.5571 75.2527L46.6858 66.8845ZM43.5007 63.3675L41.9232 62.4579L46.9894 48.1774L55.7563 42.1439L43.5007 63.3675ZM16.5321 13.3102L15.1671 14.0985L10.8898 6.67026L16.5321 13.3102ZM10.7684 4.27503L25.1172 8.33784L17.8366 12.5522L10.7684 4.27503ZM26.8464 37.2929L18.049 31.2593L13.0436 17.0092L14.6514 16.0996L26.8464 37.2929ZM19.778 40.4158L6.94613 25.347L16.8658 32.1689L19.778 40.4158ZM18.8984 33.5636L28.3935 40.0823L29.2732 51.5732L22.4173 43.5084L18.8984 33.5636ZM35.4921 49.3297L31.3361 42.1137L37.2818 46.2067L35.4921 49.3297ZM39.5571 42.2653L38.4043 38.9604L40.2244 41.1131L39.5571 42.2653ZM38.6167 43.9025L38.01 44.9333L29.789 39.2939L28.9091 27.8029L35.765 35.8375L38.6167 43.9025ZM29.4856 54.0594L29.9103 59.3654C29.7586 59.7292 29.6373 60.0626 29.5462 60.4265L23.8127 47.3589L29.4856 54.0594ZM31.154 56.8488L31.0933 55.9392L31.4574 56.3637L31.154 56.8488ZM32.2158 55.0297L30.8811 53.4834L30.0619 42.8717L34.6426 50.8152L32.2158 55.0297ZM44.9265 49.5721L40.6188 61.7303L33.3382 57.5462L44.9265 49.5721ZM35.7954 54.0594L48.6882 38.9604L45.7456 47.2375L35.7954 54.0594ZM47.8083 45.8126L51.3272 35.8375L58.1831 27.8029L57.3034 39.2939L47.8083 45.8126ZM57.9101 17.2215L59.2145 13.5528C59.1539 14.0379 59.1539 14.5533 59.1539 15.0384L58.7595 20.1926L58.3652 25.3166L52.6621 31.9869L57.9101 17.2215ZM61.0651 24.4374L62.8549 22.3453L64.1896 20.7688L67.0108 17.464L68.6793 15.4932L69.5893 14.4017L69.8927 14.5836L70.9546 15.19L71.1972 15.3416L69.5893 18.131L65.9187 24.4678L65.1907 25.7411L65.0996 25.8927L63.4919 28.6821L58.9719 36.5349L59.791 25.923L61.0651 24.4374ZM67.3142 32.4114L66.1312 33.23L60.246 37.2625L64.3413 30.1375V30.1071L65.1604 28.6821L65.312 28.4092L66.0704 27.0752L66.3738 26.5597L67.1018 25.2863L70.196 19.9198L71.1668 18.2523L72.3802 16.1602L72.4409 16.0693L74.0488 16.9788L73.5938 18.2523L72.3802 21.6784L71.6218 23.8614L70.3477 27.4997L69.8625 28.9247L69.2254 30.7135L69.0434 31.229L68.2242 31.7746L67.3142 32.4114ZM72.3802 13.2496L71.8948 14.0985L70.8029 13.4921L70.4994 13.3102L70.6208 13.1889L71.6218 12.0065L72.35 11.1575L73.3206 10.0357L76.1723 6.70059L73.8971 10.6421L73.1386 11.9762L72.3802 13.2496ZM75.8385 4.8511L74.8072 6.06388L72.4106 8.88357L71.4398 10.0054L70.8938 10.6421L69.8927 11.8246L69.2558 12.5522L69.1343 12.4916L67.1929 11.3698L64.402 9.76283L63.0975 9.00485L61.9752 8.36816L63.3706 7.97399L64.9783 7.51921L65.7671 7.30697L70.0141 6.0942L72.4106 5.42717L75.0802 4.66919L76.3239 4.33566L75.8385 4.8511ZM58.6989 40.1125L66.8592 34.5338H66.8895L67.4962 35.6254V35.6555L64.7053 43.5689L57.8192 51.5732L58.6989 40.1125ZM68.4367 37.2625V37.2322L69.0737 35.4434L69.741 33.5636L70.2264 32.1689L70.3781 32.0778L72.4106 30.6831L73.6847 29.8039L73.7151 29.7736L74.9589 28.9247L78.3867 26.5597L79.6002 25.7411L80.1766 25.347L79.6912 25.8927L78.6902 27.0752L75.5959 30.7135L74.4431 32.0778L72.4106 34.4428L71.4398 35.5646L70.0747 37.1715L69.0737 38.3237V38.354L67.3142 40.4158L68.4367 37.2625ZM78.8721 24.4678L77.6587 25.3166L74.4431 27.53L73.1993 28.3789L72.3802 28.9247L71.1062 29.8039L71.0455 29.8343L71.0759 29.7736L71.5915 28.3487L72.4106 26.0444L73.169 23.8614L74.5644 19.9198L75.2015 18.1007L75.3228 17.7064L80.6012 20.7385L82.573 21.8603L81.9361 22.2848L78.8721 24.4678ZM77.4464 7.39792L75.6261 12.4916L74.8981 14.5836L74.534 15.5842L73.8364 15.19L73.169 14.7959L73.9577 13.4315L74.1397 13.1283L74.8981 11.7942L77.4464 7.39792ZM62.5819 5.85163C63.947 4.33566 65.585 3.18353 67.4355 2.45587C67.83 2.30427 68.2242 2.15268 68.6187 2.03141C68.8309 1.97077 69.0737 1.91011 69.286 1.84948C69.3467 1.84948 69.4074 1.84948 69.468 1.84948C69.6501 1.78884 69.8321 1.75852 70.0443 1.7282C70.2568 1.66756 70.4388 1.66756 70.6512 1.63725C70.7725 1.60693 70.9242 1.60693 71.0455 1.57661C71.1365 1.57661 71.2275 1.54629 71.2881 1.54629C71.4398 1.54629 71.6218 1.51597 71.7735 1.51597C72.1982 1.48565 72.623 1.48565 73.0173 1.51597C73.169 1.51597 73.351 1.51597 73.5027 1.54629C73.5938 1.54629 73.6847 1.54629 73.7455 1.57661C73.8668 1.60693 74.0184 1.60693 74.1397 1.63725C74.3522 1.66756 74.5644 1.69788 74.7465 1.7282C74.9285 1.75852 75.1105 1.78884 75.3228 1.84948C75.3835 1.84948 75.4443 1.8798 75.5048 1.91011C75.7172 1.97075 75.9599 2.03141 76.1723 2.09204C76.5666 2.21332 76.961 2.33459 77.3553 2.51651L72.3802 3.9112L69.7108 4.66919L68.9524 4.88142L63.7649 6.36707L61.7324 6.94314H61.702C61.9752 6.54898 62.2785 6.18516 62.5819 5.85163ZM60.246 19.9502L61.0651 9.52028L62.7336 10.4905L64.0379 11.2485L67.9816 13.4921L68.3153 13.7044L68.1029 13.9469L63.219 19.647L60.2764 23.1034L59.973 23.4368L60.0336 22.6789V22.6485L60.246 19.9502ZM57.4855 14.0682L50.0532 35.1099L35.583 52.0887L44.077 37.3534C44.1985 37.1716 44.3198 37.0199 44.4411 36.8381L44.4107 36.7774L57.4855 14.0682ZM42.7119 36.8077L41.0131 39.7487L37.0695 35.1099L29.6069 14.0682L42.7119 36.8077ZM34.4 32.0173L28.7272 25.347L27.7868 13.3405L34.4 32.0173ZM28.1205 36.5651L15.8952 15.3416L17.5029 14.432L27.3014 25.923L28.1205 36.5651ZM27.1194 23.4672L18.7771 13.7044L26.0273 9.52028L27.1194 23.4672ZM25.3902 6.91282L9.737 2.48619C15.3188 0.212236 21.8106 2.00109 25.3902 6.91282ZM13.9233 14.8262L12.5582 15.6145L9.646 7.39792L13.9233 14.8262ZM6.5821 4.27503L2.57777 20.0411C0.120587 14.4927 1.81939 7.97399 6.5821 4.27503ZM7.61351 6.0942L11.2538 16.3421L3.94288 20.5565L7.61351 6.0942ZM11.7392 17.7368L16.0165 29.8343L4.48893 21.9209L11.7392 17.7368ZM6.64277 27.2572L21.1433 44.2664L28.9698 62.9431C28.8485 63.883 28.8182 64.7925 28.8789 65.7325L6.64277 27.2572ZM32.6404 72.2208L31.6091 70.4017C30.4866 68.0367 30.0923 65.3382 30.4866 62.7308C30.4866 62.7004 30.517 62.7004 30.517 62.6702L30.4866 62.6399C30.6686 61.5787 30.972 60.4872 31.427 59.4562L35.4313 75.1921C34.309 74.3431 33.3988 73.3427 32.6404 72.2208ZM32.7619 58.8802L40.1334 63.125L36.4628 73.4639L32.7619 58.8802ZM41.4076 63.8526L42.7726 64.6409L38.5256 72.0085L41.4076 63.8526ZM38.5863 77.0113L54.2092 72.5845C50.6296 77.466 44.1985 79.2852 38.5863 77.0113ZM54.9372 69.9469L47.6566 65.7628L56.0293 55.9392L54.9372 69.9469ZM56.2113 53.453L46.3825 65.0047L44.8052 64.0951L57.0607 42.8413L56.2113 53.453ZM57.6068 54.0594L63.3099 47.3891L56.6967 66.0962L57.6068 54.0594ZM72.4106 41.2343L71.5915 42.6594L71.5613 42.6897L58.5168 65.308L65.9491 44.2664L69.8321 39.7184L69.8625 39.688L70.8331 38.536L72.3802 36.7167L73.351 35.595L75.0498 33.5939L76.5666 31.805L79.4486 28.4396L80.4495 27.2874L79.6304 28.7124L77.4766 32.4114L76.7486 33.6848L76.6879 33.8061L75.7476 35.4736L74.7465 37.2018L73.9577 38.536L72.4106 41.2343Z" fill="#232529"/>
</svg>
