<svg width="176" height="75" viewBox="0 0 176 75" fill="none" xmlns="http://www.w3.org/2000/svg">
<g clip-path="url(#clip0)">
<path d="M55.9251 46.6484C52.1769 46.6484 48.6535 48.1096 45.9999 50.7583C40.5267 56.2316 40.5267 65.1354 45.9999 70.6087C48.6486 73.2574 52.1769 74.7185 55.9251 74.7185C59.6734 74.7185 63.1968 73.2574 65.8503 70.6087C68.499 67.96 69.9602 64.4317 69.9602 60.6835C69.9602 56.9353 68.499 53.4118 65.8503 50.7583C63.1968 48.1096 59.6734 46.6484 55.9251 46.6484Z" fill="#171A1E"/>
<path d="M14.0302 46.6484C10.2819 46.6484 6.75852 48.1096 4.10496 50.7583C-1.36832 56.2316 -1.36832 65.1354 4.10496 70.6087C6.75363 73.2574 10.2819 74.7185 14.0302 74.7185C17.7784 74.7185 21.3018 73.2574 23.9554 70.6087C29.4286 65.1354 29.4286 56.2316 23.9554 50.7583C21.3018 48.1096 17.7784 46.6484 14.0302 46.6484Z" fill="#171A1E"/>
<path d="M109.817 50.7631C104.422 45.368 95.7823 46.7803 89.2437 43.379C83.2426 40.2612 77.5495 34.5827 74.0945 28.7918C72.5111 26.1382 71.4849 23.2257 70.7714 20.23C69.8087 16.1788 69.8331 12.025 67.3115 8.51623C62.5957 1.95319 52.9686 0.780343 46.8209 6.03371C41.2939 10.7544 40.3117 19.2233 44.6414 25.068C49.7335 31.9389 58.9501 30.3702 65.9921 33.8595C71.7781 36.728 77.0021 41.8152 80.7455 47.0295C82.5243 49.512 83.8584 52.2536 84.7038 55.1857C85.6421 58.4354 85.5248 61.9051 86.5755 65.1011C89.4929 73.9659 100.576 77.5381 108.126 72.0551C115.002 67.0607 115.833 56.7788 109.817 50.7631Z" fill="#171A1E"/>
<path d="M102.927 10.7854L103.753 7.65289L104.774 4.63281H109.099L105.058 15.7651H101.275L99.7309 11.5673L98.1866 15.7651H94.3602L90.3383 4.63281H94.6437L95.6846 7.67732L96.5349 10.7854L98.4896 4.63281H100.967L102.927 10.7854Z" fill="#171A1E"/>
<path d="M121.507 9.65674C121.507 10.1796 121.443 10.7416 121.311 11.3329H113.575C113.878 12.3103 115.139 12.7452 116.053 12.7452C117.27 12.7452 118.184 12.3983 118.878 11.8558L120.901 14.1184C119.552 15.3792 117.768 15.9461 115.858 15.9461C112.378 15.9461 109.422 14.226 109.422 10.2041C109.422 6.15776 112.574 4.37894 115.574 4.37894C118.966 4.36917 121.507 6.28482 121.507 9.65674ZM115.662 7.35015C114.704 7.35015 113.727 7.78508 113.595 8.69892H117.617C117.573 7.80463 116.62 7.35015 115.662 7.35015Z" fill="#171A1E"/>
<path d="M123.031 20.3091V4.63209H126.706L126.882 5.82937C127.84 4.7396 129.272 4.37308 130.533 4.43661C133.773 4.63209 135.576 6.65524 135.576 10.1787C135.576 13.5506 133.426 15.9403 130.205 15.9403C128.769 15.9403 127.747 15.5053 127.141 14.7674V20.314H123.031V20.3091ZM131.486 10.1738C131.486 8.62953 130.528 7.74013 129.267 7.74013C127.874 7.74013 127.048 8.89342 127.048 10.0467C127.048 11.3955 127.83 12.6123 129.267 12.6123C130.528 12.6123 131.486 11.718 131.486 10.1738Z" fill="#171A1E"/>
<path d="M141.264 15.6966H137.198V0H141.264V15.6966Z" fill="#171A1E"/>
<path d="M155.568 4.63399V15.7027H151.766L151.571 14.5054C150.613 15.5903 149.181 15.9617 147.94 15.8982C144.68 15.7223 142.877 13.3766 142.877 10.1806C142.877 6.8966 145.008 4.39453 148.248 4.39453C149.836 4.39453 150.901 4.93697 151.488 5.83127L151.703 4.63399H155.568ZM146.962 10.1757C146.962 11.7199 147.94 12.5898 149.181 12.5898C150.574 12.5898 151.463 11.4805 151.463 10.1757C151.463 8.67541 150.637 7.71759 149.181 7.71759C147.94 7.72248 146.962 8.63143 146.962 10.1757Z" fill="#171A1E"/>
<path d="M162.981 20.3734H158.676L160.914 15.1982L156.526 4.63281H160.895L161.828 7.28637L163.045 11.1128L164.369 7.26194L165.41 4.63281H169.823L162.981 20.3734Z" fill="#171A1E"/>
<path d="M171.26 13.6099C171.26 12.5006 172.042 11.4157 173.605 11.4157C175.194 11.4157 175.995 12.525 175.995 13.6099C175.995 14.7192 175.189 15.8041 173.605 15.8041C172.042 15.809 171.26 14.6996 171.26 13.6099ZM171.48 0.0195312H175.829L175.741 10.5458H171.548L171.48 0.0195312Z" fill="#171A1E"/>
<path d="M100.166 29.8949C100.166 30.1784 100.132 30.4814 100.058 30.799H95.8849C96.0511 31.3268 96.7304 31.5614 97.2191 31.5614C97.8739 31.5614 98.3675 31.3757 98.7437 31.0825L99.8335 32.3042C99.1054 32.9834 98.1476 33.2913 97.1115 33.2913C95.235 33.2913 93.6419 32.3628 93.6419 30.193C93.6419 28.0135 95.3425 27.0508 96.96 27.0508C98.7975 27.0459 100.166 28.077 100.166 29.8949ZM97.0138 28.6537C96.4958 28.6537 95.9729 28.8883 95.8996 29.3818H98.0694C98.0449 28.898 97.5318 28.6537 97.0138 28.6537Z" fill="#171A1E"/>
<path d="M103.567 31.577C103.968 31.577 104.163 31.4841 104.163 31.2838C104.163 31.1078 103.963 31.0003 103.543 30.9661C102.384 30.9173 100.977 30.4481 100.977 29.0065C100.977 27.5649 102.336 27.0469 103.733 27.0469C104.696 27.0469 105.595 27.3401 106.172 27.775L105.233 29.0994C104.891 28.8892 104.227 28.7377 103.733 28.7377C103.406 28.7377 103.205 28.7964 103.205 29.0309C103.205 29.1384 103.274 29.2997 103.65 29.3144C104.891 29.3632 106.392 29.7151 106.392 31.2838C106.392 32.7743 105.058 33.3118 103.616 33.3118C102.575 33.3118 101.412 33.0284 100.733 32.525L101.446 30.9075C102.375 31.5037 103.073 31.5379 103.567 31.577Z" fill="#171A1E"/>
<path d="M107.369 35.6436V27.1893H109.348L109.441 27.8344C109.959 27.248 110.731 27.0476 111.41 27.0818C113.155 27.1893 114.128 28.2791 114.128 30.1801C114.128 31.998 112.964 33.2881 111.235 33.2881C110.462 33.2881 109.91 33.0535 109.583 32.6528V35.6436H107.369ZM111.928 30.1801C111.928 29.3493 111.415 28.8655 110.731 28.8655C109.979 28.8655 109.534 29.4861 109.534 30.1068C109.534 30.8349 109.954 31.4898 110.731 31.4898C111.41 31.4946 111.928 31.0108 111.928 30.1801Z" fill="#171A1E"/>
<path d="M121.516 30.1911C121.516 32.3608 119.85 33.2991 118.174 33.2991C116.463 33.2991 114.856 32.3608 114.856 30.1911C114.856 27.9627 116.449 27.0586 118.174 27.0586C119.958 27.0635 121.516 28.0115 121.516 30.1911ZM119.337 30.1911C119.337 29.5118 118.951 28.8765 118.174 28.8765C117.402 28.8765 117.025 29.5118 117.025 30.1911C117.025 30.8703 117.387 31.4812 118.174 31.4812C118.936 31.4812 119.337 30.9094 119.337 30.1911Z" fill="#171A1E"/>
<path d="M124.673 27.8434C125.001 27.2668 125.543 27.0469 126.115 27.0469C126.736 27.0469 127.298 27.257 127.684 27.6822L126.794 29.2899C126.418 29.0065 126.174 28.9381 125.797 28.9381C125.226 28.9381 124.766 29.2655 124.766 30.0523V33.1603H122.552V27.1886H124.546L124.673 27.8434Z" fill="#171A1E"/>
<path d="M131.393 27.2231H132.742V28.9335H131.383V30.8785C131.393 31.2987 131.642 31.4649 131.979 31.4649C132.204 31.4649 132.448 31.3965 132.624 31.2548L133.118 32.8967C132.59 33.1899 132.018 33.2975 131.393 33.2975C130.196 33.2975 129.155 32.7599 129.189 30.8834V28.9384H128.241V27.228H129.189V25.7522L131.393 25.5078V27.2231Z" fill="#171A1E"/>
<path d="M136.539 31.577C136.939 31.577 137.135 31.4841 137.135 31.2838C137.135 31.1078 136.935 31.0003 136.514 30.9661C135.356 30.9173 133.949 30.4481 133.949 29.0065C133.949 27.5649 135.307 27.0469 136.705 27.0469C137.668 27.0469 138.567 27.3401 139.143 27.775L138.205 29.0994C137.863 28.8892 137.198 28.7377 136.705 28.7377C136.377 28.7377 136.177 28.7964 136.177 29.0309C136.177 29.1384 136.245 29.2997 136.622 29.3144C137.863 29.3632 139.363 29.7151 139.363 31.2838C139.363 32.7743 138.029 33.3118 136.588 33.3118C135.547 33.3118 134.384 33.0284 133.704 32.525L134.418 30.9075C135.341 31.5037 136.045 31.5379 136.539 31.577Z" fill="#171A1E"/>
</g>
<defs>
<clipPath id="clip0">
<rect width="176" height="74.7249" fill="white"/>
</clipPath>
</defs>
</svg>
