<svg width="16" height="16" viewBox="0 0 16 16" fill="none" xmlns="http://www.w3.org/2000/svg">
<path d="M15.8107 0.189304C15.5583 -0.0631015 15.1491 -0.0631015 14.8967 0.189304L0.189304 14.8966C-0.0631015 15.149 -0.0631015 15.5583 0.189304 15.8107C0.315492 15.9369 0.480929 16 0.646335 16C0.811741 16 0.977147 15.9369 1.10337 15.8106L15.8107 1.1033C16.0631 0.850928 16.0631 0.44171 15.8107 0.189304Z" fill="white"/>
<path d="M15.8107 14.8976L1.1033 0.190304C0.850928 -0.062102 0.441679 -0.062102 0.189304 0.190304C-0.0631015 0.442679 -0.0631015 0.851897 0.189304 1.1043L14.8967 15.8117C15.0228 15.9379 15.1883 16.001 15.3537 16.001C15.5191 16.001 15.6845 15.9379 15.8107 15.8117C16.063 15.5592 16.063 15.15 15.8107 14.8976Z" fill="white"/>
</svg>
